%TF.GenerationSoftware,KiCad,Pcbnew,8.0.6*%
%TF.CreationDate,2024-12-27T21:34:21-08:00*%
%TF.ProjectId,PIC32Flex,50494333-3246-46c6-9578-2e6b69636164,rev?*%
%TF.SameCoordinates,Original*%
%TF.FileFunction,Drillmap*%
%TF.FilePolarity,Positive*%
%FSLAX45Y45*%
G04 Gerber Fmt 4.5, Leading zero omitted, Abs format (unit mm)*
G04 Created by KiCad (PCBNEW 8.0.6) date 2024-12-27 21:34:21*
%MOMM*%
%LPD*%
G01*
G04 APERTURE LIST*
%ADD10C,0.050000*%
%ADD11C,0.200000*%
G04 APERTURE END LIST*
D10*
X9784980Y-7169760D02*
G75*
G02*
X9984980Y-6969760I200000J0D01*
G01*
X11484980Y-7169760D02*
X11484980Y-10019760D01*
X9984980Y-6969760D02*
X11284980Y-6969760D01*
X9784980Y-10019760D02*
X9784980Y-7169760D01*
X9984980Y-10219760D02*
G75*
G02*
X9784980Y-10019760I0J200000D01*
G01*
X11484980Y-10019760D02*
G75*
G02*
X11284980Y-10219760I-200000J0D01*
G01*
X11284980Y-10219760D02*
X9984980Y-10219760D01*
X11284980Y-6969760D02*
G75*
G02*
X11484980Y-7169760I0J-200000D01*
G01*
D11*
X10043257Y-10533744D02*
X10043257Y-10333744D01*
X10043257Y-10333744D02*
X10090876Y-10333744D01*
X10090876Y-10333744D02*
X10119447Y-10343268D01*
X10119447Y-10343268D02*
X10138495Y-10362315D01*
X10138495Y-10362315D02*
X10148019Y-10381363D01*
X10148019Y-10381363D02*
X10157543Y-10419458D01*
X10157543Y-10419458D02*
X10157543Y-10448030D01*
X10157543Y-10448030D02*
X10148019Y-10486125D01*
X10148019Y-10486125D02*
X10138495Y-10505172D01*
X10138495Y-10505172D02*
X10119447Y-10524220D01*
X10119447Y-10524220D02*
X10090876Y-10533744D01*
X10090876Y-10533744D02*
X10043257Y-10533744D01*
X10243257Y-10533744D02*
X10243257Y-10400410D01*
X10243257Y-10438506D02*
X10252781Y-10419458D01*
X10252781Y-10419458D02*
X10262304Y-10409934D01*
X10262304Y-10409934D02*
X10281352Y-10400410D01*
X10281352Y-10400410D02*
X10300400Y-10400410D01*
X10367066Y-10533744D02*
X10367066Y-10400410D01*
X10367066Y-10333744D02*
X10357543Y-10343268D01*
X10357543Y-10343268D02*
X10367066Y-10352791D01*
X10367066Y-10352791D02*
X10376590Y-10343268D01*
X10376590Y-10343268D02*
X10367066Y-10333744D01*
X10367066Y-10333744D02*
X10367066Y-10352791D01*
X10490876Y-10533744D02*
X10471828Y-10524220D01*
X10471828Y-10524220D02*
X10462304Y-10505172D01*
X10462304Y-10505172D02*
X10462304Y-10333744D01*
X10595638Y-10533744D02*
X10576590Y-10524220D01*
X10576590Y-10524220D02*
X10567066Y-10505172D01*
X10567066Y-10505172D02*
X10567066Y-10333744D01*
X10824209Y-10533744D02*
X10824209Y-10333744D01*
X10824209Y-10333744D02*
X10890876Y-10476601D01*
X10890876Y-10476601D02*
X10957543Y-10333744D01*
X10957543Y-10333744D02*
X10957543Y-10533744D01*
X11138495Y-10533744D02*
X11138495Y-10428982D01*
X11138495Y-10428982D02*
X11128971Y-10409934D01*
X11128971Y-10409934D02*
X11109924Y-10400410D01*
X11109924Y-10400410D02*
X11071828Y-10400410D01*
X11071828Y-10400410D02*
X11052781Y-10409934D01*
X11138495Y-10524220D02*
X11119447Y-10533744D01*
X11119447Y-10533744D02*
X11071828Y-10533744D01*
X11071828Y-10533744D02*
X11052781Y-10524220D01*
X11052781Y-10524220D02*
X11043257Y-10505172D01*
X11043257Y-10505172D02*
X11043257Y-10486125D01*
X11043257Y-10486125D02*
X11052781Y-10467077D01*
X11052781Y-10467077D02*
X11071828Y-10457553D01*
X11071828Y-10457553D02*
X11119447Y-10457553D01*
X11119447Y-10457553D02*
X11138495Y-10448030D01*
X11233733Y-10400410D02*
X11233733Y-10600410D01*
X11233733Y-10409934D02*
X11252781Y-10400410D01*
X11252781Y-10400410D02*
X11290876Y-10400410D01*
X11290876Y-10400410D02*
X11309923Y-10409934D01*
X11309923Y-10409934D02*
X11319447Y-10419458D01*
X11319447Y-10419458D02*
X11328971Y-10438506D01*
X11328971Y-10438506D02*
X11328971Y-10495649D01*
X11328971Y-10495649D02*
X11319447Y-10514696D01*
X11319447Y-10514696D02*
X11309923Y-10524220D01*
X11309923Y-10524220D02*
X11290876Y-10533744D01*
X11290876Y-10533744D02*
X11252781Y-10533744D01*
X11252781Y-10533744D02*
X11233733Y-10524220D01*
X11414685Y-10514696D02*
X11424209Y-10524220D01*
X11424209Y-10524220D02*
X11414685Y-10533744D01*
X11414685Y-10533744D02*
X11405162Y-10524220D01*
X11405162Y-10524220D02*
X11414685Y-10514696D01*
X11414685Y-10514696D02*
X11414685Y-10533744D01*
X11414685Y-10409934D02*
X11424209Y-10419458D01*
X11424209Y-10419458D02*
X11414685Y-10428982D01*
X11414685Y-10428982D02*
X11405162Y-10419458D01*
X11405162Y-10419458D02*
X11414685Y-10409934D01*
X11414685Y-10409934D02*
X11414685Y-10428982D01*
M02*
