%TF.GenerationSoftware,KiCad,Pcbnew,8.0.6*%
%TF.CreationDate,2024-12-27T21:34:25-08:00*%
%TF.ProjectId,PIC32Flex,50494333-3246-46c6-9578-2e6b69636164,rev?*%
%TF.SameCoordinates,Original*%
%TF.FileFunction,Copper,L2,Inr*%
%TF.FilePolarity,Positive*%
%FSLAX46Y46*%
G04 Gerber Fmt 4.6, Leading zero omitted, Abs format (unit mm)*
G04 Created by KiCad (PCBNEW 8.0.6) date 2024-12-27 21:34:25*
%MOMM*%
%LPD*%
G01*
G04 APERTURE LIST*
%ADD10C,0.300000*%
%TA.AperFunction,NonConductor*%
%ADD11C,0.300000*%
%TD*%
%TA.AperFunction,ComponentPad*%
%ADD12R,1.700000X1.700000*%
%TD*%
%TA.AperFunction,ComponentPad*%
%ADD13O,1.700000X1.700000*%
%TD*%
%TA.AperFunction,ViaPad*%
%ADD14C,0.600000*%
%TD*%
G04 APERTURE END LIST*
D10*
D11*
X113186400Y-99135965D02*
X113119733Y-99069298D01*
X113119733Y-99069298D02*
X113053066Y-98935965D01*
X113053066Y-98935965D02*
X113053066Y-98602632D01*
X113053066Y-98602632D02*
X113119733Y-98469298D01*
X113119733Y-98469298D02*
X113186400Y-98402632D01*
X113186400Y-98402632D02*
X113319733Y-98335965D01*
X113319733Y-98335965D02*
X113453066Y-98335965D01*
X113453066Y-98335965D02*
X113653066Y-98402632D01*
X113653066Y-98402632D02*
X114453066Y-99202632D01*
X114453066Y-99202632D02*
X114453066Y-98335965D01*
D12*
%TO.N,/MCLR*%
%TO.C,J2*%
X111410000Y-71950000D03*
D13*
%TO.N,+3.3V*%
X108870000Y-71950000D03*
%TO.N,GND*%
X106330000Y-71950000D03*
%TO.N,/PGData*%
X103790000Y-71950000D03*
%TO.N,/PGClk*%
X101250000Y-71950000D03*
%TD*%
%TO.N,/RB8*%
%TO.C,J4*%
X100040000Y-97880000D03*
%TO.N,/RB5*%
X100040000Y-95340000D03*
%TO.N,/RA4*%
X100040000Y-92800000D03*
%TO.N,/RB4*%
X100040000Y-90260000D03*
%TO.N,/RA3*%
X100040000Y-87720000D03*
%TO.N,/RA2*%
X100040000Y-85180000D03*
%TO.N,/AN5{slash}RB3*%
X100040000Y-82640000D03*
%TO.N,/AN4{slash}RB2*%
X100040000Y-80100000D03*
%TO.N,GND*%
X100040000Y-77560000D03*
D12*
%TO.N,+3.3V*%
X100040000Y-75020000D03*
%TD*%
%TO.N,/AN1{slash}RA1*%
%TO.C,J3*%
X112740000Y-75020000D03*
D13*
%TO.N,/AN0{slash}RA0*%
X112740000Y-77560000D03*
%TO.N,/AN9{slash}RB15*%
X112740000Y-80100000D03*
%TO.N,/AN10{slash}RB14*%
X112740000Y-82640000D03*
%TO.N,/AN11{slash}RB13*%
X112740000Y-85180000D03*
%TO.N,/AN12{slash}RB12*%
X112740000Y-87720000D03*
%TO.N,/RB11*%
X112740000Y-90260000D03*
%TO.N,/RB10*%
X112740000Y-92800000D03*
%TO.N,/RB9*%
X112740000Y-95340000D03*
%TD*%
D12*
%TO.N,/TXD*%
%TO.C,J1*%
X103837600Y-100170800D03*
D13*
%TO.N,/RXD*%
X106377600Y-100170800D03*
%TO.N,GND*%
X108917600Y-100170800D03*
%TD*%
D14*
%TO.N,+3.3V*%
X102020000Y-89971471D03*
X104020000Y-78840000D03*
X110560000Y-82330000D03*
X107020000Y-78870000D03*
%TO.N,GND*%
X107255735Y-81065735D03*
X104280000Y-81090000D03*
X103170000Y-75570000D03*
X106373203Y-86545485D03*
%TO.N,/TXD*%
X103837600Y-90580000D03*
%TO.N,/RXD*%
X104560000Y-90180000D03*
%TO.N,/RB5*%
X103650000Y-89270000D03*
%TO.N,/AN0{slash}RA0*%
X107950000Y-82350000D03*
%TO.N,/AN1{slash}RA1*%
X106980000Y-82010000D03*
%TD*%
%TA.AperFunction,Conductor*%
%TO.N,GND*%
G36*
X112853843Y-69898365D02*
G01*
X113076590Y-69912964D01*
X113092648Y-69915079D01*
X113278675Y-69952082D01*
X113307571Y-69957830D01*
X113323238Y-69962028D01*
X113476369Y-70014009D01*
X113530744Y-70032467D01*
X113545721Y-70038670D01*
X113736591Y-70132796D01*
X113742260Y-70135592D01*
X113756308Y-70143702D01*
X113938512Y-70265448D01*
X113951373Y-70275316D01*
X114056295Y-70367330D01*
X114116128Y-70419802D01*
X114127597Y-70431271D01*
X114237960Y-70557117D01*
X114272080Y-70596023D01*
X114281954Y-70608891D01*
X114403697Y-70791092D01*
X114411807Y-70805139D01*
X114508726Y-71001671D01*
X114514933Y-71016657D01*
X114585371Y-71224161D01*
X114589569Y-71239828D01*
X114632318Y-71454740D01*
X114634436Y-71470821D01*
X114649035Y-71693556D01*
X114649300Y-71701666D01*
X114649300Y-97554740D01*
X114629615Y-97621779D01*
X114576811Y-97667534D01*
X114525300Y-97678740D01*
X112395841Y-97678740D01*
X112395841Y-99858132D01*
X114525300Y-99858132D01*
X114592339Y-99877817D01*
X114638094Y-99930621D01*
X114649300Y-99982132D01*
X114649300Y-100193533D01*
X114649035Y-100201643D01*
X114634436Y-100424378D01*
X114632318Y-100440459D01*
X114589569Y-100655371D01*
X114585371Y-100671038D01*
X114514933Y-100878542D01*
X114508726Y-100893528D01*
X114411807Y-101090060D01*
X114403697Y-101104107D01*
X114281954Y-101286308D01*
X114272080Y-101299176D01*
X114127597Y-101463928D01*
X114116128Y-101475397D01*
X113951376Y-101619880D01*
X113938508Y-101629754D01*
X113756307Y-101751497D01*
X113742260Y-101759607D01*
X113545728Y-101856526D01*
X113530742Y-101862733D01*
X113323238Y-101933171D01*
X113307571Y-101937369D01*
X113092659Y-101980118D01*
X113076578Y-101982236D01*
X112853843Y-101996835D01*
X112845733Y-101997100D01*
X99853867Y-101997100D01*
X99845757Y-101996835D01*
X99623021Y-101982236D01*
X99606940Y-101980118D01*
X99392028Y-101937369D01*
X99376361Y-101933171D01*
X99168857Y-101862733D01*
X99153871Y-101856526D01*
X98957339Y-101759607D01*
X98943292Y-101751497D01*
X98761091Y-101629754D01*
X98748223Y-101619880D01*
X98583471Y-101475397D01*
X98572002Y-101463928D01*
X98467179Y-101344400D01*
X98427516Y-101299173D01*
X98417645Y-101286308D01*
X98402161Y-101263135D01*
X98295902Y-101104107D01*
X98287792Y-101090060D01*
X98264031Y-101041878D01*
X98190870Y-100893521D01*
X98184666Y-100878542D01*
X98114228Y-100671038D01*
X98110030Y-100655371D01*
X98098017Y-100594976D01*
X98067279Y-100440448D01*
X98065164Y-100424390D01*
X98050565Y-100201643D01*
X98050300Y-100193533D01*
X98050300Y-99272935D01*
X102487100Y-99272935D01*
X102487100Y-101068670D01*
X102487101Y-101068676D01*
X102493508Y-101128283D01*
X102543802Y-101263128D01*
X102543806Y-101263135D01*
X102630052Y-101378344D01*
X102630055Y-101378347D01*
X102745264Y-101464593D01*
X102745271Y-101464597D01*
X102880117Y-101514891D01*
X102880116Y-101514891D01*
X102887044Y-101515635D01*
X102939727Y-101521300D01*
X104735472Y-101521299D01*
X104795083Y-101514891D01*
X104929931Y-101464596D01*
X105045146Y-101378346D01*
X105131396Y-101263131D01*
X105180410Y-101131716D01*
X105222281Y-101075784D01*
X105287745Y-101051366D01*
X105356018Y-101066217D01*
X105384273Y-101087369D01*
X105506199Y-101209295D01*
X105602984Y-101277065D01*
X105699765Y-101344832D01*
X105699767Y-101344833D01*
X105699770Y-101344835D01*
X105913937Y-101444703D01*
X106142192Y-101505863D01*
X106318634Y-101521300D01*
X106377599Y-101526459D01*
X106377600Y-101526459D01*
X106377601Y-101526459D01*
X106436566Y-101521300D01*
X106613008Y-101505863D01*
X106841263Y-101444703D01*
X107055430Y-101344835D01*
X107249001Y-101209295D01*
X107416095Y-101042201D01*
X107546330Y-100856205D01*
X107600907Y-100812581D01*
X107670405Y-100805387D01*
X107732760Y-100836910D01*
X107749479Y-100856205D01*
X107879490Y-101041878D01*
X108046517Y-101208905D01*
X108240021Y-101344400D01*
X108454107Y-101444229D01*
X108454116Y-101444233D01*
X108667600Y-101501434D01*
X108667600Y-100603812D01*
X108724607Y-100636725D01*
X108851774Y-100670800D01*
X108983426Y-100670800D01*
X109110593Y-100636725D01*
X109167600Y-100603812D01*
X109167600Y-101501433D01*
X109381083Y-101444233D01*
X109381092Y-101444229D01*
X109595178Y-101344400D01*
X109788682Y-101208905D01*
X109955705Y-101041882D01*
X110091200Y-100848378D01*
X110191029Y-100634292D01*
X110191032Y-100634286D01*
X110248236Y-100420800D01*
X109350612Y-100420800D01*
X109383525Y-100363793D01*
X109417600Y-100236626D01*
X109417600Y-100104974D01*
X109383525Y-99977807D01*
X109350612Y-99920800D01*
X110248236Y-99920800D01*
X110248235Y-99920799D01*
X110191032Y-99707313D01*
X110191029Y-99707307D01*
X110091200Y-99493222D01*
X110091199Y-99493220D01*
X109955713Y-99299726D01*
X109955708Y-99299720D01*
X109788682Y-99132694D01*
X109595178Y-98997199D01*
X109381092Y-98897370D01*
X109381086Y-98897367D01*
X109167600Y-98840164D01*
X109167600Y-99737788D01*
X109110593Y-99704875D01*
X108983426Y-99670800D01*
X108851774Y-99670800D01*
X108724607Y-99704875D01*
X108667600Y-99737788D01*
X108667600Y-98840164D01*
X108667599Y-98840164D01*
X108454113Y-98897367D01*
X108454107Y-98897370D01*
X108240022Y-98997199D01*
X108240020Y-98997200D01*
X108046526Y-99132686D01*
X108046520Y-99132691D01*
X107879491Y-99299720D01*
X107879490Y-99299722D01*
X107749480Y-99485395D01*
X107694903Y-99529019D01*
X107625404Y-99536212D01*
X107563050Y-99504690D01*
X107546330Y-99485394D01*
X107416094Y-99299397D01*
X107249002Y-99132306D01*
X107248995Y-99132301D01*
X107055434Y-98996767D01*
X107055430Y-98996765D01*
X107055428Y-98996764D01*
X106841263Y-98896897D01*
X106841259Y-98896896D01*
X106841255Y-98896894D01*
X106613013Y-98835738D01*
X106613003Y-98835736D01*
X106377601Y-98815141D01*
X106377599Y-98815141D01*
X106142196Y-98835736D01*
X106142186Y-98835738D01*
X105913944Y-98896894D01*
X105913935Y-98896898D01*
X105699771Y-98996764D01*
X105699769Y-98996765D01*
X105506200Y-99132303D01*
X105384273Y-99254230D01*
X105322950Y-99287714D01*
X105253258Y-99282730D01*
X105197325Y-99240858D01*
X105180410Y-99209881D01*
X105131397Y-99078471D01*
X105131393Y-99078464D01*
X105045147Y-98963255D01*
X105045144Y-98963252D01*
X104929935Y-98877006D01*
X104929928Y-98877002D01*
X104795082Y-98826708D01*
X104795083Y-98826708D01*
X104735483Y-98820301D01*
X104735481Y-98820300D01*
X104735473Y-98820300D01*
X104735464Y-98820300D01*
X102939729Y-98820300D01*
X102939723Y-98820301D01*
X102880116Y-98826708D01*
X102745271Y-98877002D01*
X102745264Y-98877006D01*
X102630055Y-98963252D01*
X102630052Y-98963255D01*
X102543806Y-99078464D01*
X102543802Y-99078471D01*
X102493508Y-99213317D01*
X102487101Y-99272916D01*
X102487100Y-99272935D01*
X98050300Y-99272935D01*
X98050300Y-80099999D01*
X98684341Y-80099999D01*
X98684341Y-80100000D01*
X98704936Y-80335403D01*
X98704938Y-80335413D01*
X98766094Y-80563655D01*
X98766096Y-80563659D01*
X98766097Y-80563663D01*
X98865965Y-80777830D01*
X98865967Y-80777834D01*
X99001501Y-80971395D01*
X99001506Y-80971402D01*
X99168597Y-81138493D01*
X99168603Y-81138498D01*
X99354158Y-81268425D01*
X99397783Y-81323002D01*
X99404977Y-81392500D01*
X99373454Y-81454855D01*
X99354158Y-81471575D01*
X99168597Y-81601505D01*
X99001505Y-81768597D01*
X98865965Y-81962169D01*
X98865964Y-81962171D01*
X98766098Y-82176335D01*
X98766094Y-82176344D01*
X98704938Y-82404586D01*
X98704936Y-82404596D01*
X98684341Y-82639999D01*
X98684341Y-82640000D01*
X98704936Y-82875403D01*
X98704938Y-82875413D01*
X98766094Y-83103655D01*
X98766096Y-83103659D01*
X98766097Y-83103663D01*
X98865965Y-83317830D01*
X98865967Y-83317834D01*
X99001501Y-83511395D01*
X99001506Y-83511402D01*
X99168597Y-83678493D01*
X99168603Y-83678498D01*
X99354158Y-83808425D01*
X99397783Y-83863002D01*
X99404977Y-83932500D01*
X99373454Y-83994855D01*
X99354158Y-84011575D01*
X99168597Y-84141505D01*
X99001505Y-84308597D01*
X98865965Y-84502169D01*
X98865964Y-84502171D01*
X98766098Y-84716335D01*
X98766094Y-84716344D01*
X98704938Y-84944586D01*
X98704936Y-84944596D01*
X98684341Y-85179999D01*
X98684341Y-85180000D01*
X98704936Y-85415403D01*
X98704938Y-85415413D01*
X98766094Y-85643655D01*
X98766096Y-85643659D01*
X98766097Y-85643663D01*
X98865965Y-85857830D01*
X98865967Y-85857834D01*
X99001501Y-86051395D01*
X99001506Y-86051402D01*
X99168597Y-86218493D01*
X99168603Y-86218498D01*
X99354158Y-86348425D01*
X99397783Y-86403002D01*
X99404977Y-86472500D01*
X99373454Y-86534855D01*
X99354158Y-86551575D01*
X99168597Y-86681505D01*
X99001505Y-86848597D01*
X98865965Y-87042169D01*
X98865964Y-87042171D01*
X98766098Y-87256335D01*
X98766094Y-87256344D01*
X98704938Y-87484586D01*
X98704936Y-87484596D01*
X98684341Y-87719999D01*
X98684341Y-87720000D01*
X98704936Y-87955403D01*
X98704938Y-87955413D01*
X98766094Y-88183655D01*
X98766096Y-88183659D01*
X98766097Y-88183663D01*
X98865965Y-88397830D01*
X98865967Y-88397834D01*
X99001501Y-88591395D01*
X99001506Y-88591402D01*
X99168597Y-88758493D01*
X99168603Y-88758498D01*
X99354158Y-88888425D01*
X99397783Y-88943002D01*
X99404977Y-89012500D01*
X99373454Y-89074855D01*
X99354158Y-89091575D01*
X99168597Y-89221505D01*
X99001505Y-89388597D01*
X98865965Y-89582169D01*
X98865964Y-89582171D01*
X98766098Y-89796335D01*
X98766094Y-89796344D01*
X98704938Y-90024586D01*
X98704936Y-90024596D01*
X98684341Y-90259999D01*
X98684341Y-90260000D01*
X98704936Y-90495403D01*
X98704938Y-90495413D01*
X98766094Y-90723655D01*
X98766096Y-90723659D01*
X98766097Y-90723663D01*
X98806271Y-90809816D01*
X98865965Y-90937830D01*
X98865967Y-90937834D01*
X99001501Y-91131395D01*
X99001506Y-91131402D01*
X99168597Y-91298493D01*
X99168603Y-91298498D01*
X99354158Y-91428425D01*
X99397783Y-91483002D01*
X99404977Y-91552500D01*
X99373454Y-91614855D01*
X99354158Y-91631575D01*
X99168597Y-91761505D01*
X99001505Y-91928597D01*
X98865965Y-92122169D01*
X98865964Y-92122171D01*
X98766098Y-92336335D01*
X98766094Y-92336344D01*
X98704938Y-92564586D01*
X98704936Y-92564596D01*
X98684341Y-92799999D01*
X98684341Y-92800000D01*
X98704936Y-93035403D01*
X98704938Y-93035413D01*
X98766094Y-93263655D01*
X98766096Y-93263659D01*
X98766097Y-93263663D01*
X98865965Y-93477830D01*
X98865967Y-93477834D01*
X99001501Y-93671395D01*
X99001506Y-93671402D01*
X99168597Y-93838493D01*
X99168603Y-93838498D01*
X99354158Y-93968425D01*
X99397783Y-94023002D01*
X99404977Y-94092500D01*
X99373454Y-94154855D01*
X99354158Y-94171575D01*
X99168597Y-94301505D01*
X99001505Y-94468597D01*
X98865965Y-94662169D01*
X98865964Y-94662171D01*
X98766098Y-94876335D01*
X98766094Y-94876344D01*
X98704938Y-95104586D01*
X98704936Y-95104596D01*
X98684341Y-95339999D01*
X98684341Y-95340000D01*
X98704936Y-95575403D01*
X98704938Y-95575413D01*
X98766094Y-95803655D01*
X98766096Y-95803659D01*
X98766097Y-95803663D01*
X98865965Y-96017830D01*
X98865967Y-96017834D01*
X99001501Y-96211395D01*
X99001506Y-96211402D01*
X99168597Y-96378493D01*
X99168603Y-96378498D01*
X99354158Y-96508425D01*
X99397783Y-96563002D01*
X99404977Y-96632500D01*
X99373454Y-96694855D01*
X99354158Y-96711575D01*
X99168597Y-96841505D01*
X99001505Y-97008597D01*
X98865965Y-97202169D01*
X98865964Y-97202171D01*
X98766098Y-97416335D01*
X98766094Y-97416344D01*
X98704938Y-97644586D01*
X98704936Y-97644596D01*
X98684341Y-97879999D01*
X98684341Y-97880000D01*
X98704936Y-98115403D01*
X98704938Y-98115413D01*
X98766094Y-98343655D01*
X98766096Y-98343659D01*
X98766097Y-98343663D01*
X98865965Y-98557830D01*
X98865967Y-98557834D01*
X98974281Y-98712521D01*
X99001505Y-98751401D01*
X99168599Y-98918495D01*
X99232523Y-98963255D01*
X99362165Y-99054032D01*
X99362167Y-99054033D01*
X99362170Y-99054035D01*
X99576337Y-99153903D01*
X99804592Y-99215063D01*
X99992918Y-99231539D01*
X100039999Y-99235659D01*
X100040000Y-99235659D01*
X100040001Y-99235659D01*
X100079234Y-99232226D01*
X100275408Y-99215063D01*
X100503663Y-99153903D01*
X100717830Y-99054035D01*
X100911401Y-98918495D01*
X101078495Y-98751401D01*
X101214035Y-98557830D01*
X101313903Y-98343663D01*
X101375063Y-98115408D01*
X101395659Y-97880000D01*
X101375063Y-97644592D01*
X101313903Y-97416337D01*
X101214035Y-97202171D01*
X101078495Y-97008599D01*
X101078494Y-97008597D01*
X100911402Y-96841506D01*
X100911396Y-96841501D01*
X100725842Y-96711575D01*
X100682217Y-96656998D01*
X100675023Y-96587500D01*
X100706546Y-96525145D01*
X100725842Y-96508425D01*
X100748026Y-96492891D01*
X100911401Y-96378495D01*
X101078495Y-96211401D01*
X101214035Y-96017830D01*
X101313903Y-95803663D01*
X101375063Y-95575408D01*
X101395659Y-95340000D01*
X101375063Y-95104592D01*
X101313903Y-94876337D01*
X101214035Y-94662171D01*
X101078495Y-94468599D01*
X101078494Y-94468597D01*
X100911402Y-94301506D01*
X100911396Y-94301501D01*
X100725842Y-94171575D01*
X100682217Y-94116998D01*
X100675023Y-94047500D01*
X100706546Y-93985145D01*
X100725842Y-93968425D01*
X100748026Y-93952891D01*
X100911401Y-93838495D01*
X101078495Y-93671401D01*
X101214035Y-93477830D01*
X101313903Y-93263663D01*
X101375063Y-93035408D01*
X101395659Y-92800000D01*
X101375063Y-92564592D01*
X101313903Y-92336337D01*
X101214035Y-92122171D01*
X101078495Y-91928599D01*
X101078494Y-91928597D01*
X100911402Y-91761506D01*
X100911396Y-91761501D01*
X100725842Y-91631575D01*
X100682217Y-91576998D01*
X100675023Y-91507500D01*
X100706546Y-91445145D01*
X100725842Y-91428425D01*
X100815895Y-91365369D01*
X100911401Y-91298495D01*
X101078495Y-91131401D01*
X101214035Y-90937830D01*
X101313903Y-90723663D01*
X101327856Y-90671590D01*
X101364220Y-90611929D01*
X101427067Y-90581399D01*
X101496443Y-90589693D01*
X101513604Y-90598689D01*
X101517736Y-90601285D01*
X101517738Y-90601287D01*
X101534675Y-90611929D01*
X101670475Y-90697259D01*
X101840745Y-90756839D01*
X101840750Y-90756840D01*
X102019996Y-90777036D01*
X102020000Y-90777036D01*
X102020004Y-90777036D01*
X102199249Y-90756840D01*
X102199252Y-90756839D01*
X102199255Y-90756839D01*
X102369522Y-90697260D01*
X102522262Y-90601287D01*
X102649816Y-90473733D01*
X102745789Y-90320993D01*
X102805368Y-90150726D01*
X102818673Y-90032642D01*
X102825565Y-89971474D01*
X102825565Y-89971468D01*
X102815234Y-89879778D01*
X102827288Y-89810956D01*
X102874637Y-89759576D01*
X102942248Y-89741952D01*
X103008654Y-89763678D01*
X103026135Y-89778213D01*
X103147737Y-89899815D01*
X103147740Y-89899817D01*
X103165943Y-89911255D01*
X103212235Y-89963589D01*
X103222884Y-90032642D01*
X103204966Y-90082221D01*
X103111811Y-90230476D01*
X103052231Y-90400745D01*
X103052230Y-90400750D01*
X103032035Y-90579996D01*
X103032035Y-90580003D01*
X103052230Y-90759249D01*
X103052231Y-90759254D01*
X103111811Y-90929523D01*
X103147025Y-90985565D01*
X103207784Y-91082262D01*
X103335338Y-91209816D01*
X103425680Y-91266582D01*
X103476469Y-91298495D01*
X103488078Y-91305789D01*
X103658345Y-91365368D01*
X103658350Y-91365369D01*
X103837596Y-91385565D01*
X103837600Y-91385565D01*
X103837604Y-91385565D01*
X104016849Y-91365369D01*
X104016852Y-91365368D01*
X104016855Y-91365368D01*
X104187122Y-91305789D01*
X104339862Y-91209816D01*
X104467416Y-91082262D01*
X104493979Y-91039985D01*
X104546310Y-90993696D01*
X104585087Y-90982738D01*
X104639136Y-90976648D01*
X104739249Y-90965369D01*
X104739252Y-90965368D01*
X104739255Y-90965368D01*
X104909522Y-90905789D01*
X105062262Y-90809816D01*
X105189816Y-90682262D01*
X105285789Y-90529522D01*
X105345368Y-90359255D01*
X105349679Y-90320993D01*
X105365565Y-90180003D01*
X105365565Y-90179996D01*
X105345369Y-90000750D01*
X105345368Y-90000745D01*
X105335125Y-89971471D01*
X105285789Y-89830478D01*
X105189816Y-89677738D01*
X105062262Y-89550184D01*
X104995579Y-89508284D01*
X104909523Y-89454211D01*
X104739254Y-89394631D01*
X104739250Y-89394630D01*
X104564404Y-89374930D01*
X104499990Y-89347863D01*
X104460435Y-89290268D01*
X104455068Y-89265593D01*
X104450100Y-89221501D01*
X104435369Y-89090750D01*
X104435369Y-89090749D01*
X104435368Y-89090745D01*
X104400116Y-88990000D01*
X104375789Y-88920478D01*
X104279816Y-88767738D01*
X104152262Y-88640184D01*
X104074626Y-88591402D01*
X103999523Y-88544211D01*
X103829254Y-88484631D01*
X103829249Y-88484630D01*
X103650004Y-88464435D01*
X103649996Y-88464435D01*
X103470750Y-88484630D01*
X103470745Y-88484631D01*
X103300476Y-88544211D01*
X103147737Y-88640184D01*
X103020184Y-88767737D01*
X102924211Y-88920476D01*
X102864631Y-89090745D01*
X102864630Y-89090750D01*
X102844435Y-89269996D01*
X102844435Y-89270005D01*
X102854765Y-89361694D01*
X102842710Y-89430515D01*
X102795361Y-89481894D01*
X102727750Y-89499518D01*
X102661344Y-89477791D01*
X102643864Y-89463257D01*
X102522262Y-89341655D01*
X102369523Y-89245682D01*
X102199254Y-89186102D01*
X102199249Y-89186101D01*
X102020004Y-89165906D01*
X102019996Y-89165906D01*
X101840750Y-89186101D01*
X101840745Y-89186102D01*
X101670476Y-89245682D01*
X101517737Y-89341655D01*
X101390182Y-89469210D01*
X101368867Y-89503134D01*
X101316532Y-89549425D01*
X101247479Y-89560072D01*
X101183631Y-89531697D01*
X101162299Y-89508284D01*
X101078494Y-89388597D01*
X100911402Y-89221506D01*
X100911396Y-89221501D01*
X100725842Y-89091575D01*
X100682217Y-89036998D01*
X100675023Y-88967500D01*
X100706546Y-88905145D01*
X100725842Y-88888425D01*
X100748026Y-88872891D01*
X100911401Y-88758495D01*
X101078495Y-88591401D01*
X101214035Y-88397830D01*
X101313903Y-88183663D01*
X101375063Y-87955408D01*
X101395659Y-87720000D01*
X101375063Y-87484592D01*
X101313903Y-87256337D01*
X101214035Y-87042171D01*
X101078495Y-86848599D01*
X101078494Y-86848597D01*
X100911402Y-86681506D01*
X100911396Y-86681501D01*
X100725842Y-86551575D01*
X100682217Y-86496998D01*
X100675023Y-86427500D01*
X100706546Y-86365145D01*
X100725842Y-86348425D01*
X100748026Y-86332891D01*
X100911401Y-86218495D01*
X101078495Y-86051401D01*
X101214035Y-85857830D01*
X101313903Y-85643663D01*
X101375063Y-85415408D01*
X101395659Y-85180000D01*
X101375063Y-84944592D01*
X101313903Y-84716337D01*
X101214035Y-84502171D01*
X101078495Y-84308599D01*
X101078494Y-84308597D01*
X100911402Y-84141506D01*
X100911396Y-84141501D01*
X100725842Y-84011575D01*
X100682217Y-83956998D01*
X100675023Y-83887500D01*
X100706546Y-83825145D01*
X100725842Y-83808425D01*
X100748026Y-83792891D01*
X100911401Y-83678495D01*
X101078495Y-83511401D01*
X101214035Y-83317830D01*
X101313903Y-83103663D01*
X101375063Y-82875408D01*
X101395659Y-82640000D01*
X101375063Y-82404592D01*
X101313903Y-82176337D01*
X101236336Y-82009996D01*
X106174435Y-82009996D01*
X106174435Y-82010003D01*
X106194630Y-82189249D01*
X106194631Y-82189254D01*
X106254211Y-82359523D01*
X106348291Y-82509249D01*
X106350184Y-82512262D01*
X106477738Y-82639816D01*
X106630478Y-82735789D01*
X106794283Y-82793107D01*
X106800745Y-82795368D01*
X106800750Y-82795369D01*
X106979996Y-82815565D01*
X106980000Y-82815565D01*
X106980004Y-82815565D01*
X107159247Y-82795369D01*
X107159247Y-82795368D01*
X107159255Y-82795368D01*
X107168532Y-82792121D01*
X107238305Y-82788556D01*
X107298935Y-82823281D01*
X107314482Y-82843187D01*
X107320184Y-82852262D01*
X107447738Y-82979816D01*
X107538080Y-83036582D01*
X107568646Y-83055788D01*
X107600478Y-83075789D01*
X107713591Y-83115369D01*
X107770745Y-83135368D01*
X107770750Y-83135369D01*
X107949996Y-83155565D01*
X107950000Y-83155565D01*
X107950004Y-83155565D01*
X108129249Y-83135369D01*
X108129252Y-83135368D01*
X108129255Y-83135368D01*
X108299522Y-83075789D01*
X108452262Y-82979816D01*
X108579816Y-82852262D01*
X108675789Y-82699522D01*
X108735368Y-82529255D01*
X108737283Y-82512262D01*
X108755565Y-82350003D01*
X108755565Y-82349996D01*
X108753312Y-82329996D01*
X109754435Y-82329996D01*
X109754435Y-82330003D01*
X109774630Y-82509249D01*
X109774631Y-82509254D01*
X109834211Y-82679523D01*
X109919693Y-82815565D01*
X109930184Y-82832262D01*
X110057738Y-82959816D01*
X110210478Y-83055789D01*
X110267632Y-83075788D01*
X110380745Y-83115368D01*
X110380750Y-83115369D01*
X110559996Y-83135565D01*
X110560000Y-83135565D01*
X110560004Y-83135565D01*
X110739249Y-83115369D01*
X110739252Y-83115368D01*
X110739255Y-83115368D01*
X110909522Y-83055789D01*
X111062262Y-82959816D01*
X111189816Y-82832262D01*
X111189816Y-82832261D01*
X111194740Y-82827338D01*
X111195857Y-82828455D01*
X111246207Y-82793107D01*
X111316018Y-82790248D01*
X111376292Y-82825586D01*
X111405755Y-82878462D01*
X111466094Y-83103655D01*
X111466096Y-83103659D01*
X111466097Y-83103663D01*
X111565965Y-83317830D01*
X111565967Y-83317834D01*
X111701501Y-83511395D01*
X111701506Y-83511402D01*
X111868597Y-83678493D01*
X111868603Y-83678498D01*
X112054158Y-83808425D01*
X112097783Y-83863002D01*
X112104977Y-83932500D01*
X112073454Y-83994855D01*
X112054158Y-84011575D01*
X111868597Y-84141505D01*
X111701505Y-84308597D01*
X111565965Y-84502169D01*
X111565964Y-84502171D01*
X111466098Y-84716335D01*
X111466094Y-84716344D01*
X111404938Y-84944586D01*
X111404936Y-84944596D01*
X111384341Y-85179999D01*
X111384341Y-85180000D01*
X111404936Y-85415403D01*
X111404938Y-85415413D01*
X111466094Y-85643655D01*
X111466096Y-85643659D01*
X111466097Y-85643663D01*
X111565965Y-85857830D01*
X111565967Y-85857834D01*
X111701501Y-86051395D01*
X111701506Y-86051402D01*
X111868597Y-86218493D01*
X111868603Y-86218498D01*
X112054158Y-86348425D01*
X112097783Y-86403002D01*
X112104977Y-86472500D01*
X112073454Y-86534855D01*
X112054158Y-86551575D01*
X111868597Y-86681505D01*
X111701505Y-86848597D01*
X111565965Y-87042169D01*
X111565964Y-87042171D01*
X111466098Y-87256335D01*
X111466094Y-87256344D01*
X111404938Y-87484586D01*
X111404936Y-87484596D01*
X111384341Y-87719999D01*
X111384341Y-87720000D01*
X111404936Y-87955403D01*
X111404938Y-87955413D01*
X111466094Y-88183655D01*
X111466096Y-88183659D01*
X111466097Y-88183663D01*
X111565965Y-88397830D01*
X111565967Y-88397834D01*
X111701501Y-88591395D01*
X111701506Y-88591402D01*
X111868597Y-88758493D01*
X111868603Y-88758498D01*
X112054158Y-88888425D01*
X112097783Y-88943002D01*
X112104977Y-89012500D01*
X112073454Y-89074855D01*
X112054158Y-89091575D01*
X111868597Y-89221505D01*
X111701505Y-89388597D01*
X111565965Y-89582169D01*
X111565964Y-89582171D01*
X111466098Y-89796335D01*
X111466094Y-89796344D01*
X111404938Y-90024586D01*
X111404936Y-90024596D01*
X111384341Y-90259999D01*
X111384341Y-90260000D01*
X111404936Y-90495403D01*
X111404938Y-90495413D01*
X111466094Y-90723655D01*
X111466096Y-90723659D01*
X111466097Y-90723663D01*
X111506271Y-90809816D01*
X111565965Y-90937830D01*
X111565967Y-90937834D01*
X111701501Y-91131395D01*
X111701506Y-91131402D01*
X111868597Y-91298493D01*
X111868603Y-91298498D01*
X112054158Y-91428425D01*
X112097783Y-91483002D01*
X112104977Y-91552500D01*
X112073454Y-91614855D01*
X112054158Y-91631575D01*
X111868597Y-91761505D01*
X111701505Y-91928597D01*
X111565965Y-92122169D01*
X111565964Y-92122171D01*
X111466098Y-92336335D01*
X111466094Y-92336344D01*
X111404938Y-92564586D01*
X111404936Y-92564596D01*
X111384341Y-92799999D01*
X111384341Y-92800000D01*
X111404936Y-93035403D01*
X111404938Y-93035413D01*
X111466094Y-93263655D01*
X111466096Y-93263659D01*
X111466097Y-93263663D01*
X111565965Y-93477830D01*
X111565967Y-93477834D01*
X111701501Y-93671395D01*
X111701506Y-93671402D01*
X111868597Y-93838493D01*
X111868603Y-93838498D01*
X112054158Y-93968425D01*
X112097783Y-94023002D01*
X112104977Y-94092500D01*
X112073454Y-94154855D01*
X112054158Y-94171575D01*
X111868597Y-94301505D01*
X111701505Y-94468597D01*
X111565965Y-94662169D01*
X111565964Y-94662171D01*
X111466098Y-94876335D01*
X111466094Y-94876344D01*
X111404938Y-95104586D01*
X111404936Y-95104596D01*
X111384341Y-95339999D01*
X111384341Y-95340000D01*
X111404936Y-95575403D01*
X111404938Y-95575413D01*
X111466094Y-95803655D01*
X111466096Y-95803659D01*
X111466097Y-95803663D01*
X111565965Y-96017830D01*
X111565967Y-96017834D01*
X111674281Y-96172521D01*
X111701505Y-96211401D01*
X111868599Y-96378495D01*
X111965384Y-96446265D01*
X112062165Y-96514032D01*
X112062167Y-96514033D01*
X112062170Y-96514035D01*
X112276337Y-96613903D01*
X112504592Y-96675063D01*
X112692918Y-96691539D01*
X112739999Y-96695659D01*
X112740000Y-96695659D01*
X112740001Y-96695659D01*
X112779234Y-96692226D01*
X112975408Y-96675063D01*
X113203663Y-96613903D01*
X113417830Y-96514035D01*
X113611401Y-96378495D01*
X113778495Y-96211401D01*
X113914035Y-96017830D01*
X114013903Y-95803663D01*
X114075063Y-95575408D01*
X114095659Y-95340000D01*
X114075063Y-95104592D01*
X114013903Y-94876337D01*
X113914035Y-94662171D01*
X113778495Y-94468599D01*
X113778494Y-94468597D01*
X113611402Y-94301506D01*
X113611396Y-94301501D01*
X113425842Y-94171575D01*
X113382217Y-94116998D01*
X113375023Y-94047500D01*
X113406546Y-93985145D01*
X113425842Y-93968425D01*
X113448026Y-93952891D01*
X113611401Y-93838495D01*
X113778495Y-93671401D01*
X113914035Y-93477830D01*
X114013903Y-93263663D01*
X114075063Y-93035408D01*
X114095659Y-92800000D01*
X114075063Y-92564592D01*
X114013903Y-92336337D01*
X113914035Y-92122171D01*
X113778495Y-91928599D01*
X113778494Y-91928597D01*
X113611402Y-91761506D01*
X113611396Y-91761501D01*
X113425842Y-91631575D01*
X113382217Y-91576998D01*
X113375023Y-91507500D01*
X113406546Y-91445145D01*
X113425842Y-91428425D01*
X113515895Y-91365369D01*
X113611401Y-91298495D01*
X113778495Y-91131401D01*
X113914035Y-90937830D01*
X114013903Y-90723663D01*
X114075063Y-90495408D01*
X114095659Y-90260000D01*
X114075063Y-90024592D01*
X114013903Y-89796337D01*
X113914035Y-89582171D01*
X113898562Y-89560072D01*
X113778494Y-89388597D01*
X113611402Y-89221506D01*
X113611396Y-89221501D01*
X113425842Y-89091575D01*
X113382217Y-89036998D01*
X113375023Y-88967500D01*
X113406546Y-88905145D01*
X113425842Y-88888425D01*
X113448026Y-88872891D01*
X113611401Y-88758495D01*
X113778495Y-88591401D01*
X113914035Y-88397830D01*
X114013903Y-88183663D01*
X114075063Y-87955408D01*
X114095659Y-87720000D01*
X114075063Y-87484592D01*
X114013903Y-87256337D01*
X113914035Y-87042171D01*
X113778495Y-86848599D01*
X113778494Y-86848597D01*
X113611402Y-86681506D01*
X113611396Y-86681501D01*
X113425842Y-86551575D01*
X113382217Y-86496998D01*
X113375023Y-86427500D01*
X113406546Y-86365145D01*
X113425842Y-86348425D01*
X113448026Y-86332891D01*
X113611401Y-86218495D01*
X113778495Y-86051401D01*
X113914035Y-85857830D01*
X114013903Y-85643663D01*
X114075063Y-85415408D01*
X114095659Y-85180000D01*
X114075063Y-84944592D01*
X114013903Y-84716337D01*
X113914035Y-84502171D01*
X113778495Y-84308599D01*
X113778494Y-84308597D01*
X113611402Y-84141506D01*
X113611396Y-84141501D01*
X113425842Y-84011575D01*
X113382217Y-83956998D01*
X113375023Y-83887500D01*
X113406546Y-83825145D01*
X113425842Y-83808425D01*
X113448026Y-83792891D01*
X113611401Y-83678495D01*
X113778495Y-83511401D01*
X113914035Y-83317830D01*
X114013903Y-83103663D01*
X114075063Y-82875408D01*
X114095659Y-82640000D01*
X114075063Y-82404592D01*
X114013903Y-82176337D01*
X113914035Y-81962171D01*
X113833909Y-81847738D01*
X113778494Y-81768597D01*
X113611402Y-81601506D01*
X113611396Y-81601501D01*
X113425842Y-81471575D01*
X113382217Y-81416998D01*
X113375023Y-81347500D01*
X113406546Y-81285145D01*
X113425842Y-81268425D01*
X113488386Y-81224631D01*
X113611401Y-81138495D01*
X113778495Y-80971401D01*
X113914035Y-80777830D01*
X114013903Y-80563663D01*
X114075063Y-80335408D01*
X114095659Y-80100000D01*
X114075063Y-79864592D01*
X114013903Y-79636337D01*
X113914035Y-79422171D01*
X113879089Y-79372262D01*
X113778494Y-79228597D01*
X113611402Y-79061506D01*
X113611396Y-79061501D01*
X113425842Y-78931575D01*
X113382217Y-78876998D01*
X113375023Y-78807500D01*
X113406546Y-78745145D01*
X113425842Y-78728425D01*
X113479654Y-78690745D01*
X113611401Y-78598495D01*
X113778495Y-78431401D01*
X113914035Y-78237830D01*
X114013903Y-78023663D01*
X114075063Y-77795408D01*
X114095659Y-77560000D01*
X114075063Y-77324592D01*
X114013903Y-77096337D01*
X113914035Y-76882171D01*
X113778495Y-76688599D01*
X113656567Y-76566671D01*
X113623084Y-76505351D01*
X113628068Y-76435659D01*
X113669939Y-76379725D01*
X113700915Y-76362810D01*
X113832331Y-76313796D01*
X113947546Y-76227546D01*
X114033796Y-76112331D01*
X114084091Y-75977483D01*
X114090500Y-75917873D01*
X114090499Y-74122128D01*
X114084091Y-74062517D01*
X114033796Y-73927669D01*
X114033795Y-73927668D01*
X114033793Y-73927664D01*
X113947547Y-73812455D01*
X113947544Y-73812452D01*
X113832335Y-73726206D01*
X113832328Y-73726202D01*
X113697482Y-73675908D01*
X113697483Y-73675908D01*
X113637883Y-73669501D01*
X113637881Y-73669500D01*
X113637873Y-73669500D01*
X113637864Y-73669500D01*
X111842129Y-73669500D01*
X111842123Y-73669501D01*
X111782516Y-73675908D01*
X111647671Y-73726202D01*
X111647664Y-73726206D01*
X111532455Y-73812452D01*
X111532452Y-73812455D01*
X111446206Y-73927664D01*
X111446202Y-73927671D01*
X111395908Y-74062517D01*
X111389501Y-74122116D01*
X111389501Y-74122123D01*
X111389500Y-74122135D01*
X111389500Y-75917870D01*
X111389501Y-75917876D01*
X111395908Y-75977483D01*
X111446202Y-76112328D01*
X111446206Y-76112335D01*
X111532452Y-76227544D01*
X111532455Y-76227547D01*
X111647664Y-76313793D01*
X111647671Y-76313797D01*
X111779081Y-76362810D01*
X111835015Y-76404681D01*
X111859432Y-76470145D01*
X111844580Y-76538418D01*
X111823430Y-76566673D01*
X111701503Y-76688600D01*
X111565965Y-76882169D01*
X111565964Y-76882171D01*
X111466098Y-77096335D01*
X111466094Y-77096344D01*
X111404938Y-77324586D01*
X111404936Y-77324596D01*
X111384341Y-77559999D01*
X111384341Y-77560000D01*
X111404936Y-77795403D01*
X111404938Y-77795413D01*
X111466094Y-78023655D01*
X111466096Y-78023659D01*
X111466097Y-78023663D01*
X111522310Y-78144211D01*
X111565965Y-78237830D01*
X111565967Y-78237834D01*
X111701501Y-78431395D01*
X111701506Y-78431402D01*
X111868597Y-78598493D01*
X111868603Y-78598498D01*
X112054158Y-78728425D01*
X112097783Y-78783002D01*
X112104977Y-78852500D01*
X112073454Y-78914855D01*
X112054158Y-78931575D01*
X111868597Y-79061505D01*
X111701505Y-79228597D01*
X111565965Y-79422169D01*
X111565964Y-79422171D01*
X111466098Y-79636335D01*
X111466094Y-79636344D01*
X111404938Y-79864586D01*
X111404936Y-79864596D01*
X111384341Y-80099999D01*
X111384341Y-80100000D01*
X111404936Y-80335403D01*
X111404938Y-80335413D01*
X111466094Y-80563655D01*
X111466096Y-80563659D01*
X111466097Y-80563663D01*
X111565965Y-80777830D01*
X111565967Y-80777834D01*
X111701501Y-80971395D01*
X111701506Y-80971402D01*
X111868597Y-81138493D01*
X111868603Y-81138498D01*
X112054158Y-81268425D01*
X112097783Y-81323002D01*
X112104977Y-81392500D01*
X112073454Y-81454855D01*
X112054158Y-81471575D01*
X111868597Y-81601505D01*
X111701505Y-81768597D01*
X111565966Y-81962168D01*
X111531021Y-82037107D01*
X111484848Y-82089546D01*
X111417654Y-82108697D01*
X111350773Y-82088481D01*
X111305439Y-82035315D01*
X111301597Y-82025655D01*
X111285789Y-81980478D01*
X111202382Y-81847737D01*
X111189816Y-81827738D01*
X111062262Y-81700184D01*
X110909523Y-81604211D01*
X110739254Y-81544631D01*
X110739249Y-81544630D01*
X110560004Y-81524435D01*
X110559996Y-81524435D01*
X110380750Y-81544630D01*
X110380745Y-81544631D01*
X110210476Y-81604211D01*
X110057737Y-81700184D01*
X109930184Y-81827737D01*
X109834211Y-81980476D01*
X109774631Y-82150745D01*
X109774630Y-82150750D01*
X109754435Y-82329996D01*
X108753312Y-82329996D01*
X108735369Y-82170750D01*
X108735368Y-82170745D01*
X108706955Y-82089546D01*
X108675789Y-82000478D01*
X108579816Y-81847738D01*
X108452262Y-81720184D01*
X108357241Y-81660478D01*
X108299523Y-81624211D01*
X108129254Y-81564631D01*
X108129249Y-81564630D01*
X107950004Y-81544435D01*
X107949996Y-81544435D01*
X107770747Y-81564631D01*
X107761458Y-81567881D01*
X107691679Y-81571439D01*
X107631053Y-81536707D01*
X107615514Y-81516807D01*
X107609816Y-81507738D01*
X107482262Y-81380184D01*
X107430246Y-81347500D01*
X107329523Y-81284211D01*
X107159254Y-81224631D01*
X107159249Y-81224630D01*
X106980004Y-81204435D01*
X106979996Y-81204435D01*
X106800750Y-81224630D01*
X106800745Y-81224631D01*
X106630476Y-81284211D01*
X106477737Y-81380184D01*
X106350184Y-81507737D01*
X106254211Y-81660476D01*
X106194631Y-81830745D01*
X106194630Y-81830750D01*
X106174435Y-82009996D01*
X101236336Y-82009996D01*
X101214035Y-81962171D01*
X101133909Y-81847738D01*
X101078494Y-81768597D01*
X100911402Y-81601506D01*
X100911396Y-81601501D01*
X100725842Y-81471575D01*
X100682217Y-81416998D01*
X100675023Y-81347500D01*
X100706546Y-81285145D01*
X100725842Y-81268425D01*
X100788386Y-81224631D01*
X100911401Y-81138495D01*
X101078495Y-80971401D01*
X101214035Y-80777830D01*
X101313903Y-80563663D01*
X101375063Y-80335408D01*
X101395659Y-80100000D01*
X101375063Y-79864592D01*
X101313903Y-79636337D01*
X101214035Y-79422171D01*
X101179089Y-79372262D01*
X101078494Y-79228597D01*
X100911402Y-79061506D01*
X100911401Y-79061505D01*
X100725405Y-78931269D01*
X100681781Y-78876692D01*
X100677983Y-78839996D01*
X103214435Y-78839996D01*
X103214435Y-78840003D01*
X103234630Y-79019249D01*
X103234631Y-79019254D01*
X103294211Y-79189523D01*
X103390184Y-79342262D01*
X103517738Y-79469816D01*
X103670478Y-79565789D01*
X103840745Y-79625368D01*
X103840750Y-79625369D01*
X104019996Y-79645565D01*
X104020000Y-79645565D01*
X104020004Y-79645565D01*
X104199249Y-79625369D01*
X104199252Y-79625368D01*
X104199255Y-79625368D01*
X104369522Y-79565789D01*
X104522262Y-79469816D01*
X104649816Y-79342262D01*
X104745789Y-79189522D01*
X104805368Y-79019255D01*
X104817131Y-78914855D01*
X104822186Y-78869996D01*
X106214435Y-78869996D01*
X106214435Y-78870003D01*
X106234630Y-79049249D01*
X106234631Y-79049254D01*
X106294211Y-79219523D01*
X106299913Y-79228597D01*
X106390184Y-79372262D01*
X106517738Y-79499816D01*
X106670478Y-79595789D01*
X106755010Y-79625368D01*
X106840745Y-79655368D01*
X106840750Y-79655369D01*
X107019996Y-79675565D01*
X107020000Y-79675565D01*
X107020004Y-79675565D01*
X107199249Y-79655369D01*
X107199252Y-79655368D01*
X107199255Y-79655368D01*
X107369522Y-79595789D01*
X107522262Y-79499816D01*
X107649816Y-79372262D01*
X107745789Y-79219522D01*
X107805368Y-79049255D01*
X107808748Y-79019255D01*
X107825565Y-78870003D01*
X107825565Y-78869996D01*
X107805369Y-78690750D01*
X107805368Y-78690745D01*
X107794872Y-78660750D01*
X107745789Y-78520478D01*
X107726937Y-78490476D01*
X107649815Y-78367737D01*
X107522262Y-78240184D01*
X107369523Y-78144211D01*
X107199254Y-78084631D01*
X107199249Y-78084630D01*
X107020004Y-78064435D01*
X107019996Y-78064435D01*
X106840750Y-78084630D01*
X106840745Y-78084631D01*
X106670476Y-78144211D01*
X106517737Y-78240184D01*
X106390184Y-78367737D01*
X106294211Y-78520476D01*
X106234631Y-78690745D01*
X106234630Y-78690750D01*
X106214435Y-78869996D01*
X104822186Y-78869996D01*
X104825565Y-78840003D01*
X104825565Y-78839996D01*
X104805369Y-78660750D01*
X104805368Y-78660745D01*
X104745788Y-78490476D01*
X104668666Y-78367738D01*
X104649816Y-78337738D01*
X104522262Y-78210184D01*
X104417267Y-78144211D01*
X104369523Y-78114211D01*
X104199254Y-78054631D01*
X104199249Y-78054630D01*
X104020004Y-78034435D01*
X104019996Y-78034435D01*
X103840750Y-78054630D01*
X103840745Y-78054631D01*
X103670476Y-78114211D01*
X103517737Y-78210184D01*
X103390184Y-78337737D01*
X103294211Y-78490476D01*
X103234631Y-78660745D01*
X103234630Y-78660750D01*
X103214435Y-78839996D01*
X100677983Y-78839996D01*
X100674588Y-78807193D01*
X100706110Y-78744839D01*
X100725405Y-78728119D01*
X100911082Y-78598105D01*
X101078105Y-78431082D01*
X101213600Y-78237578D01*
X101313429Y-78023492D01*
X101313432Y-78023486D01*
X101370636Y-77810000D01*
X100473012Y-77810000D01*
X100505925Y-77752993D01*
X100540000Y-77625826D01*
X100540000Y-77494174D01*
X100505925Y-77367007D01*
X100473012Y-77310000D01*
X101370636Y-77310000D01*
X101370635Y-77309999D01*
X101313432Y-77096513D01*
X101313429Y-77096507D01*
X101213600Y-76882422D01*
X101213599Y-76882420D01*
X101078113Y-76688926D01*
X101078108Y-76688920D01*
X100956053Y-76566865D01*
X100922568Y-76505542D01*
X100927552Y-76435850D01*
X100969424Y-76379917D01*
X101000400Y-76363002D01*
X101132331Y-76313796D01*
X101247546Y-76227546D01*
X101333796Y-76112331D01*
X101384091Y-75977483D01*
X101390500Y-75917873D01*
X101390499Y-74122128D01*
X101384091Y-74062517D01*
X101333796Y-73927669D01*
X101333795Y-73927668D01*
X101333793Y-73927664D01*
X101247547Y-73812455D01*
X101247544Y-73812452D01*
X101132335Y-73726206D01*
X101132328Y-73726202D01*
X100997482Y-73675908D01*
X100997483Y-73675908D01*
X100937883Y-73669501D01*
X100937881Y-73669500D01*
X100937873Y-73669500D01*
X100937864Y-73669500D01*
X99142129Y-73669500D01*
X99142123Y-73669501D01*
X99082516Y-73675908D01*
X98947671Y-73726202D01*
X98947664Y-73726206D01*
X98832455Y-73812452D01*
X98832452Y-73812455D01*
X98746206Y-73927664D01*
X98746202Y-73927671D01*
X98695908Y-74062517D01*
X98689501Y-74122116D01*
X98689501Y-74122123D01*
X98689500Y-74122135D01*
X98689500Y-75917870D01*
X98689501Y-75917876D01*
X98695908Y-75977483D01*
X98746202Y-76112328D01*
X98746206Y-76112335D01*
X98832452Y-76227544D01*
X98832455Y-76227547D01*
X98947664Y-76313793D01*
X98947671Y-76313797D01*
X98947674Y-76313798D01*
X99079598Y-76363002D01*
X99135531Y-76404873D01*
X99159949Y-76470337D01*
X99145098Y-76538610D01*
X99123947Y-76566865D01*
X99001886Y-76688926D01*
X98866400Y-76882420D01*
X98866399Y-76882422D01*
X98766570Y-77096507D01*
X98766567Y-77096513D01*
X98709364Y-77309999D01*
X98709364Y-77310000D01*
X99606988Y-77310000D01*
X99574075Y-77367007D01*
X99540000Y-77494174D01*
X99540000Y-77625826D01*
X99574075Y-77752993D01*
X99606988Y-77810000D01*
X98709364Y-77810000D01*
X98766567Y-78023486D01*
X98766570Y-78023492D01*
X98866399Y-78237578D01*
X99001894Y-78431082D01*
X99168917Y-78598105D01*
X99354595Y-78728119D01*
X99398219Y-78782696D01*
X99405412Y-78852195D01*
X99373890Y-78914549D01*
X99354595Y-78931269D01*
X99168594Y-79061508D01*
X99001505Y-79228597D01*
X98865965Y-79422169D01*
X98865964Y-79422171D01*
X98766098Y-79636335D01*
X98766094Y-79636344D01*
X98704938Y-79864586D01*
X98704936Y-79864596D01*
X98684341Y-80099999D01*
X98050300Y-80099999D01*
X98050300Y-71949999D01*
X99894341Y-71949999D01*
X99894341Y-71950000D01*
X99914936Y-72185403D01*
X99914938Y-72185413D01*
X99976094Y-72413655D01*
X99976096Y-72413659D01*
X99976097Y-72413663D01*
X100055801Y-72584588D01*
X100075965Y-72627830D01*
X100075967Y-72627834D01*
X100184281Y-72782521D01*
X100211505Y-72821401D01*
X100378599Y-72988495D01*
X100475384Y-73056265D01*
X100572165Y-73124032D01*
X100572167Y-73124033D01*
X100572170Y-73124035D01*
X100786337Y-73223903D01*
X101014592Y-73285063D01*
X101191034Y-73300500D01*
X101249999Y-73305659D01*
X101250000Y-73305659D01*
X101250001Y-73305659D01*
X101308966Y-73300500D01*
X101485408Y-73285063D01*
X101713663Y-73223903D01*
X101927830Y-73124035D01*
X102121401Y-72988495D01*
X102288495Y-72821401D01*
X102418425Y-72635842D01*
X102473002Y-72592217D01*
X102542500Y-72585023D01*
X102604855Y-72616546D01*
X102621575Y-72635842D01*
X102751500Y-72821395D01*
X102751505Y-72821401D01*
X102918599Y-72988495D01*
X103015384Y-73056265D01*
X103112165Y-73124032D01*
X103112167Y-73124033D01*
X103112170Y-73124035D01*
X103326337Y-73223903D01*
X103554592Y-73285063D01*
X103731034Y-73300500D01*
X103789999Y-73305659D01*
X103790000Y-73305659D01*
X103790001Y-73305659D01*
X103848966Y-73300500D01*
X104025408Y-73285063D01*
X104253663Y-73223903D01*
X104467830Y-73124035D01*
X104661401Y-72988495D01*
X104828495Y-72821401D01*
X104958730Y-72635405D01*
X105013307Y-72591781D01*
X105082805Y-72584587D01*
X105145160Y-72616110D01*
X105161879Y-72635405D01*
X105291890Y-72821078D01*
X105458917Y-72988105D01*
X105652421Y-73123600D01*
X105866507Y-73223429D01*
X105866516Y-73223433D01*
X106080000Y-73280634D01*
X106080000Y-72383012D01*
X106137007Y-72415925D01*
X106264174Y-72450000D01*
X106395826Y-72450000D01*
X106522993Y-72415925D01*
X106580000Y-72383012D01*
X106580000Y-73280633D01*
X106793483Y-73223433D01*
X106793492Y-73223429D01*
X107007578Y-73123600D01*
X107201082Y-72988105D01*
X107368105Y-72821082D01*
X107498119Y-72635405D01*
X107552696Y-72591781D01*
X107622195Y-72584588D01*
X107684549Y-72616110D01*
X107701269Y-72635405D01*
X107831505Y-72821401D01*
X107998599Y-72988495D01*
X108095384Y-73056265D01*
X108192165Y-73124032D01*
X108192167Y-73124033D01*
X108192170Y-73124035D01*
X108406337Y-73223903D01*
X108634592Y-73285063D01*
X108811034Y-73300500D01*
X108869999Y-73305659D01*
X108870000Y-73305659D01*
X108870001Y-73305659D01*
X108928966Y-73300500D01*
X109105408Y-73285063D01*
X109333663Y-73223903D01*
X109547830Y-73124035D01*
X109741401Y-72988495D01*
X109863329Y-72866566D01*
X109924648Y-72833084D01*
X109994340Y-72838068D01*
X110050274Y-72879939D01*
X110067189Y-72910917D01*
X110116202Y-73042328D01*
X110116206Y-73042335D01*
X110202452Y-73157544D01*
X110202455Y-73157547D01*
X110317664Y-73243793D01*
X110317671Y-73243797D01*
X110452517Y-73294091D01*
X110452516Y-73294091D01*
X110459444Y-73294835D01*
X110512127Y-73300500D01*
X112307872Y-73300499D01*
X112367483Y-73294091D01*
X112502331Y-73243796D01*
X112617546Y-73157546D01*
X112703796Y-73042331D01*
X112754091Y-72907483D01*
X112760500Y-72847873D01*
X112760499Y-71052128D01*
X112754091Y-70992517D01*
X112752810Y-70989083D01*
X112703797Y-70857671D01*
X112703793Y-70857664D01*
X112617547Y-70742455D01*
X112617544Y-70742452D01*
X112502335Y-70656206D01*
X112502328Y-70656202D01*
X112367482Y-70605908D01*
X112367483Y-70605908D01*
X112307883Y-70599501D01*
X112307881Y-70599500D01*
X112307873Y-70599500D01*
X112307864Y-70599500D01*
X110512129Y-70599500D01*
X110512123Y-70599501D01*
X110452516Y-70605908D01*
X110317671Y-70656202D01*
X110317664Y-70656206D01*
X110202455Y-70742452D01*
X110202452Y-70742455D01*
X110116206Y-70857664D01*
X110116203Y-70857669D01*
X110067189Y-70989083D01*
X110025317Y-71045016D01*
X109959853Y-71069433D01*
X109891580Y-71054581D01*
X109863326Y-71033430D01*
X109741402Y-70911506D01*
X109741395Y-70911501D01*
X109547834Y-70775967D01*
X109547830Y-70775965D01*
X109547828Y-70775964D01*
X109333663Y-70676097D01*
X109333659Y-70676096D01*
X109333655Y-70676094D01*
X109105413Y-70614938D01*
X109105403Y-70614936D01*
X108870001Y-70594341D01*
X108869999Y-70594341D01*
X108634596Y-70614936D01*
X108634586Y-70614938D01*
X108406344Y-70676094D01*
X108406335Y-70676098D01*
X108192171Y-70775964D01*
X108192169Y-70775965D01*
X107998597Y-70911505D01*
X107831508Y-71078594D01*
X107701269Y-71264595D01*
X107646692Y-71308219D01*
X107577193Y-71315412D01*
X107514839Y-71283890D01*
X107498119Y-71264594D01*
X107368113Y-71078926D01*
X107368108Y-71078920D01*
X107201082Y-70911894D01*
X107007578Y-70776399D01*
X106793492Y-70676570D01*
X106793486Y-70676567D01*
X106580000Y-70619364D01*
X106580000Y-71516988D01*
X106522993Y-71484075D01*
X106395826Y-71450000D01*
X106264174Y-71450000D01*
X106137007Y-71484075D01*
X106080000Y-71516988D01*
X106080000Y-70619364D01*
X106079999Y-70619364D01*
X105866513Y-70676567D01*
X105866507Y-70676570D01*
X105652422Y-70776399D01*
X105652420Y-70776400D01*
X105458926Y-70911886D01*
X105458920Y-70911891D01*
X105291891Y-71078920D01*
X105291890Y-71078922D01*
X105161880Y-71264595D01*
X105107303Y-71308219D01*
X105037804Y-71315412D01*
X104975450Y-71283890D01*
X104958730Y-71264594D01*
X104828494Y-71078597D01*
X104661402Y-70911506D01*
X104661395Y-70911501D01*
X104467834Y-70775967D01*
X104467830Y-70775965D01*
X104467828Y-70775964D01*
X104253663Y-70676097D01*
X104253659Y-70676096D01*
X104253655Y-70676094D01*
X104025413Y-70614938D01*
X104025403Y-70614936D01*
X103790001Y-70594341D01*
X103789999Y-70594341D01*
X103554596Y-70614936D01*
X103554586Y-70614938D01*
X103326344Y-70676094D01*
X103326335Y-70676098D01*
X103112171Y-70775964D01*
X103112169Y-70775965D01*
X102918597Y-70911505D01*
X102751505Y-71078597D01*
X102621575Y-71264158D01*
X102566998Y-71307783D01*
X102497500Y-71314977D01*
X102435145Y-71283454D01*
X102418425Y-71264158D01*
X102288494Y-71078597D01*
X102121402Y-70911506D01*
X102121395Y-70911501D01*
X101927834Y-70775967D01*
X101927830Y-70775965D01*
X101927828Y-70775964D01*
X101713663Y-70676097D01*
X101713659Y-70676096D01*
X101713655Y-70676094D01*
X101485413Y-70614938D01*
X101485403Y-70614936D01*
X101250001Y-70594341D01*
X101249999Y-70594341D01*
X101014596Y-70614936D01*
X101014586Y-70614938D01*
X100786344Y-70676094D01*
X100786335Y-70676098D01*
X100572171Y-70775964D01*
X100572169Y-70775965D01*
X100378597Y-70911505D01*
X100211505Y-71078597D01*
X100075965Y-71272169D01*
X100075964Y-71272171D01*
X99976098Y-71486335D01*
X99976094Y-71486344D01*
X99914938Y-71714586D01*
X99914936Y-71714596D01*
X99894341Y-71949999D01*
X98050300Y-71949999D01*
X98050300Y-71701666D01*
X98050565Y-71693556D01*
X98059024Y-71564494D01*
X98065164Y-71470807D01*
X98067279Y-71454753D01*
X98110030Y-71239826D01*
X98114228Y-71224161D01*
X98163640Y-71078599D01*
X98184668Y-71016649D01*
X98190867Y-71001683D01*
X98287795Y-70805133D01*
X98295898Y-70791098D01*
X98417653Y-70608879D01*
X98427510Y-70596033D01*
X98572007Y-70431265D01*
X98583465Y-70419807D01*
X98748233Y-70275310D01*
X98761079Y-70265453D01*
X98943298Y-70143698D01*
X98957333Y-70135595D01*
X99153883Y-70038667D01*
X99168849Y-70032468D01*
X99375745Y-69962237D01*
X99376361Y-69962028D01*
X99392028Y-69957830D01*
X99606953Y-69915079D01*
X99623009Y-69912964D01*
X99827858Y-69899538D01*
X99845758Y-69898365D01*
X99853867Y-69898100D01*
X99889682Y-69898100D01*
X112809918Y-69898100D01*
X112845733Y-69898100D01*
X112853843Y-69898365D01*
G37*
%TD.AperFunction*%
%TD*%
M02*
