%TF.GenerationSoftware,KiCad,Pcbnew,8.0.6*%
%TF.CreationDate,2024-11-24T13:18:03-08:00*%
%TF.ProjectId,pic32_breakout,70696333-325f-4627-9265-616b6f75742e,rev?*%
%TF.SameCoordinates,Original*%
%TF.FileFunction,Soldermask,Top*%
%TF.FilePolarity,Negative*%
%FSLAX46Y46*%
G04 Gerber Fmt 4.6, Leading zero omitted, Abs format (unit mm)*
G04 Created by KiCad (PCBNEW 8.0.6) date 2024-11-24 13:18:03*
%MOMM*%
%LPD*%
G01*
G04 APERTURE LIST*
G04 Aperture macros list*
%AMRoundRect*
0 Rectangle with rounded corners*
0 $1 Rounding radius*
0 $2 $3 $4 $5 $6 $7 $8 $9 X,Y pos of 4 corners*
0 Add a 4 corners polygon primitive as box body*
4,1,4,$2,$3,$4,$5,$6,$7,$8,$9,$2,$3,0*
0 Add four circle primitives for the rounded corners*
1,1,$1+$1,$2,$3*
1,1,$1+$1,$4,$5*
1,1,$1+$1,$6,$7*
1,1,$1+$1,$8,$9*
0 Add four rect primitives between the rounded corners*
20,1,$1+$1,$2,$3,$4,$5,0*
20,1,$1+$1,$4,$5,$6,$7,0*
20,1,$1+$1,$6,$7,$8,$9,0*
20,1,$1+$1,$8,$9,$2,$3,0*%
%AMRotRect*
0 Rectangle, with rotation*
0 The origin of the aperture is its center*
0 $1 length*
0 $2 width*
0 $3 Rotation angle, in degrees counterclockwise*
0 Add horizontal line*
21,1,$1,$2,0,0,$3*%
G04 Aperture macros list end*
%ADD10O,1.700000X1.700000*%
%ADD11R,1.700000X1.700000*%
%ADD12RoundRect,0.135000X0.185000X-0.135000X0.185000X0.135000X-0.185000X0.135000X-0.185000X-0.135000X0*%
%ADD13RoundRect,0.147500X0.172500X-0.147500X0.172500X0.147500X-0.172500X0.147500X-0.172500X-0.147500X0*%
%ADD14RoundRect,0.135000X-0.185000X0.135000X-0.185000X-0.135000X0.185000X-0.135000X0.185000X0.135000X0*%
%ADD15RoundRect,0.140000X-0.170000X0.140000X-0.170000X-0.140000X0.170000X-0.140000X0.170000X0.140000X0*%
%ADD16RoundRect,0.140000X0.170000X-0.140000X0.170000X0.140000X-0.170000X0.140000X-0.170000X-0.140000X0*%
%ADD17R,0.889000X1.397000*%
%ADD18RotRect,4.191000X4.191000X315.000000*%
%ADD19RotRect,0.304800X1.016000X315.000000*%
%ADD20RotRect,0.304800X1.016000X45.000000*%
G04 APERTURE END LIST*
D10*
%TO.C,J1*%
X111180000Y-100400000D03*
X108640000Y-100400000D03*
D11*
X106100000Y-100400000D03*
%TD*%
D10*
%TO.C,J2*%
X111620000Y-71800000D03*
X109080000Y-71800000D03*
X106540000Y-71800000D03*
X104000000Y-71800000D03*
D11*
X101460000Y-71800000D03*
%TD*%
D10*
%TO.C,J5*%
X112700000Y-92780000D03*
X112700000Y-90240000D03*
X112700000Y-87700000D03*
X112700000Y-85160000D03*
X112700000Y-82620000D03*
X112700000Y-80080000D03*
X112700000Y-77540000D03*
D11*
X112700000Y-75000000D03*
%TD*%
%TO.C,J3*%
X100000000Y-75000000D03*
D10*
X100000000Y-77540000D03*
X100000000Y-80080000D03*
X100000000Y-82620000D03*
X100000000Y-85160000D03*
X100000000Y-87700000D03*
X100000000Y-90240000D03*
X100000000Y-92780000D03*
X100000000Y-95320000D03*
X100000000Y-97860000D03*
X100000000Y-100400000D03*
%TD*%
D12*
%TO.C,R3*%
X108610400Y-95148400D03*
X108610400Y-94128400D03*
%TD*%
D13*
%TO.C,D1*%
X107110400Y-95123400D03*
X107110400Y-94153400D03*
%TD*%
D14*
%TO.C,R2*%
X105077000Y-81560000D03*
X105077000Y-82580000D03*
%TD*%
D12*
%TO.C,R1*%
X103577000Y-82580000D03*
X103577000Y-81560000D03*
%TD*%
D15*
%TO.C,C3*%
X105610400Y-94158400D03*
X105610400Y-95118400D03*
%TD*%
D16*
%TO.C,C4*%
X106577000Y-81590000D03*
X106577000Y-82550000D03*
%TD*%
D15*
%TO.C,C2*%
X108077000Y-81590000D03*
X108077000Y-82550000D03*
%TD*%
D16*
%TO.C,C1*%
X104110400Y-94158400D03*
X104110400Y-95118400D03*
%TD*%
D17*
%TO.C,SW1*%
X108991400Y-77470000D03*
X102491398Y-77470000D03*
%TD*%
D18*
%TO.C,U1*%
X106310000Y-88150000D03*
D19*
X106906799Y-84795486D03*
X107366418Y-85255105D03*
X107826038Y-85714725D03*
X108285656Y-86174344D03*
X108745276Y-86633964D03*
X109204895Y-87093582D03*
X109664515Y-87553203D03*
D20*
X109664514Y-88746799D03*
X109204895Y-89206418D03*
X108745275Y-89666038D03*
X108285656Y-90125656D03*
X107826036Y-90585276D03*
X107366418Y-91044895D03*
X106906797Y-91504515D03*
D19*
X105713201Y-91504514D03*
X105253582Y-91044895D03*
X104793962Y-90585275D03*
X104334344Y-90125656D03*
X103874724Y-89666036D03*
X103415105Y-89206418D03*
X102955485Y-88746797D03*
D20*
X102955486Y-87553201D03*
X103415105Y-87093582D03*
X103874725Y-86633962D03*
X104334344Y-86174344D03*
X104793962Y-85714725D03*
X105253582Y-85255105D03*
X105713203Y-84795485D03*
%TD*%
M02*
