%TF.GenerationSoftware,KiCad,Pcbnew,8.0.6*%
%TF.CreationDate,2024-11-24T13:18:03-08:00*%
%TF.ProjectId,pic32_breakout,70696333-325f-4627-9265-616b6f75742e,rev?*%
%TF.SameCoordinates,Original*%
%TF.FileFunction,Copper,L4,Bot*%
%TF.FilePolarity,Positive*%
%FSLAX46Y46*%
G04 Gerber Fmt 4.6, Leading zero omitted, Abs format (unit mm)*
G04 Created by KiCad (PCBNEW 8.0.6) date 2024-11-24 13:18:03*
%MOMM*%
%LPD*%
G01*
G04 APERTURE LIST*
%TA.AperFunction,ComponentPad*%
%ADD10O,1.700000X1.700000*%
%TD*%
%TA.AperFunction,ComponentPad*%
%ADD11R,1.700000X1.700000*%
%TD*%
%TA.AperFunction,ViaPad*%
%ADD12C,0.600000*%
%TD*%
%TA.AperFunction,Conductor*%
%ADD13C,0.200000*%
%TD*%
G04 APERTURE END LIST*
D10*
%TO.P,J1,3,Pin_3*%
%TO.N,GND*%
X111180000Y-100400000D03*
%TO.P,J1,2,Pin_2*%
%TO.N,/RXD*%
X108640000Y-100400000D03*
D11*
%TO.P,J1,1,Pin_1*%
%TO.N,/TXD*%
X106100000Y-100400000D03*
%TD*%
D10*
%TO.P,J2,5,Pin_5*%
%TO.N,/PGClk*%
X111620000Y-71800000D03*
%TO.P,J2,4,Pin_4*%
%TO.N,/PGData*%
X109080000Y-71800000D03*
%TO.P,J2,3,Pin_3*%
%TO.N,GND*%
X106540000Y-71800000D03*
%TO.P,J2,2,Pin_2*%
%TO.N,+3.3V*%
X104000000Y-71800000D03*
D11*
%TO.P,J2,1,Pin_1*%
%TO.N,/MCLR*%
X101460000Y-71800000D03*
%TD*%
D10*
%TO.P,J5,8,Pin_8*%
%TO.N,/17{slash}RB8*%
X112700000Y-92780000D03*
%TO.P,J5,7,Pin_7*%
%TO.N,/18{slash}RB9*%
X112700000Y-90240000D03*
%TO.P,J5,6,Pin_6*%
%TO.N,/21{slash}RB10*%
X112700000Y-87700000D03*
%TO.P,J5,5,Pin_5*%
%TO.N,/22{slash}RB11*%
X112700000Y-85160000D03*
%TO.P,J5,4,Pin_4*%
%TO.N,/23{slash}AN12{slash}RB12*%
X112700000Y-82620000D03*
%TO.P,J5,3,Pin_3*%
%TO.N,/24{slash}AN11{slash}RB13*%
X112700000Y-80080000D03*
%TO.P,J5,2,Pin_2*%
%TO.N,/25{slash}AN10{slash}RB14*%
X112700000Y-77540000D03*
D11*
%TO.P,J5,1,Pin_1*%
%TO.N,/26{slash}AN9{slash}RB15*%
X112700000Y-75000000D03*
%TD*%
%TO.P,J3,1,Pin_1*%
%TO.N,+3.3V*%
X100000000Y-75000000D03*
D10*
%TO.P,J3,2,Pin_2*%
%TO.N,GND*%
X100000000Y-77540000D03*
%TO.P,J3,3,Pin_3*%
%TO.N,/2{slash}AN0{slash}RA0*%
X100000000Y-80080000D03*
%TO.P,J3,4,Pin_4*%
%TO.N,/3{slash}AN1{slash}RA1*%
X100000000Y-82620000D03*
%TO.P,J3,5,Pin_5*%
%TO.N,/6{slash}AN4{slash}RB2*%
X100000000Y-85160000D03*
%TO.P,J3,6,Pin_6*%
%TO.N,/7{slash}AN5{slash}RB3*%
X100000000Y-87700000D03*
%TO.P,J3,7,Pin_7*%
%TO.N,/9{slash}RA2*%
X100000000Y-90240000D03*
%TO.P,J3,8,Pin_8*%
%TO.N,/10{slash}RA3*%
X100000000Y-92780000D03*
%TO.P,J3,9,Pin_9*%
%TO.N,/11{slash}RB4*%
X100000000Y-95320000D03*
%TO.P,J3,10,Pin_10*%
%TO.N,/12{slash}RA4*%
X100000000Y-97860000D03*
%TO.P,J3,11,Pin_11*%
%TO.N,/14{slash}RB5*%
X100000000Y-100400000D03*
%TD*%
D12*
%TO.N,+3.3V*%
X103343000Y-94137565D03*
%TO.N,Net-(D1-A)*%
X108610400Y-96062800D03*
X107188000Y-93116400D03*
%TO.N,Net-(U1-Vcap)*%
X105613200Y-93319600D03*
%TO.N,GND*%
X107137200Y-96012000D03*
%TO.N,+3.3V*%
X108610400Y-93319600D03*
%TO.N,GND*%
X105613200Y-96012000D03*
X104089200Y-96012000D03*
X101854000Y-89611200D03*
X107848400Y-77470000D03*
%TO.N,+3.3V*%
X105199265Y-83395735D03*
%TO.N,GND*%
X106680000Y-83312000D03*
X108077000Y-80772000D03*
X106299000Y-88138000D03*
%TO.N,/PGClk*%
X102997000Y-85725000D03*
%TO.N,/PGData*%
X102650854Y-84420147D03*
%TO.N,GND*%
X110582000Y-90511222D03*
%TO.N,Net-(U1-Vcap)*%
X109982000Y-89916000D03*
%TO.N,/14{slash}RB5*%
X105600500Y-92519500D03*
%TO.N,GND*%
X108204000Y-84455000D03*
%TD*%
D13*
%TO.N,Net-(D1-A)*%
X107899200Y-93827600D02*
X107899200Y-95351600D01*
X107899200Y-95351600D02*
X108610400Y-96062800D01*
X107188000Y-93116400D02*
X107899200Y-93827600D01*
%TO.N,Net-(U1-Vcap)*%
X107950000Y-91948000D02*
X109982000Y-89916000D01*
X105664000Y-93319600D02*
X107035600Y-91948000D01*
X107035600Y-91948000D02*
X107950000Y-91948000D01*
X105613200Y-93319600D02*
X105664000Y-93319600D01*
%TO.N,/14{slash}RB5*%
X101403000Y-100400000D02*
X100000000Y-100400000D01*
X102743000Y-99060000D02*
X101403000Y-100400000D01*
X102743000Y-93726000D02*
X102743000Y-99060000D01*
X103949500Y-92519500D02*
X102743000Y-93726000D01*
X105600500Y-92519500D02*
X103949500Y-92519500D01*
%TO.N,/PGClk*%
X103667000Y-79753000D02*
X111620000Y-71800000D01*
X102997000Y-85725000D02*
X103667000Y-85055000D01*
X103667000Y-85055000D02*
X103667000Y-79753000D01*
%TO.N,/PGData*%
X102616000Y-78264000D02*
X109080000Y-71800000D01*
X102616000Y-84385293D02*
X102616000Y-78264000D01*
X102650854Y-84420147D02*
X102616000Y-84385293D01*
%TD*%
M02*
