%TF.GenerationSoftware,KiCad,Pcbnew,8.0.5*%
%TF.CreationDate,2025-01-09T20:32:44-08:00*%
%TF.ProjectId,PIC32Flex,50494333-3246-46c6-9578-2e6b69636164,rev?*%
%TF.SameCoordinates,Original*%
%TF.FileFunction,Paste,Top*%
%TF.FilePolarity,Positive*%
%FSLAX46Y46*%
G04 Gerber Fmt 4.6, Leading zero omitted, Abs format (unit mm)*
G04 Created by KiCad (PCBNEW 8.0.5) date 2025-01-09 20:32:44*
%MOMM*%
%LPD*%
G01*
G04 APERTURE LIST*
G04 Aperture macros list*
%AMRoundRect*
0 Rectangle with rounded corners*
0 $1 Rounding radius*
0 $2 $3 $4 $5 $6 $7 $8 $9 X,Y pos of 4 corners*
0 Add a 4 corners polygon primitive as box body*
4,1,4,$2,$3,$4,$5,$6,$7,$8,$9,$2,$3,0*
0 Add four circle primitives for the rounded corners*
1,1,$1+$1,$2,$3*
1,1,$1+$1,$4,$5*
1,1,$1+$1,$6,$7*
1,1,$1+$1,$8,$9*
0 Add four rect primitives between the rounded corners*
20,1,$1+$1,$2,$3,$4,$5,0*
20,1,$1+$1,$4,$5,$6,$7,0*
20,1,$1+$1,$6,$7,$8,$9,0*
20,1,$1+$1,$8,$9,$2,$3,0*%
%AMRotRect*
0 Rectangle, with rotation*
0 The origin of the aperture is its center*
0 $1 length*
0 $2 width*
0 $3 Rotation angle, in degrees counterclockwise*
0 Add horizontal line*
21,1,$1,$2,0,0,$3*%
G04 Aperture macros list end*
%ADD10C,0.000000*%
%ADD11RoundRect,0.135000X0.185000X-0.135000X0.185000X0.135000X-0.185000X0.135000X-0.185000X-0.135000X0*%
%ADD12R,0.889000X1.397000*%
%ADD13RoundRect,0.140000X0.170000X-0.140000X0.170000X0.140000X-0.170000X0.140000X-0.170000X-0.140000X0*%
%ADD14RoundRect,0.147500X0.172500X-0.147500X0.172500X0.147500X-0.172500X0.147500X-0.172500X-0.147500X0*%
%ADD15RoundRect,0.140000X-0.170000X0.140000X-0.170000X-0.140000X0.170000X-0.140000X0.170000X0.140000X0*%
%ADD16RotRect,0.304800X1.016000X45.000000*%
%ADD17RotRect,0.304800X1.016000X315.000000*%
%ADD18RotRect,4.191000X4.191000X315.000000*%
G04 APERTURE END LIST*
D10*
%TO.C,U1*%
G36*
X105243953Y-86545485D02*
G01*
X104397547Y-87391892D01*
X103551140Y-86545485D01*
X104397547Y-85699078D01*
X105243953Y-86545485D01*
G37*
G36*
X106231782Y-85557657D02*
G01*
X105385375Y-86404064D01*
X104538968Y-85557657D01*
X105385375Y-84711250D01*
X106231782Y-85557657D01*
G37*
G36*
X106231782Y-87533313D02*
G01*
X105385375Y-88379720D01*
X104538968Y-87533313D01*
X105385375Y-86686906D01*
X106231782Y-87533313D01*
G37*
G36*
X107219610Y-84569829D02*
G01*
X106373203Y-85416235D01*
X105526796Y-84569829D01*
X106373203Y-83723422D01*
X107219610Y-84569829D01*
G37*
G36*
X107219610Y-86545485D02*
G01*
X106373203Y-87391892D01*
X105526796Y-86545485D01*
X106373203Y-85699078D01*
X107219610Y-86545485D01*
G37*
G36*
X107219610Y-88521141D02*
G01*
X106373203Y-89367548D01*
X105526796Y-88521141D01*
X106373203Y-87674735D01*
X107219610Y-88521141D01*
G37*
G36*
X108207438Y-85557657D02*
G01*
X107361031Y-86404064D01*
X106514624Y-85557657D01*
X107361031Y-84711250D01*
X108207438Y-85557657D01*
G37*
G36*
X108207438Y-87533313D02*
G01*
X107361031Y-88379720D01*
X106514624Y-87533313D01*
X107361031Y-86686906D01*
X108207438Y-87533313D01*
G37*
G36*
X109195266Y-86545485D02*
G01*
X108348859Y-87391892D01*
X107502453Y-86545485D01*
X108348859Y-85699078D01*
X109195266Y-86545485D01*
G37*
%TD*%
D11*
%TO.C,R3*%
X103400000Y-80500000D03*
X103400000Y-79480000D03*
%TD*%
D12*
%TO.C,SW1*%
X109660001Y-76770000D03*
X103159999Y-76770000D03*
%TD*%
D11*
%TO.C,R1*%
X109400000Y-80500000D03*
X109400000Y-79480000D03*
%TD*%
D13*
%TO.C,C2*%
X109960000Y-83890000D03*
X109960000Y-82930000D03*
%TD*%
D14*
%TO.C,D1*%
X104900000Y-80475000D03*
X104900000Y-79505000D03*
%TD*%
D15*
%TO.C,C3*%
X109080000Y-90140000D03*
X109080000Y-91100000D03*
%TD*%
D16*
%TO.C,U1*%
X105776406Y-83190970D03*
X105316785Y-83650590D03*
X104857165Y-84110210D03*
X104397547Y-84569829D03*
X103937928Y-85029447D03*
X103478308Y-85489067D03*
X103018689Y-85948686D03*
D17*
X103018688Y-87142282D03*
X103478308Y-87601903D03*
X103937927Y-88061521D03*
X104397547Y-88521141D03*
X104857165Y-88980760D03*
X105316785Y-89440380D03*
X105776404Y-89899999D03*
D16*
X106970000Y-89900000D03*
X107429621Y-89440380D03*
X107889239Y-88980761D03*
X108348859Y-88521141D03*
X108808478Y-88061523D03*
X109268098Y-87601903D03*
X109727717Y-87142284D03*
D17*
X109727718Y-85948688D03*
X109268098Y-85489067D03*
X108808479Y-85029449D03*
X108348859Y-84569829D03*
X107889241Y-84110210D03*
X107429621Y-83650590D03*
X106970002Y-83190971D03*
D18*
X106373203Y-86545485D03*
%TD*%
D11*
%TO.C,R2*%
X106400000Y-80500000D03*
X106400000Y-79480000D03*
%TD*%
D13*
%TO.C,C1*%
X102830000Y-89160000D03*
X102830000Y-90120000D03*
%TD*%
%TO.C,C4*%
X107900000Y-80470000D03*
X107900000Y-79510000D03*
%TD*%
M02*
