%TF.GenerationSoftware,KiCad,Pcbnew,8.0.5*%
%TF.CreationDate,2025-01-09T20:32:44-08:00*%
%TF.ProjectId,PIC32Flex,50494333-3246-46c6-9578-2e6b69636164,rev?*%
%TF.SameCoordinates,Original*%
%TF.FileFunction,Copper,L3,Inr*%
%TF.FilePolarity,Positive*%
%FSLAX46Y46*%
G04 Gerber Fmt 4.6, Leading zero omitted, Abs format (unit mm)*
G04 Created by KiCad (PCBNEW 8.0.5) date 2025-01-09 20:32:44*
%MOMM*%
%LPD*%
G01*
G04 APERTURE LIST*
%ADD10C,0.300000*%
%TA.AperFunction,NonConductor*%
%ADD11C,0.300000*%
%TD*%
%TA.AperFunction,ComponentPad*%
%ADD12C,1.700000*%
%TD*%
%TA.AperFunction,ComponentPad*%
%ADD13O,1.700000X1.700000*%
%TD*%
%TA.AperFunction,ViaPad*%
%ADD14C,0.600000*%
%TD*%
G04 APERTURE END LIST*
D10*
D11*
X112513066Y-98397368D02*
X112513066Y-99264034D01*
X112513066Y-99264034D02*
X113046400Y-98797368D01*
X113046400Y-98797368D02*
X113046400Y-98997368D01*
X113046400Y-98997368D02*
X113113066Y-99130701D01*
X113113066Y-99130701D02*
X113179733Y-99197368D01*
X113179733Y-99197368D02*
X113313066Y-99264034D01*
X113313066Y-99264034D02*
X113646400Y-99264034D01*
X113646400Y-99264034D02*
X113779733Y-99197368D01*
X113779733Y-99197368D02*
X113846400Y-99130701D01*
X113846400Y-99130701D02*
X113913066Y-98997368D01*
X113913066Y-98997368D02*
X113913066Y-98597368D01*
X113913066Y-98597368D02*
X113846400Y-98464034D01*
X113846400Y-98464034D02*
X113779733Y-98397368D01*
D12*
%TO.N,/TXD*%
%TO.C,J1*%
X103837600Y-100170800D03*
D13*
%TO.N,/RXD*%
X106377600Y-100170800D03*
%TO.N,GND*%
X108917600Y-100170800D03*
%TD*%
D12*
%TO.N,/AN1{slash}RA1*%
%TO.C,J3*%
X112740000Y-75020000D03*
D13*
%TO.N,/AN0{slash}RA0*%
X112740000Y-77560000D03*
%TO.N,/AN9{slash}RB15*%
X112740000Y-80100000D03*
%TO.N,/AN10{slash}RB14*%
X112740000Y-82640000D03*
%TO.N,/AN11{slash}RB13*%
X112740000Y-85180000D03*
%TO.N,/AN12{slash}RB12*%
X112740000Y-87720000D03*
%TO.N,/RB11*%
X112740000Y-90260000D03*
%TO.N,/RB10*%
X112740000Y-92800000D03*
%TO.N,/RB9*%
X112740000Y-95340000D03*
%TD*%
%TO.N,/PGClk*%
%TO.C,J2*%
X101250000Y-71950000D03*
%TO.N,/PGData*%
X103790000Y-71950000D03*
%TO.N,GND*%
X106330000Y-71950000D03*
%TO.N,+3.3V*%
X108870000Y-71950000D03*
D12*
%TO.N,/MCLR*%
X111410000Y-71950000D03*
%TD*%
%TO.N,+3.3V*%
%TO.C,J4*%
X100040000Y-75020000D03*
D13*
%TO.N,GND*%
X100040000Y-77560000D03*
%TO.N,/AN4{slash}RB2*%
X100040000Y-80100000D03*
%TO.N,/AN5{slash}RB3*%
X100040000Y-82640000D03*
%TO.N,/RA2*%
X100040000Y-85180000D03*
%TO.N,/RA3*%
X100040000Y-87720000D03*
%TO.N,/RB4*%
X100040000Y-90260000D03*
%TO.N,/RA4*%
X100040000Y-92800000D03*
%TO.N,/RB5*%
X100040000Y-95340000D03*
%TO.N,/RB8*%
X100040000Y-97880000D03*
%TD*%
D14*
%TO.N,+3.3V*%
X102637600Y-91100000D03*
X104020000Y-78840000D03*
X109970000Y-82000000D03*
X107020000Y-78870000D03*
%TO.N,GND*%
X107255735Y-81065735D03*
X104280000Y-81090000D03*
X103170000Y-75570000D03*
X106373203Y-86545485D03*
%TO.N,/TXD*%
X103837600Y-90580000D03*
%TO.N,/RXD*%
X104560000Y-90180000D03*
%TO.N,/RB5*%
X103650000Y-89270000D03*
%TO.N,/AN0{slash}RA0*%
X107950000Y-82350000D03*
%TO.N,/AN1{slash}RA1*%
X106980000Y-82010000D03*
%TD*%
%TA.AperFunction,Conductor*%
%TO.N,+3.3V*%
G36*
X112426790Y-70615364D02*
G01*
X112442848Y-70617479D01*
X112628875Y-70654482D01*
X112657771Y-70660230D01*
X112673438Y-70664428D01*
X112784119Y-70701999D01*
X112880944Y-70734867D01*
X112895921Y-70741070D01*
X113026984Y-70805703D01*
X113092460Y-70837992D01*
X113106507Y-70846102D01*
X113138789Y-70867672D01*
X113288712Y-70967848D01*
X113301573Y-70977716D01*
X113373088Y-71040433D01*
X113466328Y-71122202D01*
X113477797Y-71133671D01*
X113569808Y-71238590D01*
X113609152Y-71283454D01*
X113622280Y-71298423D01*
X113632153Y-71311290D01*
X113653724Y-71343573D01*
X113753897Y-71493492D01*
X113762007Y-71507539D01*
X113858926Y-71704071D01*
X113865133Y-71719057D01*
X113935571Y-71926561D01*
X113939769Y-71942228D01*
X113982518Y-72157140D01*
X113984636Y-72173221D01*
X113999235Y-72395956D01*
X113999500Y-72404066D01*
X113999500Y-74071294D01*
X113979815Y-74138333D01*
X113927011Y-74184088D01*
X113857853Y-74194032D01*
X113794297Y-74165007D01*
X113780515Y-74151005D01*
X113778495Y-74148598D01*
X113611402Y-73981506D01*
X113611395Y-73981501D01*
X113417834Y-73845967D01*
X113417830Y-73845965D01*
X113417828Y-73845964D01*
X113203663Y-73746097D01*
X113203659Y-73746096D01*
X113203655Y-73746094D01*
X112975413Y-73684938D01*
X112975403Y-73684936D01*
X112740001Y-73664341D01*
X112739999Y-73664341D01*
X112504596Y-73684936D01*
X112504586Y-73684938D01*
X112276344Y-73746094D01*
X112276335Y-73746098D01*
X112062171Y-73845964D01*
X112062169Y-73845965D01*
X111868597Y-73981505D01*
X111701505Y-74148597D01*
X111565965Y-74342169D01*
X111565964Y-74342171D01*
X111466098Y-74556335D01*
X111466094Y-74556344D01*
X111404938Y-74784586D01*
X111404936Y-74784596D01*
X111384341Y-75019999D01*
X111384341Y-75020000D01*
X111404936Y-75255403D01*
X111404938Y-75255413D01*
X111466094Y-75483655D01*
X111466096Y-75483659D01*
X111466097Y-75483663D01*
X111506355Y-75569996D01*
X111565965Y-75697830D01*
X111565967Y-75697834D01*
X111633476Y-75794246D01*
X111698916Y-75887704D01*
X111701501Y-75891395D01*
X111701506Y-75891402D01*
X111868597Y-76058493D01*
X111868603Y-76058498D01*
X112054158Y-76188425D01*
X112097783Y-76243002D01*
X112104977Y-76312500D01*
X112073454Y-76374855D01*
X112054158Y-76391575D01*
X111868597Y-76521505D01*
X111701505Y-76688597D01*
X111565965Y-76882169D01*
X111565964Y-76882171D01*
X111466098Y-77096335D01*
X111466094Y-77096344D01*
X111404938Y-77324586D01*
X111404936Y-77324596D01*
X111384341Y-77559999D01*
X111384341Y-77560000D01*
X111404936Y-77795403D01*
X111404938Y-77795413D01*
X111466094Y-78023655D01*
X111466096Y-78023659D01*
X111466097Y-78023663D01*
X111480500Y-78054550D01*
X111565965Y-78237830D01*
X111565967Y-78237834D01*
X111671946Y-78389187D01*
X111698916Y-78427704D01*
X111701501Y-78431395D01*
X111701506Y-78431402D01*
X111868597Y-78598493D01*
X111868603Y-78598498D01*
X112054158Y-78728425D01*
X112097783Y-78783002D01*
X112104977Y-78852500D01*
X112073454Y-78914855D01*
X112054158Y-78931575D01*
X111868597Y-79061505D01*
X111701505Y-79228597D01*
X111565965Y-79422169D01*
X111565964Y-79422171D01*
X111466098Y-79636335D01*
X111466094Y-79636344D01*
X111404938Y-79864586D01*
X111404936Y-79864596D01*
X111384341Y-80099999D01*
X111384341Y-80100000D01*
X111404936Y-80335403D01*
X111404938Y-80335413D01*
X111466094Y-80563655D01*
X111466096Y-80563659D01*
X111466097Y-80563663D01*
X111565965Y-80777830D01*
X111565967Y-80777834D01*
X111642046Y-80886485D01*
X111698916Y-80967704D01*
X111701501Y-80971395D01*
X111701506Y-80971402D01*
X111868597Y-81138493D01*
X111868603Y-81138498D01*
X112054158Y-81268425D01*
X112097783Y-81323002D01*
X112104977Y-81392500D01*
X112073454Y-81454855D01*
X112054158Y-81471575D01*
X111868597Y-81601505D01*
X111701505Y-81768597D01*
X111565965Y-81962169D01*
X111565964Y-81962171D01*
X111466098Y-82176335D01*
X111466094Y-82176344D01*
X111404938Y-82404586D01*
X111404936Y-82404596D01*
X111384341Y-82639999D01*
X111384341Y-82640000D01*
X111404936Y-82875403D01*
X111404938Y-82875413D01*
X111466094Y-83103655D01*
X111466096Y-83103659D01*
X111466097Y-83103663D01*
X111514714Y-83207922D01*
X111565965Y-83317830D01*
X111565967Y-83317834D01*
X111671946Y-83469187D01*
X111698916Y-83507704D01*
X111701501Y-83511395D01*
X111701506Y-83511402D01*
X111868597Y-83678493D01*
X111868603Y-83678498D01*
X112054158Y-83808425D01*
X112097783Y-83863002D01*
X112104977Y-83932500D01*
X112073454Y-83994855D01*
X112054158Y-84011575D01*
X111868597Y-84141505D01*
X111701505Y-84308597D01*
X111565965Y-84502169D01*
X111565964Y-84502171D01*
X111466098Y-84716335D01*
X111466094Y-84716344D01*
X111404938Y-84944586D01*
X111404936Y-84944596D01*
X111384341Y-85179999D01*
X111384341Y-85180000D01*
X111404936Y-85415403D01*
X111404938Y-85415413D01*
X111466094Y-85643655D01*
X111466096Y-85643659D01*
X111466097Y-85643663D01*
X111480500Y-85674550D01*
X111565965Y-85857830D01*
X111565967Y-85857834D01*
X111606464Y-85915669D01*
X111698916Y-86047704D01*
X111701501Y-86051395D01*
X111701506Y-86051402D01*
X111868597Y-86218493D01*
X111868603Y-86218498D01*
X112054158Y-86348425D01*
X112097783Y-86403002D01*
X112104977Y-86472500D01*
X112073454Y-86534855D01*
X112054158Y-86551575D01*
X111868597Y-86681505D01*
X111701505Y-86848597D01*
X111565965Y-87042169D01*
X111565964Y-87042171D01*
X111466098Y-87256335D01*
X111466094Y-87256344D01*
X111404938Y-87484586D01*
X111404936Y-87484596D01*
X111384341Y-87719999D01*
X111384341Y-87720000D01*
X111404936Y-87955403D01*
X111404938Y-87955413D01*
X111466094Y-88183655D01*
X111466096Y-88183659D01*
X111466097Y-88183663D01*
X111480500Y-88214550D01*
X111565965Y-88397830D01*
X111565967Y-88397834D01*
X111626744Y-88484632D01*
X111698916Y-88587704D01*
X111701501Y-88591395D01*
X111701506Y-88591402D01*
X111868597Y-88758493D01*
X111868603Y-88758498D01*
X112054158Y-88888425D01*
X112097783Y-88943002D01*
X112104977Y-89012500D01*
X112073454Y-89074855D01*
X112054158Y-89091575D01*
X111868597Y-89221505D01*
X111701505Y-89388597D01*
X111565965Y-89582169D01*
X111565964Y-89582171D01*
X111466098Y-89796335D01*
X111466094Y-89796344D01*
X111404938Y-90024586D01*
X111404936Y-90024596D01*
X111384341Y-90259999D01*
X111384341Y-90260000D01*
X111404936Y-90495403D01*
X111404938Y-90495413D01*
X111466094Y-90723655D01*
X111466096Y-90723659D01*
X111466097Y-90723663D01*
X111506271Y-90809816D01*
X111565965Y-90937830D01*
X111565967Y-90937834D01*
X111637497Y-91039988D01*
X111698916Y-91127704D01*
X111701501Y-91131395D01*
X111701506Y-91131402D01*
X111868597Y-91298493D01*
X111868603Y-91298498D01*
X112054158Y-91428425D01*
X112097783Y-91483002D01*
X112104977Y-91552500D01*
X112073454Y-91614855D01*
X112054158Y-91631575D01*
X111868597Y-91761505D01*
X111701505Y-91928597D01*
X111565965Y-92122169D01*
X111565964Y-92122171D01*
X111466098Y-92336335D01*
X111466094Y-92336344D01*
X111404938Y-92564586D01*
X111404936Y-92564596D01*
X111384341Y-92799999D01*
X111384341Y-92800000D01*
X111404936Y-93035403D01*
X111404938Y-93035413D01*
X111466094Y-93263655D01*
X111466096Y-93263659D01*
X111466097Y-93263663D01*
X111480500Y-93294550D01*
X111565965Y-93477830D01*
X111565967Y-93477834D01*
X111671946Y-93629187D01*
X111698916Y-93667704D01*
X111701501Y-93671395D01*
X111701506Y-93671402D01*
X111868597Y-93838493D01*
X111868603Y-93838498D01*
X112054158Y-93968425D01*
X112097783Y-94023002D01*
X112104977Y-94092500D01*
X112073454Y-94154855D01*
X112054158Y-94171575D01*
X111868597Y-94301505D01*
X111701505Y-94468597D01*
X111565965Y-94662169D01*
X111565964Y-94662171D01*
X111466098Y-94876335D01*
X111466094Y-94876344D01*
X111404938Y-95104586D01*
X111404936Y-95104596D01*
X111384341Y-95339999D01*
X111384341Y-95340000D01*
X111404936Y-95575403D01*
X111404938Y-95575413D01*
X111466094Y-95803655D01*
X111466096Y-95803659D01*
X111466097Y-95803663D01*
X111480500Y-95834550D01*
X111565965Y-96017830D01*
X111565967Y-96017834D01*
X111671946Y-96169187D01*
X111701505Y-96211401D01*
X111868599Y-96378495D01*
X111965384Y-96446265D01*
X112062165Y-96514032D01*
X112062167Y-96514033D01*
X112062170Y-96514035D01*
X112276337Y-96613903D01*
X112504592Y-96675063D01*
X112692918Y-96691539D01*
X112739999Y-96695659D01*
X112740000Y-96695659D01*
X112740001Y-96695659D01*
X112779234Y-96692226D01*
X112975408Y-96675063D01*
X113203663Y-96613903D01*
X113417830Y-96514035D01*
X113611401Y-96378495D01*
X113778495Y-96211401D01*
X113778501Y-96211391D01*
X113780510Y-96208999D01*
X113781666Y-96208229D01*
X113782323Y-96207573D01*
X113782454Y-96207704D01*
X113838681Y-96170296D01*
X113908542Y-96169187D01*
X113967912Y-96206024D01*
X113997942Y-96269111D01*
X113999500Y-96288704D01*
X113999500Y-97617868D01*
X113979815Y-97684907D01*
X113927011Y-97730662D01*
X113875500Y-97741868D01*
X111855924Y-97741868D01*
X111855924Y-99921259D01*
X113832896Y-99921259D01*
X113899935Y-99940944D01*
X113945690Y-99993748D01*
X113955634Y-100062906D01*
X113954513Y-100069451D01*
X113939772Y-100143558D01*
X113935575Y-100159223D01*
X113865137Y-100366733D01*
X113858929Y-100381719D01*
X113762007Y-100578259D01*
X113753897Y-100592306D01*
X113632161Y-100774498D01*
X113622287Y-100787367D01*
X113477801Y-100952123D01*
X113466332Y-100963592D01*
X113301580Y-101108077D01*
X113288712Y-101117951D01*
X113106511Y-101239695D01*
X113092464Y-101247805D01*
X112895931Y-101344725D01*
X112880946Y-101350932D01*
X112673441Y-101421371D01*
X112657773Y-101425569D01*
X112442860Y-101468318D01*
X112426779Y-101470436D01*
X112204257Y-101485021D01*
X112196147Y-101485286D01*
X109788123Y-101485286D01*
X109721084Y-101465601D01*
X109675329Y-101412797D01*
X109665385Y-101343639D01*
X109694410Y-101280083D01*
X109717000Y-101259711D01*
X109745600Y-101239685D01*
X109789001Y-101209295D01*
X109956095Y-101042201D01*
X110091635Y-100848630D01*
X110191503Y-100634463D01*
X110252663Y-100406208D01*
X110273259Y-100170800D01*
X110271573Y-100151535D01*
X110263819Y-100062906D01*
X110252663Y-99935392D01*
X110191503Y-99707137D01*
X110091635Y-99492971D01*
X110086025Y-99484958D01*
X109956094Y-99299397D01*
X109789002Y-99132306D01*
X109788995Y-99132301D01*
X109595434Y-98996767D01*
X109595430Y-98996765D01*
X109595428Y-98996764D01*
X109381263Y-98896897D01*
X109381259Y-98896896D01*
X109381255Y-98896894D01*
X109153013Y-98835738D01*
X109153003Y-98835736D01*
X108917601Y-98815141D01*
X108917599Y-98815141D01*
X108682196Y-98835736D01*
X108682186Y-98835738D01*
X108453944Y-98896894D01*
X108453935Y-98896898D01*
X108239771Y-98996764D01*
X108239769Y-98996765D01*
X108046197Y-99132305D01*
X107879105Y-99299397D01*
X107749175Y-99484958D01*
X107694598Y-99528583D01*
X107625100Y-99535777D01*
X107562745Y-99504254D01*
X107546025Y-99484958D01*
X107416094Y-99299397D01*
X107249002Y-99132306D01*
X107248995Y-99132301D01*
X107055434Y-98996767D01*
X107055430Y-98996765D01*
X107055428Y-98996764D01*
X106841263Y-98896897D01*
X106841259Y-98896896D01*
X106841255Y-98896894D01*
X106613013Y-98835738D01*
X106613003Y-98835736D01*
X106377601Y-98815141D01*
X106377599Y-98815141D01*
X106142196Y-98835736D01*
X106142186Y-98835738D01*
X105913944Y-98896894D01*
X105913935Y-98896898D01*
X105699771Y-98996764D01*
X105699769Y-98996765D01*
X105506197Y-99132305D01*
X105339105Y-99299397D01*
X105209175Y-99484958D01*
X105154598Y-99528583D01*
X105085100Y-99535777D01*
X105022745Y-99504254D01*
X105006025Y-99484958D01*
X104876094Y-99299397D01*
X104709002Y-99132306D01*
X104708995Y-99132301D01*
X104515434Y-98996767D01*
X104515430Y-98996765D01*
X104515428Y-98996764D01*
X104301263Y-98896897D01*
X104301259Y-98896896D01*
X104301255Y-98896894D01*
X104073013Y-98835738D01*
X104073003Y-98835736D01*
X103837601Y-98815141D01*
X103837599Y-98815141D01*
X103602196Y-98835736D01*
X103602186Y-98835738D01*
X103373944Y-98896894D01*
X103373935Y-98896898D01*
X103159771Y-98996764D01*
X103159769Y-98996765D01*
X102966197Y-99132305D01*
X102799105Y-99299397D01*
X102663565Y-99492969D01*
X102663564Y-99492971D01*
X102563698Y-99707135D01*
X102563694Y-99707144D01*
X102502538Y-99935386D01*
X102502536Y-99935396D01*
X102481941Y-100170799D01*
X102481941Y-100170800D01*
X102502536Y-100406203D01*
X102502538Y-100406213D01*
X102563694Y-100634455D01*
X102563696Y-100634459D01*
X102563697Y-100634463D01*
X102567600Y-100642832D01*
X102663565Y-100848630D01*
X102663567Y-100848634D01*
X102744059Y-100963587D01*
X102799101Y-101042196D01*
X102799106Y-101042202D01*
X102966197Y-101209293D01*
X102966203Y-101209298D01*
X103038200Y-101259711D01*
X103081825Y-101314288D01*
X103089019Y-101383786D01*
X103057496Y-101446141D01*
X102997266Y-101481555D01*
X102967077Y-101485286D01*
X100618278Y-101485286D01*
X100610169Y-101485021D01*
X100387433Y-101470424D01*
X100371352Y-101468306D01*
X100343705Y-101462806D01*
X100156444Y-101425558D01*
X100140778Y-101421361D01*
X99933265Y-101350922D01*
X99918278Y-101344714D01*
X99721746Y-101247795D01*
X99707700Y-101239685D01*
X99525505Y-101117947D01*
X99512636Y-101108073D01*
X99347881Y-100963587D01*
X99336412Y-100952118D01*
X99191926Y-100787363D01*
X99182052Y-100774494D01*
X99060314Y-100592299D01*
X99052204Y-100578253D01*
X99044466Y-100562563D01*
X98955282Y-100381714D01*
X98949077Y-100366734D01*
X98878638Y-100159221D01*
X98874441Y-100143555D01*
X98831691Y-99928634D01*
X98829576Y-99912577D01*
X98814979Y-99689829D01*
X98814714Y-99681721D01*
X98814714Y-98863972D01*
X98834399Y-98796933D01*
X98887203Y-98751178D01*
X98956361Y-98741234D01*
X99019917Y-98770259D01*
X99026395Y-98776291D01*
X99168599Y-98918495D01*
X99265384Y-98986265D01*
X99362165Y-99054032D01*
X99362167Y-99054033D01*
X99362170Y-99054035D01*
X99576337Y-99153903D01*
X99804592Y-99215063D01*
X99992918Y-99231539D01*
X100039999Y-99235659D01*
X100040000Y-99235659D01*
X100040001Y-99235659D01*
X100079234Y-99232226D01*
X100275408Y-99215063D01*
X100503663Y-99153903D01*
X100717830Y-99054035D01*
X100911401Y-98918495D01*
X101078495Y-98751401D01*
X101214035Y-98557830D01*
X101313903Y-98343663D01*
X101375063Y-98115408D01*
X101395659Y-97880000D01*
X101375063Y-97644592D01*
X101313903Y-97416337D01*
X101214035Y-97202171D01*
X101078495Y-97008599D01*
X101078494Y-97008597D01*
X100911402Y-96841506D01*
X100911396Y-96841501D01*
X100725842Y-96711575D01*
X100682217Y-96656998D01*
X100675023Y-96587500D01*
X100706546Y-96525145D01*
X100725842Y-96508425D01*
X100748026Y-96492891D01*
X100911401Y-96378495D01*
X101078495Y-96211401D01*
X101214035Y-96017830D01*
X101313903Y-95803663D01*
X101375063Y-95575408D01*
X101395659Y-95340000D01*
X101375063Y-95104592D01*
X101313903Y-94876337D01*
X101214035Y-94662171D01*
X101110308Y-94514032D01*
X101078494Y-94468597D01*
X100911402Y-94301506D01*
X100911396Y-94301501D01*
X100725842Y-94171575D01*
X100682217Y-94116998D01*
X100675023Y-94047500D01*
X100706546Y-93985145D01*
X100725842Y-93968425D01*
X100748026Y-93952891D01*
X100911401Y-93838495D01*
X101078495Y-93671401D01*
X101214035Y-93477830D01*
X101313903Y-93263663D01*
X101375063Y-93035408D01*
X101395659Y-92800000D01*
X101375063Y-92564592D01*
X101313903Y-92336337D01*
X101214035Y-92122171D01*
X101110308Y-91974032D01*
X101078494Y-91928597D01*
X100911402Y-91761506D01*
X100911396Y-91761501D01*
X100725842Y-91631575D01*
X100682217Y-91576998D01*
X100675023Y-91507500D01*
X100706546Y-91445145D01*
X100725842Y-91428425D01*
X100815895Y-91365369D01*
X100911401Y-91298495D01*
X101078495Y-91131401D01*
X101214035Y-90937830D01*
X101313903Y-90723663D01*
X101375063Y-90495408D01*
X101395659Y-90260000D01*
X101375063Y-90024592D01*
X101313903Y-89796337D01*
X101214035Y-89582171D01*
X101120963Y-89449249D01*
X101078494Y-89388597D01*
X100959892Y-89269996D01*
X102844435Y-89269996D01*
X102844435Y-89270003D01*
X102864630Y-89449249D01*
X102864631Y-89449254D01*
X102924211Y-89619523D01*
X103020184Y-89772262D01*
X103147737Y-89899815D01*
X103147740Y-89899817D01*
X103165943Y-89911255D01*
X103212235Y-89963589D01*
X103222884Y-90032642D01*
X103204966Y-90082221D01*
X103111811Y-90230476D01*
X103052231Y-90400745D01*
X103052230Y-90400750D01*
X103032035Y-90579996D01*
X103032035Y-90580003D01*
X103052230Y-90759249D01*
X103052231Y-90759254D01*
X103111811Y-90929523D01*
X103147025Y-90985565D01*
X103207784Y-91082262D01*
X103335338Y-91209816D01*
X103389697Y-91243972D01*
X103476469Y-91298495D01*
X103488078Y-91305789D01*
X103658345Y-91365368D01*
X103658350Y-91365369D01*
X103837596Y-91385565D01*
X103837600Y-91385565D01*
X103837604Y-91385565D01*
X104016849Y-91365369D01*
X104016852Y-91365368D01*
X104016855Y-91365368D01*
X104187122Y-91305789D01*
X104339862Y-91209816D01*
X104467416Y-91082262D01*
X104493979Y-91039985D01*
X104546310Y-90993696D01*
X104585087Y-90982738D01*
X104639136Y-90976648D01*
X104739249Y-90965369D01*
X104739252Y-90965368D01*
X104739255Y-90965368D01*
X104909522Y-90905789D01*
X105062262Y-90809816D01*
X105189816Y-90682262D01*
X105285789Y-90529522D01*
X105345368Y-90359255D01*
X105345369Y-90359249D01*
X105365565Y-90180003D01*
X105365565Y-90179996D01*
X105345369Y-90000750D01*
X105345368Y-90000745D01*
X105342183Y-89991642D01*
X105285789Y-89830478D01*
X105189816Y-89677738D01*
X105062262Y-89550184D01*
X104909523Y-89454211D01*
X104739254Y-89394631D01*
X104739250Y-89394630D01*
X104564404Y-89374930D01*
X104499990Y-89347863D01*
X104460435Y-89290268D01*
X104455068Y-89265593D01*
X104450100Y-89221501D01*
X104435369Y-89090750D01*
X104435369Y-89090749D01*
X104435368Y-89090745D01*
X104400116Y-88990000D01*
X104375789Y-88920478D01*
X104279816Y-88767738D01*
X104152262Y-88640184D01*
X104074626Y-88591402D01*
X103999523Y-88544211D01*
X103829254Y-88484631D01*
X103829249Y-88484630D01*
X103650004Y-88464435D01*
X103649996Y-88464435D01*
X103470750Y-88484630D01*
X103470745Y-88484631D01*
X103300476Y-88544211D01*
X103147737Y-88640184D01*
X103020184Y-88767737D01*
X102924211Y-88920476D01*
X102864631Y-89090745D01*
X102864630Y-89090750D01*
X102844435Y-89269996D01*
X100959892Y-89269996D01*
X100911402Y-89221506D01*
X100911396Y-89221501D01*
X100725842Y-89091575D01*
X100682217Y-89036998D01*
X100675023Y-88967500D01*
X100706546Y-88905145D01*
X100725842Y-88888425D01*
X100748026Y-88872891D01*
X100911401Y-88758495D01*
X101078495Y-88591401D01*
X101214035Y-88397830D01*
X101313903Y-88183663D01*
X101375063Y-87955408D01*
X101395659Y-87720000D01*
X101375063Y-87484592D01*
X101313903Y-87256337D01*
X101214035Y-87042171D01*
X101110308Y-86894032D01*
X101078494Y-86848597D01*
X100911402Y-86681506D01*
X100911396Y-86681501D01*
X100725842Y-86551575D01*
X100720971Y-86545481D01*
X105567638Y-86545481D01*
X105567638Y-86545488D01*
X105587833Y-86724734D01*
X105587834Y-86724739D01*
X105647414Y-86895008D01*
X105739882Y-87042169D01*
X105743387Y-87047747D01*
X105870941Y-87175301D01*
X105950751Y-87225449D01*
X105999905Y-87256335D01*
X106023681Y-87271274D01*
X106193948Y-87330853D01*
X106193953Y-87330854D01*
X106373199Y-87351050D01*
X106373203Y-87351050D01*
X106373207Y-87351050D01*
X106552452Y-87330854D01*
X106552455Y-87330853D01*
X106552458Y-87330853D01*
X106722725Y-87271274D01*
X106875465Y-87175301D01*
X107003019Y-87047747D01*
X107098992Y-86895007D01*
X107158571Y-86724740D01*
X107158572Y-86724734D01*
X107178768Y-86545488D01*
X107178768Y-86545481D01*
X107158572Y-86366235D01*
X107158571Y-86366230D01*
X107106876Y-86218495D01*
X107098992Y-86195963D01*
X107003019Y-86043223D01*
X106875465Y-85915669D01*
X106722726Y-85819696D01*
X106552457Y-85760116D01*
X106552452Y-85760115D01*
X106373207Y-85739920D01*
X106373199Y-85739920D01*
X106193953Y-85760115D01*
X106193948Y-85760116D01*
X106023679Y-85819696D01*
X105870940Y-85915669D01*
X105743387Y-86043222D01*
X105647414Y-86195961D01*
X105587834Y-86366230D01*
X105587833Y-86366235D01*
X105567638Y-86545481D01*
X100720971Y-86545481D01*
X100682217Y-86496998D01*
X100675023Y-86427500D01*
X100706546Y-86365145D01*
X100725842Y-86348425D01*
X100748026Y-86332891D01*
X100911401Y-86218495D01*
X101078495Y-86051401D01*
X101214035Y-85857830D01*
X101313903Y-85643663D01*
X101375063Y-85415408D01*
X101395659Y-85180000D01*
X101375063Y-84944592D01*
X101313903Y-84716337D01*
X101214035Y-84502171D01*
X101110308Y-84354032D01*
X101078494Y-84308597D01*
X100911402Y-84141506D01*
X100911396Y-84141501D01*
X100725842Y-84011575D01*
X100682217Y-83956998D01*
X100675023Y-83887500D01*
X100706546Y-83825145D01*
X100725842Y-83808425D01*
X100748026Y-83792891D01*
X100911401Y-83678495D01*
X101078495Y-83511401D01*
X101214035Y-83317830D01*
X101313903Y-83103663D01*
X101375063Y-82875408D01*
X101395659Y-82640000D01*
X101375063Y-82404592D01*
X101313903Y-82176337D01*
X101236336Y-82009996D01*
X106174435Y-82009996D01*
X106174435Y-82010003D01*
X106194630Y-82189249D01*
X106194631Y-82189254D01*
X106254211Y-82359523D01*
X106350184Y-82512262D01*
X106477738Y-82639816D01*
X106630478Y-82735789D01*
X106800745Y-82795368D01*
X106800750Y-82795369D01*
X106979996Y-82815565D01*
X106980000Y-82815565D01*
X106980004Y-82815565D01*
X107159247Y-82795369D01*
X107159247Y-82795368D01*
X107159255Y-82795368D01*
X107168532Y-82792121D01*
X107238305Y-82788556D01*
X107298935Y-82823281D01*
X107314482Y-82843187D01*
X107320184Y-82852262D01*
X107447738Y-82979816D01*
X107600478Y-83075789D01*
X107768407Y-83134550D01*
X107770745Y-83135368D01*
X107770750Y-83135369D01*
X107949996Y-83155565D01*
X107950000Y-83155565D01*
X107950004Y-83155565D01*
X108129249Y-83135369D01*
X108129252Y-83135368D01*
X108129255Y-83135368D01*
X108299522Y-83075789D01*
X108452262Y-82979816D01*
X108579816Y-82852262D01*
X108675789Y-82699522D01*
X108735368Y-82529255D01*
X108755565Y-82350000D01*
X108737453Y-82189254D01*
X108735369Y-82170750D01*
X108735368Y-82170745D01*
X108675788Y-82000476D01*
X108609868Y-81895565D01*
X108579816Y-81847738D01*
X108452262Y-81720184D01*
X108406284Y-81691294D01*
X108299523Y-81624211D01*
X108129254Y-81564631D01*
X108129250Y-81564630D01*
X108091355Y-81560361D01*
X108026941Y-81533294D01*
X107987386Y-81475699D01*
X107985249Y-81405862D01*
X107988198Y-81396186D01*
X108041101Y-81244997D01*
X108041104Y-81244984D01*
X108061300Y-81065738D01*
X108061300Y-81065731D01*
X108041104Y-80886485D01*
X108041103Y-80886480D01*
X108003085Y-80777830D01*
X107981524Y-80716213D01*
X107885551Y-80563473D01*
X107757997Y-80435919D01*
X107605258Y-80339946D01*
X107434989Y-80280366D01*
X107434984Y-80280365D01*
X107255739Y-80260170D01*
X107255731Y-80260170D01*
X107076485Y-80280365D01*
X107076480Y-80280366D01*
X106906211Y-80339946D01*
X106753472Y-80435919D01*
X106625919Y-80563472D01*
X106529946Y-80716211D01*
X106470366Y-80886480D01*
X106470365Y-80886485D01*
X106450170Y-81065731D01*
X106450170Y-81065738D01*
X106470366Y-81244987D01*
X106481588Y-81277058D01*
X106485149Y-81346836D01*
X106452228Y-81405692D01*
X106350185Y-81507736D01*
X106350184Y-81507737D01*
X106254211Y-81660476D01*
X106194631Y-81830745D01*
X106194630Y-81830750D01*
X106174435Y-82009996D01*
X101236336Y-82009996D01*
X101214035Y-81962171D01*
X101167398Y-81895565D01*
X101078494Y-81768597D01*
X100911402Y-81601506D01*
X100911396Y-81601501D01*
X100725842Y-81471575D01*
X100682217Y-81416998D01*
X100675023Y-81347500D01*
X100706546Y-81285145D01*
X100725842Y-81268425D01*
X100748026Y-81252891D01*
X100911401Y-81138495D01*
X100959900Y-81089996D01*
X103474435Y-81089996D01*
X103474435Y-81090003D01*
X103494630Y-81269249D01*
X103494631Y-81269254D01*
X103554211Y-81439523D01*
X103597073Y-81507737D01*
X103650184Y-81592262D01*
X103777738Y-81719816D01*
X103855374Y-81768598D01*
X103927681Y-81814032D01*
X103930478Y-81815789D01*
X104021783Y-81847738D01*
X104100745Y-81875368D01*
X104100750Y-81875369D01*
X104279996Y-81895565D01*
X104280000Y-81895565D01*
X104280004Y-81895565D01*
X104459249Y-81875369D01*
X104459252Y-81875368D01*
X104459255Y-81875368D01*
X104629522Y-81815789D01*
X104782262Y-81719816D01*
X104909816Y-81592262D01*
X105005789Y-81439522D01*
X105065368Y-81269255D01*
X105065462Y-81268425D01*
X105085565Y-81090003D01*
X105085565Y-81089996D01*
X105065369Y-80910750D01*
X105065368Y-80910745D01*
X105005788Y-80740476D01*
X104909815Y-80587737D01*
X104782262Y-80460184D01*
X104629523Y-80364211D01*
X104459254Y-80304631D01*
X104459249Y-80304630D01*
X104280004Y-80284435D01*
X104279996Y-80284435D01*
X104100750Y-80304630D01*
X104100745Y-80304631D01*
X103930476Y-80364211D01*
X103777737Y-80460184D01*
X103650184Y-80587737D01*
X103554211Y-80740476D01*
X103494631Y-80910745D01*
X103494630Y-80910750D01*
X103474435Y-81089996D01*
X100959900Y-81089996D01*
X101078495Y-80971401D01*
X101214035Y-80777830D01*
X101313903Y-80563663D01*
X101375063Y-80335408D01*
X101395659Y-80100000D01*
X101375063Y-79864592D01*
X101313903Y-79636337D01*
X101214035Y-79422171D01*
X101110308Y-79274032D01*
X101078494Y-79228597D01*
X100911402Y-79061506D01*
X100911396Y-79061501D01*
X100725842Y-78931575D01*
X100682217Y-78876998D01*
X100675023Y-78807500D01*
X100706546Y-78745145D01*
X100725842Y-78728425D01*
X100748026Y-78712891D01*
X100911401Y-78598495D01*
X101078495Y-78431401D01*
X101214035Y-78237830D01*
X101313903Y-78023663D01*
X101375063Y-77795408D01*
X101395659Y-77560000D01*
X101375063Y-77324592D01*
X101313903Y-77096337D01*
X101214035Y-76882171D01*
X101110308Y-76734032D01*
X101078494Y-76688597D01*
X100911402Y-76521506D01*
X100911401Y-76521505D01*
X100725405Y-76391269D01*
X100681781Y-76336692D01*
X100674588Y-76267193D01*
X100706110Y-76204839D01*
X100725405Y-76188119D01*
X100801373Y-76134925D01*
X100169409Y-75502962D01*
X100232993Y-75485925D01*
X100347007Y-75420099D01*
X100440099Y-75327007D01*
X100505925Y-75212993D01*
X100522962Y-75149410D01*
X101154925Y-75781373D01*
X101154926Y-75781373D01*
X101213598Y-75697582D01*
X101213600Y-75697578D01*
X101273092Y-75569996D01*
X102364435Y-75569996D01*
X102364435Y-75570003D01*
X102384630Y-75749249D01*
X102384631Y-75749254D01*
X102444211Y-75919523D01*
X102462803Y-75949111D01*
X102540184Y-76072262D01*
X102667738Y-76199816D01*
X102820478Y-76295789D01*
X102937372Y-76336692D01*
X102990745Y-76355368D01*
X102990750Y-76355369D01*
X103169996Y-76375565D01*
X103170000Y-76375565D01*
X103170004Y-76375565D01*
X103349249Y-76355369D01*
X103349252Y-76355368D01*
X103349255Y-76355368D01*
X103519522Y-76295789D01*
X103672262Y-76199816D01*
X103799816Y-76072262D01*
X103895789Y-75919522D01*
X103955368Y-75749255D01*
X103975565Y-75570000D01*
X103969931Y-75520000D01*
X103955369Y-75390750D01*
X103955368Y-75390745D01*
X103908013Y-75255413D01*
X103895789Y-75220478D01*
X103799816Y-75067738D01*
X103672262Y-74940184D01*
X103519523Y-74844211D01*
X103349254Y-74784631D01*
X103349249Y-74784630D01*
X103170004Y-74764435D01*
X103169996Y-74764435D01*
X102990750Y-74784630D01*
X102990745Y-74784631D01*
X102820476Y-74844211D01*
X102667737Y-74940184D01*
X102540184Y-75067737D01*
X102444211Y-75220476D01*
X102384631Y-75390745D01*
X102384630Y-75390750D01*
X102364435Y-75569996D01*
X101273092Y-75569996D01*
X101313429Y-75483492D01*
X101313433Y-75483483D01*
X101374567Y-75255326D01*
X101374569Y-75255315D01*
X101395157Y-75020001D01*
X101395157Y-75019998D01*
X101374569Y-74784684D01*
X101374567Y-74784673D01*
X101313433Y-74556516D01*
X101313429Y-74556507D01*
X101213600Y-74342423D01*
X101213599Y-74342421D01*
X101154925Y-74258626D01*
X101154925Y-74258625D01*
X100522962Y-74890589D01*
X100505925Y-74827007D01*
X100440099Y-74712993D01*
X100347007Y-74619901D01*
X100232993Y-74554075D01*
X100169410Y-74537037D01*
X100801373Y-73905073D01*
X100801373Y-73905072D01*
X100717583Y-73846402D01*
X100717579Y-73846400D01*
X100503492Y-73746570D01*
X100503483Y-73746566D01*
X100275326Y-73685432D01*
X100275315Y-73685430D01*
X100040002Y-73664843D01*
X100039998Y-73664843D01*
X99804684Y-73685430D01*
X99804673Y-73685432D01*
X99576516Y-73746566D01*
X99576507Y-73746570D01*
X99362419Y-73846401D01*
X99278625Y-73905072D01*
X99910590Y-74537037D01*
X99847007Y-74554075D01*
X99732993Y-74619901D01*
X99639901Y-74712993D01*
X99574075Y-74827007D01*
X99557037Y-74890590D01*
X98916245Y-74249798D01*
X98881020Y-74242718D01*
X98830837Y-74194102D01*
X98814714Y-74132958D01*
X98814714Y-72404066D01*
X98814979Y-72395956D01*
X98817328Y-72360118D01*
X98829578Y-72173210D01*
X98831693Y-72157155D01*
X98874447Y-71942217D01*
X98878643Y-71926561D01*
X98949083Y-71719052D01*
X98955281Y-71704087D01*
X99052210Y-71507536D01*
X99060313Y-71493501D01*
X99182067Y-71311283D01*
X99191918Y-71298445D01*
X99336429Y-71133663D01*
X99347880Y-71122213D01*
X99512645Y-70977719D01*
X99525504Y-70967853D01*
X99707705Y-70846111D01*
X99721740Y-70838006D01*
X99918297Y-70741076D01*
X99933257Y-70734880D01*
X100140782Y-70664436D01*
X100156432Y-70660242D01*
X100371365Y-70617491D01*
X100387439Y-70615376D01*
X100401853Y-70614431D01*
X100470036Y-70629687D01*
X100519148Y-70679385D01*
X100533594Y-70747745D01*
X100508790Y-70813063D01*
X100481089Y-70839739D01*
X100378598Y-70911504D01*
X100211505Y-71078597D01*
X100075965Y-71272169D01*
X100075964Y-71272171D01*
X99976098Y-71486335D01*
X99976094Y-71486344D01*
X99914938Y-71714586D01*
X99914936Y-71714596D01*
X99894341Y-71949999D01*
X99894341Y-71950000D01*
X99914936Y-72185403D01*
X99914938Y-72185413D01*
X99976094Y-72413655D01*
X99976096Y-72413659D01*
X99976097Y-72413663D01*
X100055801Y-72584588D01*
X100075965Y-72627830D01*
X100075967Y-72627834D01*
X100184281Y-72782521D01*
X100211505Y-72821401D01*
X100378599Y-72988495D01*
X100475384Y-73056265D01*
X100572165Y-73124032D01*
X100572167Y-73124033D01*
X100572170Y-73124035D01*
X100786337Y-73223903D01*
X101014592Y-73285063D01*
X101202918Y-73301539D01*
X101249999Y-73305659D01*
X101250000Y-73305659D01*
X101250001Y-73305659D01*
X101289234Y-73302226D01*
X101485408Y-73285063D01*
X101713663Y-73223903D01*
X101927830Y-73124035D01*
X102121401Y-72988495D01*
X102288495Y-72821401D01*
X102418425Y-72635842D01*
X102473002Y-72592217D01*
X102542500Y-72585023D01*
X102604855Y-72616546D01*
X102621575Y-72635842D01*
X102751500Y-72821395D01*
X102751505Y-72821401D01*
X102918599Y-72988495D01*
X103015384Y-73056265D01*
X103112165Y-73124032D01*
X103112167Y-73124033D01*
X103112170Y-73124035D01*
X103326337Y-73223903D01*
X103554592Y-73285063D01*
X103742918Y-73301539D01*
X103789999Y-73305659D01*
X103790000Y-73305659D01*
X103790001Y-73305659D01*
X103829234Y-73302226D01*
X104025408Y-73285063D01*
X104253663Y-73223903D01*
X104467830Y-73124035D01*
X104661401Y-72988495D01*
X104828495Y-72821401D01*
X104958425Y-72635842D01*
X105013002Y-72592217D01*
X105082500Y-72585023D01*
X105144855Y-72616546D01*
X105161575Y-72635842D01*
X105291500Y-72821395D01*
X105291505Y-72821401D01*
X105458599Y-72988495D01*
X105555384Y-73056265D01*
X105652165Y-73124032D01*
X105652167Y-73124033D01*
X105652170Y-73124035D01*
X105866337Y-73223903D01*
X106094592Y-73285063D01*
X106282918Y-73301539D01*
X106329999Y-73305659D01*
X106330000Y-73305659D01*
X106330001Y-73305659D01*
X106369234Y-73302226D01*
X106565408Y-73285063D01*
X106793663Y-73223903D01*
X107007830Y-73124035D01*
X107201401Y-72988495D01*
X107368495Y-72821401D01*
X107498730Y-72635405D01*
X107553307Y-72591781D01*
X107622805Y-72584587D01*
X107685160Y-72616110D01*
X107701879Y-72635405D01*
X107831890Y-72821078D01*
X107998917Y-72988105D01*
X108192421Y-73123600D01*
X108406507Y-73223429D01*
X108406516Y-73223433D01*
X108620000Y-73280634D01*
X108620000Y-72383012D01*
X108677007Y-72415925D01*
X108804174Y-72450000D01*
X108935826Y-72450000D01*
X109062993Y-72415925D01*
X109120000Y-72383012D01*
X109120000Y-73280633D01*
X109333483Y-73223433D01*
X109333492Y-73223429D01*
X109547578Y-73123600D01*
X109741082Y-72988105D01*
X109908105Y-72821082D01*
X110038119Y-72635405D01*
X110092696Y-72591781D01*
X110162195Y-72584588D01*
X110224549Y-72616110D01*
X110241269Y-72635405D01*
X110371505Y-72821401D01*
X110538599Y-72988495D01*
X110635384Y-73056265D01*
X110732165Y-73124032D01*
X110732167Y-73124033D01*
X110732170Y-73124035D01*
X110946337Y-73223903D01*
X111174592Y-73285063D01*
X111362918Y-73301539D01*
X111409999Y-73305659D01*
X111410000Y-73305659D01*
X111410001Y-73305659D01*
X111449234Y-73302226D01*
X111645408Y-73285063D01*
X111873663Y-73223903D01*
X112087830Y-73124035D01*
X112281401Y-72988495D01*
X112448495Y-72821401D01*
X112584035Y-72627830D01*
X112683903Y-72413663D01*
X112745063Y-72185408D01*
X112765659Y-71950000D01*
X112764281Y-71934255D01*
X112747649Y-71744148D01*
X112745063Y-71714592D01*
X112686288Y-71495238D01*
X112683905Y-71486344D01*
X112683904Y-71486343D01*
X112683903Y-71486337D01*
X112584035Y-71272171D01*
X112578731Y-71264595D01*
X112448494Y-71078597D01*
X112281402Y-70911506D01*
X112281401Y-70911505D01*
X112162965Y-70828575D01*
X112119340Y-70773998D01*
X112112148Y-70704499D01*
X112143670Y-70642145D01*
X112203900Y-70606731D01*
X112242193Y-70603265D01*
X112426790Y-70615364D01*
G37*
%TD.AperFunction*%
%TA.AperFunction,Conductor*%
G36*
X99574075Y-75212993D02*
G01*
X99639901Y-75327007D01*
X99732993Y-75420099D01*
X99847007Y-75485925D01*
X99910590Y-75502962D01*
X99278625Y-76134925D01*
X99354594Y-76188119D01*
X99398219Y-76242696D01*
X99405413Y-76312194D01*
X99373890Y-76374549D01*
X99354595Y-76391269D01*
X99168594Y-76521508D01*
X99026395Y-76663708D01*
X98965072Y-76697193D01*
X98895380Y-76692209D01*
X98839447Y-76650337D01*
X98815030Y-76584873D01*
X98814714Y-76576027D01*
X98814714Y-75907040D01*
X98834399Y-75840001D01*
X98887203Y-75794246D01*
X98917402Y-75789044D01*
X99557037Y-75149409D01*
X99574075Y-75212993D01*
G37*
%TD.AperFunction*%
%TD*%
M02*
