M48
; DRILL file {KiCad 8.0.6} date 2024-11-24T13:18:00-0800
; FORMAT={-:-/ absolute / inch / decimal}
; #@! TF.CreationDate,2024-11-24T13:18:00-08:00
; #@! TF.GenerationSoftware,Kicad,Pcbnew,8.0.6
; #@! TF.FileFunction,Plated,1,4,PTH
FMAT,2
INCH
; #@! TA.AperFunction,Plated,PTH,ViaDrill
T1C0.0118
; #@! TA.AperFunction,Plated,PTH,ComponentDrill
T2C0.0394
%
G90
G05
T1
X4.01Y-3.528
X4.0414Y-3.3236
X4.055Y-3.375
X4.0686Y-3.7062
X4.098Y-3.78
X4.1417Y-3.2833
X4.1575Y-3.6425
X4.158Y-3.674
X4.158Y-3.78
X4.185Y-3.47
X4.2Y-3.28
X4.218Y-3.78
X4.22Y-3.666
X4.246Y-3.05
X4.255Y-3.18
X4.26Y-3.325
X4.276Y-3.674
X4.276Y-3.782
X4.33Y-3.54
X4.3536Y-3.5634
T2
X3.937Y-2.9528
X3.937Y-3.0528
X3.937Y-3.1528
X3.937Y-3.2528
X3.937Y-3.3528
X3.937Y-3.4528
X3.937Y-3.5528
X3.937Y-3.6528
X3.937Y-3.7528
X3.937Y-3.8528
X3.937Y-3.9528
X3.9945Y-2.8268
X4.0945Y-2.8268
X4.1772Y-3.9528
X4.1945Y-2.8268
X4.2772Y-3.9528
X4.2945Y-2.8268
X4.3772Y-3.9528
X4.3945Y-2.8268
X4.437Y-2.9528
X4.437Y-3.0528
X4.437Y-3.1528
X4.437Y-3.2528
X4.437Y-3.3528
X4.437Y-3.4528
X4.437Y-3.5528
X4.437Y-3.6528
M30
