%TF.GenerationSoftware,KiCad,Pcbnew,8.0.5*%
%TF.CreationDate,2025-01-09T20:32:42-08:00*%
%TF.ProjectId,PIC32Flex,50494333-3246-46c6-9578-2e6b69636164,rev?*%
%TF.SameCoordinates,Original*%
%TF.FileFunction,Drillmap*%
%TF.FilePolarity,Positive*%
%FSLAX45Y45*%
G04 Gerber Fmt 4.5, Leading zero omitted, Abs format (unit mm)*
G04 Created by KiCad (PCBNEW 8.0.5) date 2025-01-09 20:32:42*
%MOMM*%
%LPD*%
G01*
G04 APERTURE LIST*
%ADD10C,0.050000*%
%ADD11C,0.200000*%
%ADD12C,0.100000*%
G04 APERTURE END LIST*
D10*
X9861421Y-7240000D02*
G75*
G02*
X10061421Y-7040000I200000J0D01*
G01*
X11420000Y-7240000D02*
X11420000Y-9968579D01*
X10061421Y-7040000D02*
X11220000Y-7040000D01*
X10061421Y-10168579D02*
G75*
G02*
X9861421Y-9968579I0J200000D01*
G01*
X11420000Y-9968579D02*
G75*
G02*
X11220000Y-10168579I-200000J0D01*
G01*
X11220000Y-10168579D02*
X10061421Y-10168579D01*
X11220000Y-7040000D02*
G75*
G02*
X11420000Y-7240000I0J-200000D01*
G01*
X9861421Y-9968579D02*
X9861421Y-7240000D01*
D11*
D12*
X10248760Y-9095000D02*
X10278760Y-9125000D01*
X10278760Y-9095000D02*
X10248760Y-9125000D01*
X10302000Y-7542000D02*
X10332000Y-7572000D01*
X10332000Y-7542000D02*
X10302000Y-7572000D01*
X10350000Y-8912000D02*
X10380000Y-8942000D01*
X10380000Y-8912000D02*
X10350000Y-8942000D01*
X10368760Y-9043000D02*
X10398760Y-9073000D01*
X10398760Y-9043000D02*
X10368760Y-9073000D01*
X10387000Y-7869000D02*
X10417000Y-7899000D01*
X10417000Y-7869000D02*
X10387000Y-7899000D01*
X10413000Y-8094000D02*
X10443000Y-8124000D01*
X10443000Y-8094000D02*
X10413000Y-8124000D01*
X10441000Y-9003000D02*
X10471000Y-9033000D01*
X10471000Y-9003000D02*
X10441000Y-9033000D01*
X10622320Y-8639549D02*
X10652320Y-8669549D01*
X10652320Y-8639549D02*
X10622320Y-8669549D01*
X10683000Y-8186000D02*
X10713000Y-8216000D01*
X10713000Y-8186000D02*
X10683000Y-8216000D01*
X10687000Y-7872000D02*
X10717000Y-7902000D01*
X10717000Y-7872000D02*
X10687000Y-7902000D01*
X10710574Y-8091573D02*
X10740574Y-8121573D01*
X10740574Y-8091573D02*
X10710574Y-8121573D01*
X10780000Y-8220000D02*
X10810000Y-8250000D01*
X10810000Y-8220000D02*
X10780000Y-8250000D01*
X10982000Y-8185000D02*
X11012000Y-8215000D01*
X11012000Y-8185000D02*
X10982000Y-8215000D01*
X10054000Y-7502000D02*
G75*
G02*
X9954000Y-7502000I-50000J0D01*
G01*
X9954000Y-7502000D02*
G75*
G02*
X10054000Y-7502000I50000J0D01*
G01*
X10054000Y-7756000D02*
G75*
G02*
X9954000Y-7756000I-50000J0D01*
G01*
X9954000Y-7756000D02*
G75*
G02*
X10054000Y-7756000I50000J0D01*
G01*
X10054000Y-8010000D02*
G75*
G02*
X9954000Y-8010000I-50000J0D01*
G01*
X9954000Y-8010000D02*
G75*
G02*
X10054000Y-8010000I50000J0D01*
G01*
X10054000Y-8264000D02*
G75*
G02*
X9954000Y-8264000I-50000J0D01*
G01*
X9954000Y-8264000D02*
G75*
G02*
X10054000Y-8264000I50000J0D01*
G01*
X10054000Y-8518000D02*
G75*
G02*
X9954000Y-8518000I-50000J0D01*
G01*
X9954000Y-8518000D02*
G75*
G02*
X10054000Y-8518000I50000J0D01*
G01*
X10054000Y-8772000D02*
G75*
G02*
X9954000Y-8772000I-50000J0D01*
G01*
X9954000Y-8772000D02*
G75*
G02*
X10054000Y-8772000I50000J0D01*
G01*
X10054000Y-9026000D02*
G75*
G02*
X9954000Y-9026000I-50000J0D01*
G01*
X9954000Y-9026000D02*
G75*
G02*
X10054000Y-9026000I50000J0D01*
G01*
X10054000Y-9280000D02*
G75*
G02*
X9954000Y-9280000I-50000J0D01*
G01*
X9954000Y-9280000D02*
G75*
G02*
X10054000Y-9280000I50000J0D01*
G01*
X10054000Y-9534000D02*
G75*
G02*
X9954000Y-9534000I-50000J0D01*
G01*
X9954000Y-9534000D02*
G75*
G02*
X10054000Y-9534000I50000J0D01*
G01*
X10054000Y-9788000D02*
G75*
G02*
X9954000Y-9788000I-50000J0D01*
G01*
X9954000Y-9788000D02*
G75*
G02*
X10054000Y-9788000I50000J0D01*
G01*
X10175000Y-7195000D02*
G75*
G02*
X10075000Y-7195000I-50000J0D01*
G01*
X10075000Y-7195000D02*
G75*
G02*
X10175000Y-7195000I50000J0D01*
G01*
X10429000Y-7195000D02*
G75*
G02*
X10329000Y-7195000I-50000J0D01*
G01*
X10329000Y-7195000D02*
G75*
G02*
X10429000Y-7195000I50000J0D01*
G01*
X10433760Y-10017080D02*
G75*
G02*
X10333760Y-10017080I-50000J0D01*
G01*
X10333760Y-10017080D02*
G75*
G02*
X10433760Y-10017080I50000J0D01*
G01*
X10683000Y-7195000D02*
G75*
G02*
X10583000Y-7195000I-50000J0D01*
G01*
X10583000Y-7195000D02*
G75*
G02*
X10683000Y-7195000I50000J0D01*
G01*
X10687760Y-10017080D02*
G75*
G02*
X10587760Y-10017080I-50000J0D01*
G01*
X10587760Y-10017080D02*
G75*
G02*
X10687760Y-10017080I50000J0D01*
G01*
X10937000Y-7195000D02*
G75*
G02*
X10837000Y-7195000I-50000J0D01*
G01*
X10837000Y-7195000D02*
G75*
G02*
X10937000Y-7195000I50000J0D01*
G01*
X10941760Y-10017080D02*
G75*
G02*
X10841760Y-10017080I-50000J0D01*
G01*
X10841760Y-10017080D02*
G75*
G02*
X10941760Y-10017080I50000J0D01*
G01*
X11191000Y-7195000D02*
G75*
G02*
X11091000Y-7195000I-50000J0D01*
G01*
X11091000Y-7195000D02*
G75*
G02*
X11191000Y-7195000I50000J0D01*
G01*
X11324000Y-7502000D02*
G75*
G02*
X11224000Y-7502000I-50000J0D01*
G01*
X11224000Y-7502000D02*
G75*
G02*
X11324000Y-7502000I50000J0D01*
G01*
X11324000Y-7756000D02*
G75*
G02*
X11224000Y-7756000I-50000J0D01*
G01*
X11224000Y-7756000D02*
G75*
G02*
X11324000Y-7756000I50000J0D01*
G01*
X11324000Y-8010000D02*
G75*
G02*
X11224000Y-8010000I-50000J0D01*
G01*
X11224000Y-8010000D02*
G75*
G02*
X11324000Y-8010000I50000J0D01*
G01*
X11324000Y-8264000D02*
G75*
G02*
X11224000Y-8264000I-50000J0D01*
G01*
X11224000Y-8264000D02*
G75*
G02*
X11324000Y-8264000I50000J0D01*
G01*
X11324000Y-8518000D02*
G75*
G02*
X11224000Y-8518000I-50000J0D01*
G01*
X11224000Y-8518000D02*
G75*
G02*
X11324000Y-8518000I50000J0D01*
G01*
X11324000Y-8772000D02*
G75*
G02*
X11224000Y-8772000I-50000J0D01*
G01*
X11224000Y-8772000D02*
G75*
G02*
X11324000Y-8772000I50000J0D01*
G01*
X11324000Y-9026000D02*
G75*
G02*
X11224000Y-9026000I-50000J0D01*
G01*
X11224000Y-9026000D02*
G75*
G02*
X11324000Y-9026000I50000J0D01*
G01*
X11324000Y-9280000D02*
G75*
G02*
X11224000Y-9280000I-50000J0D01*
G01*
X11224000Y-9280000D02*
G75*
G02*
X11324000Y-9280000I50000J0D01*
G01*
X11324000Y-9534000D02*
G75*
G02*
X11224000Y-9534000I-50000J0D01*
G01*
X11224000Y-9534000D02*
G75*
G02*
X11324000Y-9534000I50000J0D01*
G01*
D11*
X10119698Y-10482562D02*
X10119698Y-10282562D01*
X10119698Y-10282562D02*
X10167317Y-10282562D01*
X10167317Y-10282562D02*
X10195889Y-10292086D01*
X10195889Y-10292086D02*
X10214936Y-10311134D01*
X10214936Y-10311134D02*
X10224460Y-10330181D01*
X10224460Y-10330181D02*
X10233984Y-10368277D01*
X10233984Y-10368277D02*
X10233984Y-10396848D01*
X10233984Y-10396848D02*
X10224460Y-10434943D01*
X10224460Y-10434943D02*
X10214936Y-10453991D01*
X10214936Y-10453991D02*
X10195889Y-10473039D01*
X10195889Y-10473039D02*
X10167317Y-10482562D01*
X10167317Y-10482562D02*
X10119698Y-10482562D01*
X10319698Y-10482562D02*
X10319698Y-10349229D01*
X10319698Y-10387324D02*
X10329222Y-10368277D01*
X10329222Y-10368277D02*
X10338746Y-10358753D01*
X10338746Y-10358753D02*
X10357793Y-10349229D01*
X10357793Y-10349229D02*
X10376841Y-10349229D01*
X10443508Y-10482562D02*
X10443508Y-10349229D01*
X10443508Y-10282562D02*
X10433984Y-10292086D01*
X10433984Y-10292086D02*
X10443508Y-10301610D01*
X10443508Y-10301610D02*
X10453032Y-10292086D01*
X10453032Y-10292086D02*
X10443508Y-10282562D01*
X10443508Y-10282562D02*
X10443508Y-10301610D01*
X10567317Y-10482562D02*
X10548270Y-10473039D01*
X10548270Y-10473039D02*
X10538746Y-10453991D01*
X10538746Y-10453991D02*
X10538746Y-10282562D01*
X10672079Y-10482562D02*
X10653032Y-10473039D01*
X10653032Y-10473039D02*
X10643508Y-10453991D01*
X10643508Y-10453991D02*
X10643508Y-10282562D01*
X10900651Y-10482562D02*
X10900651Y-10282562D01*
X10900651Y-10282562D02*
X10967317Y-10425420D01*
X10967317Y-10425420D02*
X11033984Y-10282562D01*
X11033984Y-10282562D02*
X11033984Y-10482562D01*
X11214936Y-10482562D02*
X11214936Y-10377801D01*
X11214936Y-10377801D02*
X11205412Y-10358753D01*
X11205412Y-10358753D02*
X11186365Y-10349229D01*
X11186365Y-10349229D02*
X11148270Y-10349229D01*
X11148270Y-10349229D02*
X11129222Y-10358753D01*
X11214936Y-10473039D02*
X11195889Y-10482562D01*
X11195889Y-10482562D02*
X11148270Y-10482562D01*
X11148270Y-10482562D02*
X11129222Y-10473039D01*
X11129222Y-10473039D02*
X11119698Y-10453991D01*
X11119698Y-10453991D02*
X11119698Y-10434943D01*
X11119698Y-10434943D02*
X11129222Y-10415896D01*
X11129222Y-10415896D02*
X11148270Y-10406372D01*
X11148270Y-10406372D02*
X11195889Y-10406372D01*
X11195889Y-10406372D02*
X11214936Y-10396848D01*
X11310174Y-10349229D02*
X11310174Y-10549229D01*
X11310174Y-10358753D02*
X11329222Y-10349229D01*
X11329222Y-10349229D02*
X11367317Y-10349229D01*
X11367317Y-10349229D02*
X11386365Y-10358753D01*
X11386365Y-10358753D02*
X11395889Y-10368277D01*
X11395889Y-10368277D02*
X11405412Y-10387324D01*
X11405412Y-10387324D02*
X11405412Y-10444467D01*
X11405412Y-10444467D02*
X11395889Y-10463515D01*
X11395889Y-10463515D02*
X11386365Y-10473039D01*
X11386365Y-10473039D02*
X11367317Y-10482562D01*
X11367317Y-10482562D02*
X11329222Y-10482562D01*
X11329222Y-10482562D02*
X11310174Y-10473039D01*
X11491127Y-10463515D02*
X11500651Y-10473039D01*
X11500651Y-10473039D02*
X11491127Y-10482562D01*
X11491127Y-10482562D02*
X11481603Y-10473039D01*
X11481603Y-10473039D02*
X11491127Y-10463515D01*
X11491127Y-10463515D02*
X11491127Y-10482562D01*
X11491127Y-10358753D02*
X11500651Y-10368277D01*
X11500651Y-10368277D02*
X11491127Y-10377801D01*
X11491127Y-10377801D02*
X11481603Y-10368277D01*
X11481603Y-10368277D02*
X11491127Y-10358753D01*
X11491127Y-10358753D02*
X11491127Y-10377801D01*
D12*
X9828921Y-10796079D02*
X9858921Y-10826079D01*
X9858921Y-10796079D02*
X9828921Y-10826079D01*
D11*
X10157793Y-10702562D02*
X10176841Y-10702562D01*
X10176841Y-10702562D02*
X10195889Y-10712086D01*
X10195889Y-10712086D02*
X10205413Y-10721610D01*
X10205413Y-10721610D02*
X10214936Y-10740658D01*
X10214936Y-10740658D02*
X10224460Y-10778753D01*
X10224460Y-10778753D02*
X10224460Y-10826372D01*
X10224460Y-10826372D02*
X10214936Y-10864467D01*
X10214936Y-10864467D02*
X10205413Y-10883515D01*
X10205413Y-10883515D02*
X10195889Y-10893039D01*
X10195889Y-10893039D02*
X10176841Y-10902562D01*
X10176841Y-10902562D02*
X10157793Y-10902562D01*
X10157793Y-10902562D02*
X10138746Y-10893039D01*
X10138746Y-10893039D02*
X10129222Y-10883515D01*
X10129222Y-10883515D02*
X10119698Y-10864467D01*
X10119698Y-10864467D02*
X10110174Y-10826372D01*
X10110174Y-10826372D02*
X10110174Y-10778753D01*
X10110174Y-10778753D02*
X10119698Y-10740658D01*
X10119698Y-10740658D02*
X10129222Y-10721610D01*
X10129222Y-10721610D02*
X10138746Y-10712086D01*
X10138746Y-10712086D02*
X10157793Y-10702562D01*
X10310174Y-10883515D02*
X10319698Y-10893039D01*
X10319698Y-10893039D02*
X10310174Y-10902562D01*
X10310174Y-10902562D02*
X10300651Y-10893039D01*
X10300651Y-10893039D02*
X10310174Y-10883515D01*
X10310174Y-10883515D02*
X10310174Y-10902562D01*
X10386365Y-10702562D02*
X10510174Y-10702562D01*
X10510174Y-10702562D02*
X10443508Y-10778753D01*
X10443508Y-10778753D02*
X10472079Y-10778753D01*
X10472079Y-10778753D02*
X10491127Y-10788277D01*
X10491127Y-10788277D02*
X10500651Y-10797801D01*
X10500651Y-10797801D02*
X10510174Y-10816848D01*
X10510174Y-10816848D02*
X10510174Y-10864467D01*
X10510174Y-10864467D02*
X10500651Y-10883515D01*
X10500651Y-10883515D02*
X10491127Y-10893039D01*
X10491127Y-10893039D02*
X10472079Y-10902562D01*
X10472079Y-10902562D02*
X10414936Y-10902562D01*
X10414936Y-10902562D02*
X10395889Y-10893039D01*
X10395889Y-10893039D02*
X10386365Y-10883515D01*
X10633984Y-10702562D02*
X10653032Y-10702562D01*
X10653032Y-10702562D02*
X10672079Y-10712086D01*
X10672079Y-10712086D02*
X10681603Y-10721610D01*
X10681603Y-10721610D02*
X10691127Y-10740658D01*
X10691127Y-10740658D02*
X10700651Y-10778753D01*
X10700651Y-10778753D02*
X10700651Y-10826372D01*
X10700651Y-10826372D02*
X10691127Y-10864467D01*
X10691127Y-10864467D02*
X10681603Y-10883515D01*
X10681603Y-10883515D02*
X10672079Y-10893039D01*
X10672079Y-10893039D02*
X10653032Y-10902562D01*
X10653032Y-10902562D02*
X10633984Y-10902562D01*
X10633984Y-10902562D02*
X10614936Y-10893039D01*
X10614936Y-10893039D02*
X10605413Y-10883515D01*
X10605413Y-10883515D02*
X10595889Y-10864467D01*
X10595889Y-10864467D02*
X10586365Y-10826372D01*
X10586365Y-10826372D02*
X10586365Y-10778753D01*
X10586365Y-10778753D02*
X10595889Y-10740658D01*
X10595889Y-10740658D02*
X10605413Y-10721610D01*
X10605413Y-10721610D02*
X10614936Y-10712086D01*
X10614936Y-10712086D02*
X10633984Y-10702562D01*
X10824460Y-10702562D02*
X10843508Y-10702562D01*
X10843508Y-10702562D02*
X10862555Y-10712086D01*
X10862555Y-10712086D02*
X10872079Y-10721610D01*
X10872079Y-10721610D02*
X10881603Y-10740658D01*
X10881603Y-10740658D02*
X10891127Y-10778753D01*
X10891127Y-10778753D02*
X10891127Y-10826372D01*
X10891127Y-10826372D02*
X10881603Y-10864467D01*
X10881603Y-10864467D02*
X10872079Y-10883515D01*
X10872079Y-10883515D02*
X10862555Y-10893039D01*
X10862555Y-10893039D02*
X10843508Y-10902562D01*
X10843508Y-10902562D02*
X10824460Y-10902562D01*
X10824460Y-10902562D02*
X10805413Y-10893039D01*
X10805413Y-10893039D02*
X10795889Y-10883515D01*
X10795889Y-10883515D02*
X10786365Y-10864467D01*
X10786365Y-10864467D02*
X10776841Y-10826372D01*
X10776841Y-10826372D02*
X10776841Y-10778753D01*
X10776841Y-10778753D02*
X10786365Y-10740658D01*
X10786365Y-10740658D02*
X10795889Y-10721610D01*
X10795889Y-10721610D02*
X10805413Y-10712086D01*
X10805413Y-10712086D02*
X10824460Y-10702562D01*
X10976841Y-10902562D02*
X10976841Y-10769229D01*
X10976841Y-10788277D02*
X10986365Y-10778753D01*
X10986365Y-10778753D02*
X11005413Y-10769229D01*
X11005413Y-10769229D02*
X11033984Y-10769229D01*
X11033984Y-10769229D02*
X11053032Y-10778753D01*
X11053032Y-10778753D02*
X11062555Y-10797801D01*
X11062555Y-10797801D02*
X11062555Y-10902562D01*
X11062555Y-10797801D02*
X11072079Y-10778753D01*
X11072079Y-10778753D02*
X11091127Y-10769229D01*
X11091127Y-10769229D02*
X11119698Y-10769229D01*
X11119698Y-10769229D02*
X11138746Y-10778753D01*
X11138746Y-10778753D02*
X11148270Y-10797801D01*
X11148270Y-10797801D02*
X11148270Y-10902562D01*
X11243508Y-10902562D02*
X11243508Y-10769229D01*
X11243508Y-10788277D02*
X11253032Y-10778753D01*
X11253032Y-10778753D02*
X11272079Y-10769229D01*
X11272079Y-10769229D02*
X11300651Y-10769229D01*
X11300651Y-10769229D02*
X11319698Y-10778753D01*
X11319698Y-10778753D02*
X11329222Y-10797801D01*
X11329222Y-10797801D02*
X11329222Y-10902562D01*
X11329222Y-10797801D02*
X11338746Y-10778753D01*
X11338746Y-10778753D02*
X11357793Y-10769229D01*
X11357793Y-10769229D02*
X11386365Y-10769229D01*
X11386365Y-10769229D02*
X11405413Y-10778753D01*
X11405413Y-10778753D02*
X11414936Y-10797801D01*
X11414936Y-10797801D02*
X11414936Y-10902562D01*
X11805413Y-10693039D02*
X11633984Y-10950181D01*
X12062555Y-10702562D02*
X12081603Y-10702562D01*
X12081603Y-10702562D02*
X12100651Y-10712086D01*
X12100651Y-10712086D02*
X12110175Y-10721610D01*
X12110175Y-10721610D02*
X12119698Y-10740658D01*
X12119698Y-10740658D02*
X12129222Y-10778753D01*
X12129222Y-10778753D02*
X12129222Y-10826372D01*
X12129222Y-10826372D02*
X12119698Y-10864467D01*
X12119698Y-10864467D02*
X12110175Y-10883515D01*
X12110175Y-10883515D02*
X12100651Y-10893039D01*
X12100651Y-10893039D02*
X12081603Y-10902562D01*
X12081603Y-10902562D02*
X12062555Y-10902562D01*
X12062555Y-10902562D02*
X12043508Y-10893039D01*
X12043508Y-10893039D02*
X12033984Y-10883515D01*
X12033984Y-10883515D02*
X12024460Y-10864467D01*
X12024460Y-10864467D02*
X12014936Y-10826372D01*
X12014936Y-10826372D02*
X12014936Y-10778753D01*
X12014936Y-10778753D02*
X12024460Y-10740658D01*
X12024460Y-10740658D02*
X12033984Y-10721610D01*
X12033984Y-10721610D02*
X12043508Y-10712086D01*
X12043508Y-10712086D02*
X12062555Y-10702562D01*
X12214936Y-10883515D02*
X12224460Y-10893039D01*
X12224460Y-10893039D02*
X12214936Y-10902562D01*
X12214936Y-10902562D02*
X12205413Y-10893039D01*
X12205413Y-10893039D02*
X12214936Y-10883515D01*
X12214936Y-10883515D02*
X12214936Y-10902562D01*
X12348270Y-10702562D02*
X12367317Y-10702562D01*
X12367317Y-10702562D02*
X12386365Y-10712086D01*
X12386365Y-10712086D02*
X12395889Y-10721610D01*
X12395889Y-10721610D02*
X12405413Y-10740658D01*
X12405413Y-10740658D02*
X12414936Y-10778753D01*
X12414936Y-10778753D02*
X12414936Y-10826372D01*
X12414936Y-10826372D02*
X12405413Y-10864467D01*
X12405413Y-10864467D02*
X12395889Y-10883515D01*
X12395889Y-10883515D02*
X12386365Y-10893039D01*
X12386365Y-10893039D02*
X12367317Y-10902562D01*
X12367317Y-10902562D02*
X12348270Y-10902562D01*
X12348270Y-10902562D02*
X12329222Y-10893039D01*
X12329222Y-10893039D02*
X12319698Y-10883515D01*
X12319698Y-10883515D02*
X12310175Y-10864467D01*
X12310175Y-10864467D02*
X12300651Y-10826372D01*
X12300651Y-10826372D02*
X12300651Y-10778753D01*
X12300651Y-10778753D02*
X12310175Y-10740658D01*
X12310175Y-10740658D02*
X12319698Y-10721610D01*
X12319698Y-10721610D02*
X12329222Y-10712086D01*
X12329222Y-10712086D02*
X12348270Y-10702562D01*
X12605413Y-10902562D02*
X12491127Y-10902562D01*
X12548270Y-10902562D02*
X12548270Y-10702562D01*
X12548270Y-10702562D02*
X12529222Y-10731134D01*
X12529222Y-10731134D02*
X12510175Y-10750181D01*
X12510175Y-10750181D02*
X12491127Y-10759705D01*
X12795889Y-10902562D02*
X12681603Y-10902562D01*
X12738746Y-10902562D02*
X12738746Y-10702562D01*
X12738746Y-10702562D02*
X12719698Y-10731134D01*
X12719698Y-10731134D02*
X12700651Y-10750181D01*
X12700651Y-10750181D02*
X12681603Y-10759705D01*
X12910175Y-10788277D02*
X12891127Y-10778753D01*
X12891127Y-10778753D02*
X12881603Y-10769229D01*
X12881603Y-10769229D02*
X12872079Y-10750181D01*
X12872079Y-10750181D02*
X12872079Y-10740658D01*
X12872079Y-10740658D02*
X12881603Y-10721610D01*
X12881603Y-10721610D02*
X12891127Y-10712086D01*
X12891127Y-10712086D02*
X12910175Y-10702562D01*
X12910175Y-10702562D02*
X12948270Y-10702562D01*
X12948270Y-10702562D02*
X12967317Y-10712086D01*
X12967317Y-10712086D02*
X12976841Y-10721610D01*
X12976841Y-10721610D02*
X12986365Y-10740658D01*
X12986365Y-10740658D02*
X12986365Y-10750181D01*
X12986365Y-10750181D02*
X12976841Y-10769229D01*
X12976841Y-10769229D02*
X12967317Y-10778753D01*
X12967317Y-10778753D02*
X12948270Y-10788277D01*
X12948270Y-10788277D02*
X12910175Y-10788277D01*
X12910175Y-10788277D02*
X12891127Y-10797801D01*
X12891127Y-10797801D02*
X12881603Y-10807324D01*
X12881603Y-10807324D02*
X12872079Y-10826372D01*
X12872079Y-10826372D02*
X12872079Y-10864467D01*
X12872079Y-10864467D02*
X12881603Y-10883515D01*
X12881603Y-10883515D02*
X12891127Y-10893039D01*
X12891127Y-10893039D02*
X12910175Y-10902562D01*
X12910175Y-10902562D02*
X12948270Y-10902562D01*
X12948270Y-10902562D02*
X12967317Y-10893039D01*
X12967317Y-10893039D02*
X12976841Y-10883515D01*
X12976841Y-10883515D02*
X12986365Y-10864467D01*
X12986365Y-10864467D02*
X12986365Y-10826372D01*
X12986365Y-10826372D02*
X12976841Y-10807324D01*
X12976841Y-10807324D02*
X12967317Y-10797801D01*
X12967317Y-10797801D02*
X12948270Y-10788277D01*
X13062556Y-10702562D02*
X13062556Y-10740658D01*
X13138746Y-10702562D02*
X13138746Y-10740658D01*
X13433984Y-10978753D02*
X13424460Y-10969229D01*
X13424460Y-10969229D02*
X13405413Y-10940658D01*
X13405413Y-10940658D02*
X13395889Y-10921610D01*
X13395889Y-10921610D02*
X13386365Y-10893039D01*
X13386365Y-10893039D02*
X13376841Y-10845420D01*
X13376841Y-10845420D02*
X13376841Y-10807324D01*
X13376841Y-10807324D02*
X13386365Y-10759705D01*
X13386365Y-10759705D02*
X13395889Y-10731134D01*
X13395889Y-10731134D02*
X13405413Y-10712086D01*
X13405413Y-10712086D02*
X13424460Y-10683515D01*
X13424460Y-10683515D02*
X13433984Y-10673991D01*
X13614937Y-10902562D02*
X13500651Y-10902562D01*
X13557794Y-10902562D02*
X13557794Y-10702562D01*
X13557794Y-10702562D02*
X13538746Y-10731134D01*
X13538746Y-10731134D02*
X13519698Y-10750181D01*
X13519698Y-10750181D02*
X13500651Y-10759705D01*
X13681603Y-10702562D02*
X13805413Y-10702562D01*
X13805413Y-10702562D02*
X13738746Y-10778753D01*
X13738746Y-10778753D02*
X13767318Y-10778753D01*
X13767318Y-10778753D02*
X13786365Y-10788277D01*
X13786365Y-10788277D02*
X13795889Y-10797801D01*
X13795889Y-10797801D02*
X13805413Y-10816848D01*
X13805413Y-10816848D02*
X13805413Y-10864467D01*
X13805413Y-10864467D02*
X13795889Y-10883515D01*
X13795889Y-10883515D02*
X13786365Y-10893039D01*
X13786365Y-10893039D02*
X13767318Y-10902562D01*
X13767318Y-10902562D02*
X13710175Y-10902562D01*
X13710175Y-10902562D02*
X13691127Y-10893039D01*
X13691127Y-10893039D02*
X13681603Y-10883515D01*
X14043508Y-10902562D02*
X14043508Y-10702562D01*
X14129222Y-10902562D02*
X14129222Y-10797801D01*
X14129222Y-10797801D02*
X14119699Y-10778753D01*
X14119699Y-10778753D02*
X14100651Y-10769229D01*
X14100651Y-10769229D02*
X14072079Y-10769229D01*
X14072079Y-10769229D02*
X14053032Y-10778753D01*
X14053032Y-10778753D02*
X14043508Y-10788277D01*
X14253032Y-10902562D02*
X14233984Y-10893039D01*
X14233984Y-10893039D02*
X14224460Y-10883515D01*
X14224460Y-10883515D02*
X14214937Y-10864467D01*
X14214937Y-10864467D02*
X14214937Y-10807324D01*
X14214937Y-10807324D02*
X14224460Y-10788277D01*
X14224460Y-10788277D02*
X14233984Y-10778753D01*
X14233984Y-10778753D02*
X14253032Y-10769229D01*
X14253032Y-10769229D02*
X14281603Y-10769229D01*
X14281603Y-10769229D02*
X14300651Y-10778753D01*
X14300651Y-10778753D02*
X14310175Y-10788277D01*
X14310175Y-10788277D02*
X14319699Y-10807324D01*
X14319699Y-10807324D02*
X14319699Y-10864467D01*
X14319699Y-10864467D02*
X14310175Y-10883515D01*
X14310175Y-10883515D02*
X14300651Y-10893039D01*
X14300651Y-10893039D02*
X14281603Y-10902562D01*
X14281603Y-10902562D02*
X14253032Y-10902562D01*
X14433984Y-10902562D02*
X14414937Y-10893039D01*
X14414937Y-10893039D02*
X14405413Y-10873991D01*
X14405413Y-10873991D02*
X14405413Y-10702562D01*
X14586365Y-10893039D02*
X14567318Y-10902562D01*
X14567318Y-10902562D02*
X14529222Y-10902562D01*
X14529222Y-10902562D02*
X14510175Y-10893039D01*
X14510175Y-10893039D02*
X14500651Y-10873991D01*
X14500651Y-10873991D02*
X14500651Y-10797801D01*
X14500651Y-10797801D02*
X14510175Y-10778753D01*
X14510175Y-10778753D02*
X14529222Y-10769229D01*
X14529222Y-10769229D02*
X14567318Y-10769229D01*
X14567318Y-10769229D02*
X14586365Y-10778753D01*
X14586365Y-10778753D02*
X14595889Y-10797801D01*
X14595889Y-10797801D02*
X14595889Y-10816848D01*
X14595889Y-10816848D02*
X14500651Y-10835896D01*
X14672080Y-10893039D02*
X14691127Y-10902562D01*
X14691127Y-10902562D02*
X14729222Y-10902562D01*
X14729222Y-10902562D02*
X14748270Y-10893039D01*
X14748270Y-10893039D02*
X14757794Y-10873991D01*
X14757794Y-10873991D02*
X14757794Y-10864467D01*
X14757794Y-10864467D02*
X14748270Y-10845420D01*
X14748270Y-10845420D02*
X14729222Y-10835896D01*
X14729222Y-10835896D02*
X14700651Y-10835896D01*
X14700651Y-10835896D02*
X14681603Y-10826372D01*
X14681603Y-10826372D02*
X14672080Y-10807324D01*
X14672080Y-10807324D02*
X14672080Y-10797801D01*
X14672080Y-10797801D02*
X14681603Y-10778753D01*
X14681603Y-10778753D02*
X14700651Y-10769229D01*
X14700651Y-10769229D02*
X14729222Y-10769229D01*
X14729222Y-10769229D02*
X14748270Y-10778753D01*
X14824461Y-10978753D02*
X14833984Y-10969229D01*
X14833984Y-10969229D02*
X14853032Y-10940658D01*
X14853032Y-10940658D02*
X14862556Y-10921610D01*
X14862556Y-10921610D02*
X14872080Y-10893039D01*
X14872080Y-10893039D02*
X14881603Y-10845420D01*
X14881603Y-10845420D02*
X14881603Y-10807324D01*
X14881603Y-10807324D02*
X14872080Y-10759705D01*
X14872080Y-10759705D02*
X14862556Y-10731134D01*
X14862556Y-10731134D02*
X14853032Y-10712086D01*
X14853032Y-10712086D02*
X14833984Y-10683515D01*
X14833984Y-10683515D02*
X14824461Y-10673991D01*
D12*
X9858921Y-11075079D02*
G75*
G02*
X9758921Y-11075079I-50000J0D01*
G01*
X9758921Y-11075079D02*
G75*
G02*
X9858921Y-11075079I50000J0D01*
G01*
D11*
X10224460Y-11166562D02*
X10110174Y-11166562D01*
X10167317Y-11166562D02*
X10167317Y-10966562D01*
X10167317Y-10966562D02*
X10148270Y-10995134D01*
X10148270Y-10995134D02*
X10129222Y-11014181D01*
X10129222Y-11014181D02*
X10110174Y-11023705D01*
X10310174Y-11147515D02*
X10319698Y-11157039D01*
X10319698Y-11157039D02*
X10310174Y-11166562D01*
X10310174Y-11166562D02*
X10300651Y-11157039D01*
X10300651Y-11157039D02*
X10310174Y-11147515D01*
X10310174Y-11147515D02*
X10310174Y-11166562D01*
X10443508Y-10966562D02*
X10462555Y-10966562D01*
X10462555Y-10966562D02*
X10481603Y-10976086D01*
X10481603Y-10976086D02*
X10491127Y-10985610D01*
X10491127Y-10985610D02*
X10500651Y-11004658D01*
X10500651Y-11004658D02*
X10510174Y-11042753D01*
X10510174Y-11042753D02*
X10510174Y-11090372D01*
X10510174Y-11090372D02*
X10500651Y-11128467D01*
X10500651Y-11128467D02*
X10491127Y-11147515D01*
X10491127Y-11147515D02*
X10481603Y-11157039D01*
X10481603Y-11157039D02*
X10462555Y-11166562D01*
X10462555Y-11166562D02*
X10443508Y-11166562D01*
X10443508Y-11166562D02*
X10424460Y-11157039D01*
X10424460Y-11157039D02*
X10414936Y-11147515D01*
X10414936Y-11147515D02*
X10405413Y-11128467D01*
X10405413Y-11128467D02*
X10395889Y-11090372D01*
X10395889Y-11090372D02*
X10395889Y-11042753D01*
X10395889Y-11042753D02*
X10405413Y-11004658D01*
X10405413Y-11004658D02*
X10414936Y-10985610D01*
X10414936Y-10985610D02*
X10424460Y-10976086D01*
X10424460Y-10976086D02*
X10443508Y-10966562D01*
X10633984Y-10966562D02*
X10653032Y-10966562D01*
X10653032Y-10966562D02*
X10672079Y-10976086D01*
X10672079Y-10976086D02*
X10681603Y-10985610D01*
X10681603Y-10985610D02*
X10691127Y-11004658D01*
X10691127Y-11004658D02*
X10700651Y-11042753D01*
X10700651Y-11042753D02*
X10700651Y-11090372D01*
X10700651Y-11090372D02*
X10691127Y-11128467D01*
X10691127Y-11128467D02*
X10681603Y-11147515D01*
X10681603Y-11147515D02*
X10672079Y-11157039D01*
X10672079Y-11157039D02*
X10653032Y-11166562D01*
X10653032Y-11166562D02*
X10633984Y-11166562D01*
X10633984Y-11166562D02*
X10614936Y-11157039D01*
X10614936Y-11157039D02*
X10605413Y-11147515D01*
X10605413Y-11147515D02*
X10595889Y-11128467D01*
X10595889Y-11128467D02*
X10586365Y-11090372D01*
X10586365Y-11090372D02*
X10586365Y-11042753D01*
X10586365Y-11042753D02*
X10595889Y-11004658D01*
X10595889Y-11004658D02*
X10605413Y-10985610D01*
X10605413Y-10985610D02*
X10614936Y-10976086D01*
X10614936Y-10976086D02*
X10633984Y-10966562D01*
X10824460Y-10966562D02*
X10843508Y-10966562D01*
X10843508Y-10966562D02*
X10862555Y-10976086D01*
X10862555Y-10976086D02*
X10872079Y-10985610D01*
X10872079Y-10985610D02*
X10881603Y-11004658D01*
X10881603Y-11004658D02*
X10891127Y-11042753D01*
X10891127Y-11042753D02*
X10891127Y-11090372D01*
X10891127Y-11090372D02*
X10881603Y-11128467D01*
X10881603Y-11128467D02*
X10872079Y-11147515D01*
X10872079Y-11147515D02*
X10862555Y-11157039D01*
X10862555Y-11157039D02*
X10843508Y-11166562D01*
X10843508Y-11166562D02*
X10824460Y-11166562D01*
X10824460Y-11166562D02*
X10805413Y-11157039D01*
X10805413Y-11157039D02*
X10795889Y-11147515D01*
X10795889Y-11147515D02*
X10786365Y-11128467D01*
X10786365Y-11128467D02*
X10776841Y-11090372D01*
X10776841Y-11090372D02*
X10776841Y-11042753D01*
X10776841Y-11042753D02*
X10786365Y-11004658D01*
X10786365Y-11004658D02*
X10795889Y-10985610D01*
X10795889Y-10985610D02*
X10805413Y-10976086D01*
X10805413Y-10976086D02*
X10824460Y-10966562D01*
X10976841Y-11166562D02*
X10976841Y-11033229D01*
X10976841Y-11052277D02*
X10986365Y-11042753D01*
X10986365Y-11042753D02*
X11005413Y-11033229D01*
X11005413Y-11033229D02*
X11033984Y-11033229D01*
X11033984Y-11033229D02*
X11053032Y-11042753D01*
X11053032Y-11042753D02*
X11062555Y-11061801D01*
X11062555Y-11061801D02*
X11062555Y-11166562D01*
X11062555Y-11061801D02*
X11072079Y-11042753D01*
X11072079Y-11042753D02*
X11091127Y-11033229D01*
X11091127Y-11033229D02*
X11119698Y-11033229D01*
X11119698Y-11033229D02*
X11138746Y-11042753D01*
X11138746Y-11042753D02*
X11148270Y-11061801D01*
X11148270Y-11061801D02*
X11148270Y-11166562D01*
X11243508Y-11166562D02*
X11243508Y-11033229D01*
X11243508Y-11052277D02*
X11253032Y-11042753D01*
X11253032Y-11042753D02*
X11272079Y-11033229D01*
X11272079Y-11033229D02*
X11300651Y-11033229D01*
X11300651Y-11033229D02*
X11319698Y-11042753D01*
X11319698Y-11042753D02*
X11329222Y-11061801D01*
X11329222Y-11061801D02*
X11329222Y-11166562D01*
X11329222Y-11061801D02*
X11338746Y-11042753D01*
X11338746Y-11042753D02*
X11357793Y-11033229D01*
X11357793Y-11033229D02*
X11386365Y-11033229D01*
X11386365Y-11033229D02*
X11405413Y-11042753D01*
X11405413Y-11042753D02*
X11414936Y-11061801D01*
X11414936Y-11061801D02*
X11414936Y-11166562D01*
X11805413Y-10957039D02*
X11633984Y-11214181D01*
X12062555Y-10966562D02*
X12081603Y-10966562D01*
X12081603Y-10966562D02*
X12100651Y-10976086D01*
X12100651Y-10976086D02*
X12110175Y-10985610D01*
X12110175Y-10985610D02*
X12119698Y-11004658D01*
X12119698Y-11004658D02*
X12129222Y-11042753D01*
X12129222Y-11042753D02*
X12129222Y-11090372D01*
X12129222Y-11090372D02*
X12119698Y-11128467D01*
X12119698Y-11128467D02*
X12110175Y-11147515D01*
X12110175Y-11147515D02*
X12100651Y-11157039D01*
X12100651Y-11157039D02*
X12081603Y-11166562D01*
X12081603Y-11166562D02*
X12062555Y-11166562D01*
X12062555Y-11166562D02*
X12043508Y-11157039D01*
X12043508Y-11157039D02*
X12033984Y-11147515D01*
X12033984Y-11147515D02*
X12024460Y-11128467D01*
X12024460Y-11128467D02*
X12014936Y-11090372D01*
X12014936Y-11090372D02*
X12014936Y-11042753D01*
X12014936Y-11042753D02*
X12024460Y-11004658D01*
X12024460Y-11004658D02*
X12033984Y-10985610D01*
X12033984Y-10985610D02*
X12043508Y-10976086D01*
X12043508Y-10976086D02*
X12062555Y-10966562D01*
X12214936Y-11147515D02*
X12224460Y-11157039D01*
X12224460Y-11157039D02*
X12214936Y-11166562D01*
X12214936Y-11166562D02*
X12205413Y-11157039D01*
X12205413Y-11157039D02*
X12214936Y-11147515D01*
X12214936Y-11147515D02*
X12214936Y-11166562D01*
X12348270Y-10966562D02*
X12367317Y-10966562D01*
X12367317Y-10966562D02*
X12386365Y-10976086D01*
X12386365Y-10976086D02*
X12395889Y-10985610D01*
X12395889Y-10985610D02*
X12405413Y-11004658D01*
X12405413Y-11004658D02*
X12414936Y-11042753D01*
X12414936Y-11042753D02*
X12414936Y-11090372D01*
X12414936Y-11090372D02*
X12405413Y-11128467D01*
X12405413Y-11128467D02*
X12395889Y-11147515D01*
X12395889Y-11147515D02*
X12386365Y-11157039D01*
X12386365Y-11157039D02*
X12367317Y-11166562D01*
X12367317Y-11166562D02*
X12348270Y-11166562D01*
X12348270Y-11166562D02*
X12329222Y-11157039D01*
X12329222Y-11157039D02*
X12319698Y-11147515D01*
X12319698Y-11147515D02*
X12310175Y-11128467D01*
X12310175Y-11128467D02*
X12300651Y-11090372D01*
X12300651Y-11090372D02*
X12300651Y-11042753D01*
X12300651Y-11042753D02*
X12310175Y-11004658D01*
X12310175Y-11004658D02*
X12319698Y-10985610D01*
X12319698Y-10985610D02*
X12329222Y-10976086D01*
X12329222Y-10976086D02*
X12348270Y-10966562D01*
X12481603Y-10966562D02*
X12605413Y-10966562D01*
X12605413Y-10966562D02*
X12538746Y-11042753D01*
X12538746Y-11042753D02*
X12567317Y-11042753D01*
X12567317Y-11042753D02*
X12586365Y-11052277D01*
X12586365Y-11052277D02*
X12595889Y-11061801D01*
X12595889Y-11061801D02*
X12605413Y-11080848D01*
X12605413Y-11080848D02*
X12605413Y-11128467D01*
X12605413Y-11128467D02*
X12595889Y-11147515D01*
X12595889Y-11147515D02*
X12586365Y-11157039D01*
X12586365Y-11157039D02*
X12567317Y-11166562D01*
X12567317Y-11166562D02*
X12510175Y-11166562D01*
X12510175Y-11166562D02*
X12491127Y-11157039D01*
X12491127Y-11157039D02*
X12481603Y-11147515D01*
X12700651Y-11166562D02*
X12738746Y-11166562D01*
X12738746Y-11166562D02*
X12757794Y-11157039D01*
X12757794Y-11157039D02*
X12767317Y-11147515D01*
X12767317Y-11147515D02*
X12786365Y-11118943D01*
X12786365Y-11118943D02*
X12795889Y-11080848D01*
X12795889Y-11080848D02*
X12795889Y-11004658D01*
X12795889Y-11004658D02*
X12786365Y-10985610D01*
X12786365Y-10985610D02*
X12776841Y-10976086D01*
X12776841Y-10976086D02*
X12757794Y-10966562D01*
X12757794Y-10966562D02*
X12719698Y-10966562D01*
X12719698Y-10966562D02*
X12700651Y-10976086D01*
X12700651Y-10976086D02*
X12691127Y-10985610D01*
X12691127Y-10985610D02*
X12681603Y-11004658D01*
X12681603Y-11004658D02*
X12681603Y-11052277D01*
X12681603Y-11052277D02*
X12691127Y-11071324D01*
X12691127Y-11071324D02*
X12700651Y-11080848D01*
X12700651Y-11080848D02*
X12719698Y-11090372D01*
X12719698Y-11090372D02*
X12757794Y-11090372D01*
X12757794Y-11090372D02*
X12776841Y-11080848D01*
X12776841Y-11080848D02*
X12786365Y-11071324D01*
X12786365Y-11071324D02*
X12795889Y-11052277D01*
X12967317Y-11033229D02*
X12967317Y-11166562D01*
X12919698Y-10957039D02*
X12872079Y-11099896D01*
X12872079Y-11099896D02*
X12995889Y-11099896D01*
X13062556Y-10966562D02*
X13062556Y-11004658D01*
X13138746Y-10966562D02*
X13138746Y-11004658D01*
X13433984Y-11242753D02*
X13424460Y-11233229D01*
X13424460Y-11233229D02*
X13405413Y-11204658D01*
X13405413Y-11204658D02*
X13395889Y-11185610D01*
X13395889Y-11185610D02*
X13386365Y-11157039D01*
X13386365Y-11157039D02*
X13376841Y-11109420D01*
X13376841Y-11109420D02*
X13376841Y-11071324D01*
X13376841Y-11071324D02*
X13386365Y-11023705D01*
X13386365Y-11023705D02*
X13395889Y-10995134D01*
X13395889Y-10995134D02*
X13405413Y-10976086D01*
X13405413Y-10976086D02*
X13424460Y-10947515D01*
X13424460Y-10947515D02*
X13433984Y-10937991D01*
X13500651Y-10985610D02*
X13510175Y-10976086D01*
X13510175Y-10976086D02*
X13529222Y-10966562D01*
X13529222Y-10966562D02*
X13576841Y-10966562D01*
X13576841Y-10966562D02*
X13595889Y-10976086D01*
X13595889Y-10976086D02*
X13605413Y-10985610D01*
X13605413Y-10985610D02*
X13614937Y-11004658D01*
X13614937Y-11004658D02*
X13614937Y-11023705D01*
X13614937Y-11023705D02*
X13605413Y-11052277D01*
X13605413Y-11052277D02*
X13491127Y-11166562D01*
X13491127Y-11166562D02*
X13614937Y-11166562D01*
X13681603Y-10966562D02*
X13814937Y-10966562D01*
X13814937Y-10966562D02*
X13729222Y-11166562D01*
X14043508Y-11166562D02*
X14043508Y-10966562D01*
X14129222Y-11166562D02*
X14129222Y-11061801D01*
X14129222Y-11061801D02*
X14119699Y-11042753D01*
X14119699Y-11042753D02*
X14100651Y-11033229D01*
X14100651Y-11033229D02*
X14072079Y-11033229D01*
X14072079Y-11033229D02*
X14053032Y-11042753D01*
X14053032Y-11042753D02*
X14043508Y-11052277D01*
X14253032Y-11166562D02*
X14233984Y-11157039D01*
X14233984Y-11157039D02*
X14224460Y-11147515D01*
X14224460Y-11147515D02*
X14214937Y-11128467D01*
X14214937Y-11128467D02*
X14214937Y-11071324D01*
X14214937Y-11071324D02*
X14224460Y-11052277D01*
X14224460Y-11052277D02*
X14233984Y-11042753D01*
X14233984Y-11042753D02*
X14253032Y-11033229D01*
X14253032Y-11033229D02*
X14281603Y-11033229D01*
X14281603Y-11033229D02*
X14300651Y-11042753D01*
X14300651Y-11042753D02*
X14310175Y-11052277D01*
X14310175Y-11052277D02*
X14319699Y-11071324D01*
X14319699Y-11071324D02*
X14319699Y-11128467D01*
X14319699Y-11128467D02*
X14310175Y-11147515D01*
X14310175Y-11147515D02*
X14300651Y-11157039D01*
X14300651Y-11157039D02*
X14281603Y-11166562D01*
X14281603Y-11166562D02*
X14253032Y-11166562D01*
X14433984Y-11166562D02*
X14414937Y-11157039D01*
X14414937Y-11157039D02*
X14405413Y-11137991D01*
X14405413Y-11137991D02*
X14405413Y-10966562D01*
X14586365Y-11157039D02*
X14567318Y-11166562D01*
X14567318Y-11166562D02*
X14529222Y-11166562D01*
X14529222Y-11166562D02*
X14510175Y-11157039D01*
X14510175Y-11157039D02*
X14500651Y-11137991D01*
X14500651Y-11137991D02*
X14500651Y-11061801D01*
X14500651Y-11061801D02*
X14510175Y-11042753D01*
X14510175Y-11042753D02*
X14529222Y-11033229D01*
X14529222Y-11033229D02*
X14567318Y-11033229D01*
X14567318Y-11033229D02*
X14586365Y-11042753D01*
X14586365Y-11042753D02*
X14595889Y-11061801D01*
X14595889Y-11061801D02*
X14595889Y-11080848D01*
X14595889Y-11080848D02*
X14500651Y-11099896D01*
X14672080Y-11157039D02*
X14691127Y-11166562D01*
X14691127Y-11166562D02*
X14729222Y-11166562D01*
X14729222Y-11166562D02*
X14748270Y-11157039D01*
X14748270Y-11157039D02*
X14757794Y-11137991D01*
X14757794Y-11137991D02*
X14757794Y-11128467D01*
X14757794Y-11128467D02*
X14748270Y-11109420D01*
X14748270Y-11109420D02*
X14729222Y-11099896D01*
X14729222Y-11099896D02*
X14700651Y-11099896D01*
X14700651Y-11099896D02*
X14681603Y-11090372D01*
X14681603Y-11090372D02*
X14672080Y-11071324D01*
X14672080Y-11071324D02*
X14672080Y-11061801D01*
X14672080Y-11061801D02*
X14681603Y-11042753D01*
X14681603Y-11042753D02*
X14700651Y-11033229D01*
X14700651Y-11033229D02*
X14729222Y-11033229D01*
X14729222Y-11033229D02*
X14748270Y-11042753D01*
X14824461Y-11242753D02*
X14833984Y-11233229D01*
X14833984Y-11233229D02*
X14853032Y-11204658D01*
X14853032Y-11204658D02*
X14862556Y-11185610D01*
X14862556Y-11185610D02*
X14872080Y-11157039D01*
X14872080Y-11157039D02*
X14881603Y-11109420D01*
X14881603Y-11109420D02*
X14881603Y-11071324D01*
X14881603Y-11071324D02*
X14872080Y-11023705D01*
X14872080Y-11023705D02*
X14862556Y-10995134D01*
X14862556Y-10995134D02*
X14853032Y-10976086D01*
X14853032Y-10976086D02*
X14833984Y-10947515D01*
X14833984Y-10947515D02*
X14824461Y-10937991D01*
M02*
