%TF.GenerationSoftware,KiCad,Pcbnew,8.0.6*%
%TF.CreationDate,2024-11-24T13:18:03-08:00*%
%TF.ProjectId,pic32_breakout,70696333-325f-4627-9265-616b6f75742e,rev?*%
%TF.SameCoordinates,Original*%
%TF.FileFunction,Legend,Top*%
%TF.FilePolarity,Positive*%
%FSLAX46Y46*%
G04 Gerber Fmt 4.6, Leading zero omitted, Abs format (unit mm)*
G04 Created by KiCad (PCBNEW 8.0.6) date 2024-11-24 13:18:03*
%MOMM*%
%LPD*%
G01*
G04 APERTURE LIST*
%ADD10C,0.100000*%
%ADD11C,0.150000*%
%ADD12C,0.120000*%
%ADD13C,0.152400*%
%ADD14C,0.000000*%
G04 APERTURE END LIST*
D10*
X110046150Y-82585209D02*
X109879484Y-82347114D01*
X109760436Y-82585209D02*
X109760436Y-82085209D01*
X109760436Y-82085209D02*
X109950912Y-82085209D01*
X109950912Y-82085209D02*
X109998531Y-82109019D01*
X109998531Y-82109019D02*
X110022341Y-82132828D01*
X110022341Y-82132828D02*
X110046150Y-82180447D01*
X110046150Y-82180447D02*
X110046150Y-82251876D01*
X110046150Y-82251876D02*
X110022341Y-82299495D01*
X110022341Y-82299495D02*
X109998531Y-82323304D01*
X109998531Y-82323304D02*
X109950912Y-82347114D01*
X109950912Y-82347114D02*
X109760436Y-82347114D01*
X110427103Y-82323304D02*
X110498531Y-82347114D01*
X110498531Y-82347114D02*
X110522341Y-82370923D01*
X110522341Y-82370923D02*
X110546150Y-82418542D01*
X110546150Y-82418542D02*
X110546150Y-82489971D01*
X110546150Y-82489971D02*
X110522341Y-82537590D01*
X110522341Y-82537590D02*
X110498531Y-82561400D01*
X110498531Y-82561400D02*
X110450912Y-82585209D01*
X110450912Y-82585209D02*
X110260436Y-82585209D01*
X110260436Y-82585209D02*
X110260436Y-82085209D01*
X110260436Y-82085209D02*
X110427103Y-82085209D01*
X110427103Y-82085209D02*
X110474722Y-82109019D01*
X110474722Y-82109019D02*
X110498531Y-82132828D01*
X110498531Y-82132828D02*
X110522341Y-82180447D01*
X110522341Y-82180447D02*
X110522341Y-82228066D01*
X110522341Y-82228066D02*
X110498531Y-82275685D01*
X110498531Y-82275685D02*
X110474722Y-82299495D01*
X110474722Y-82299495D02*
X110427103Y-82323304D01*
X110427103Y-82323304D02*
X110260436Y-82323304D01*
X111022341Y-82585209D02*
X110736627Y-82585209D01*
X110879484Y-82585209D02*
X110879484Y-82085209D01*
X110879484Y-82085209D02*
X110831865Y-82156638D01*
X110831865Y-82156638D02*
X110784246Y-82204257D01*
X110784246Y-82204257D02*
X110736627Y-82228066D01*
X111212817Y-82132828D02*
X111236626Y-82109019D01*
X111236626Y-82109019D02*
X111284245Y-82085209D01*
X111284245Y-82085209D02*
X111403293Y-82085209D01*
X111403293Y-82085209D02*
X111450912Y-82109019D01*
X111450912Y-82109019D02*
X111474721Y-82132828D01*
X111474721Y-82132828D02*
X111498531Y-82180447D01*
X111498531Y-82180447D02*
X111498531Y-82228066D01*
X111498531Y-82228066D02*
X111474721Y-82299495D01*
X111474721Y-82299495D02*
X111189007Y-82585209D01*
X111189007Y-82585209D02*
X111498531Y-82585209D01*
X110046150Y-79994409D02*
X109879484Y-79756314D01*
X109760436Y-79994409D02*
X109760436Y-79494409D01*
X109760436Y-79494409D02*
X109950912Y-79494409D01*
X109950912Y-79494409D02*
X109998531Y-79518219D01*
X109998531Y-79518219D02*
X110022341Y-79542028D01*
X110022341Y-79542028D02*
X110046150Y-79589647D01*
X110046150Y-79589647D02*
X110046150Y-79661076D01*
X110046150Y-79661076D02*
X110022341Y-79708695D01*
X110022341Y-79708695D02*
X109998531Y-79732504D01*
X109998531Y-79732504D02*
X109950912Y-79756314D01*
X109950912Y-79756314D02*
X109760436Y-79756314D01*
X110427103Y-79732504D02*
X110498531Y-79756314D01*
X110498531Y-79756314D02*
X110522341Y-79780123D01*
X110522341Y-79780123D02*
X110546150Y-79827742D01*
X110546150Y-79827742D02*
X110546150Y-79899171D01*
X110546150Y-79899171D02*
X110522341Y-79946790D01*
X110522341Y-79946790D02*
X110498531Y-79970600D01*
X110498531Y-79970600D02*
X110450912Y-79994409D01*
X110450912Y-79994409D02*
X110260436Y-79994409D01*
X110260436Y-79994409D02*
X110260436Y-79494409D01*
X110260436Y-79494409D02*
X110427103Y-79494409D01*
X110427103Y-79494409D02*
X110474722Y-79518219D01*
X110474722Y-79518219D02*
X110498531Y-79542028D01*
X110498531Y-79542028D02*
X110522341Y-79589647D01*
X110522341Y-79589647D02*
X110522341Y-79637266D01*
X110522341Y-79637266D02*
X110498531Y-79684885D01*
X110498531Y-79684885D02*
X110474722Y-79708695D01*
X110474722Y-79708695D02*
X110427103Y-79732504D01*
X110427103Y-79732504D02*
X110260436Y-79732504D01*
X111022341Y-79994409D02*
X110736627Y-79994409D01*
X110879484Y-79994409D02*
X110879484Y-79494409D01*
X110879484Y-79494409D02*
X110831865Y-79565838D01*
X110831865Y-79565838D02*
X110784246Y-79613457D01*
X110784246Y-79613457D02*
X110736627Y-79637266D01*
X111189007Y-79494409D02*
X111498531Y-79494409D01*
X111498531Y-79494409D02*
X111331864Y-79684885D01*
X111331864Y-79684885D02*
X111403293Y-79684885D01*
X111403293Y-79684885D02*
X111450912Y-79708695D01*
X111450912Y-79708695D02*
X111474721Y-79732504D01*
X111474721Y-79732504D02*
X111498531Y-79780123D01*
X111498531Y-79780123D02*
X111498531Y-79899171D01*
X111498531Y-79899171D02*
X111474721Y-79946790D01*
X111474721Y-79946790D02*
X111450912Y-79970600D01*
X111450912Y-79970600D02*
X111403293Y-79994409D01*
X111403293Y-79994409D02*
X111260436Y-79994409D01*
X111260436Y-79994409D02*
X111212817Y-79970600D01*
X111212817Y-79970600D02*
X111189007Y-79946790D01*
X110046150Y-77454409D02*
X109879484Y-77216314D01*
X109760436Y-77454409D02*
X109760436Y-76954409D01*
X109760436Y-76954409D02*
X109950912Y-76954409D01*
X109950912Y-76954409D02*
X109998531Y-76978219D01*
X109998531Y-76978219D02*
X110022341Y-77002028D01*
X110022341Y-77002028D02*
X110046150Y-77049647D01*
X110046150Y-77049647D02*
X110046150Y-77121076D01*
X110046150Y-77121076D02*
X110022341Y-77168695D01*
X110022341Y-77168695D02*
X109998531Y-77192504D01*
X109998531Y-77192504D02*
X109950912Y-77216314D01*
X109950912Y-77216314D02*
X109760436Y-77216314D01*
X110427103Y-77192504D02*
X110498531Y-77216314D01*
X110498531Y-77216314D02*
X110522341Y-77240123D01*
X110522341Y-77240123D02*
X110546150Y-77287742D01*
X110546150Y-77287742D02*
X110546150Y-77359171D01*
X110546150Y-77359171D02*
X110522341Y-77406790D01*
X110522341Y-77406790D02*
X110498531Y-77430600D01*
X110498531Y-77430600D02*
X110450912Y-77454409D01*
X110450912Y-77454409D02*
X110260436Y-77454409D01*
X110260436Y-77454409D02*
X110260436Y-76954409D01*
X110260436Y-76954409D02*
X110427103Y-76954409D01*
X110427103Y-76954409D02*
X110474722Y-76978219D01*
X110474722Y-76978219D02*
X110498531Y-77002028D01*
X110498531Y-77002028D02*
X110522341Y-77049647D01*
X110522341Y-77049647D02*
X110522341Y-77097266D01*
X110522341Y-77097266D02*
X110498531Y-77144885D01*
X110498531Y-77144885D02*
X110474722Y-77168695D01*
X110474722Y-77168695D02*
X110427103Y-77192504D01*
X110427103Y-77192504D02*
X110260436Y-77192504D01*
X111022341Y-77454409D02*
X110736627Y-77454409D01*
X110879484Y-77454409D02*
X110879484Y-76954409D01*
X110879484Y-76954409D02*
X110831865Y-77025838D01*
X110831865Y-77025838D02*
X110784246Y-77073457D01*
X110784246Y-77073457D02*
X110736627Y-77097266D01*
X111450912Y-77121076D02*
X111450912Y-77454409D01*
X111331864Y-76930600D02*
X111212817Y-77287742D01*
X111212817Y-77287742D02*
X111522340Y-77287742D01*
X110046150Y-74863609D02*
X109879484Y-74625514D01*
X109760436Y-74863609D02*
X109760436Y-74363609D01*
X109760436Y-74363609D02*
X109950912Y-74363609D01*
X109950912Y-74363609D02*
X109998531Y-74387419D01*
X109998531Y-74387419D02*
X110022341Y-74411228D01*
X110022341Y-74411228D02*
X110046150Y-74458847D01*
X110046150Y-74458847D02*
X110046150Y-74530276D01*
X110046150Y-74530276D02*
X110022341Y-74577895D01*
X110022341Y-74577895D02*
X109998531Y-74601704D01*
X109998531Y-74601704D02*
X109950912Y-74625514D01*
X109950912Y-74625514D02*
X109760436Y-74625514D01*
X110427103Y-74601704D02*
X110498531Y-74625514D01*
X110498531Y-74625514D02*
X110522341Y-74649323D01*
X110522341Y-74649323D02*
X110546150Y-74696942D01*
X110546150Y-74696942D02*
X110546150Y-74768371D01*
X110546150Y-74768371D02*
X110522341Y-74815990D01*
X110522341Y-74815990D02*
X110498531Y-74839800D01*
X110498531Y-74839800D02*
X110450912Y-74863609D01*
X110450912Y-74863609D02*
X110260436Y-74863609D01*
X110260436Y-74863609D02*
X110260436Y-74363609D01*
X110260436Y-74363609D02*
X110427103Y-74363609D01*
X110427103Y-74363609D02*
X110474722Y-74387419D01*
X110474722Y-74387419D02*
X110498531Y-74411228D01*
X110498531Y-74411228D02*
X110522341Y-74458847D01*
X110522341Y-74458847D02*
X110522341Y-74506466D01*
X110522341Y-74506466D02*
X110498531Y-74554085D01*
X110498531Y-74554085D02*
X110474722Y-74577895D01*
X110474722Y-74577895D02*
X110427103Y-74601704D01*
X110427103Y-74601704D02*
X110260436Y-74601704D01*
X111022341Y-74863609D02*
X110736627Y-74863609D01*
X110879484Y-74863609D02*
X110879484Y-74363609D01*
X110879484Y-74363609D02*
X110831865Y-74435038D01*
X110831865Y-74435038D02*
X110784246Y-74482657D01*
X110784246Y-74482657D02*
X110736627Y-74506466D01*
X111474721Y-74363609D02*
X111236626Y-74363609D01*
X111236626Y-74363609D02*
X111212817Y-74601704D01*
X111212817Y-74601704D02*
X111236626Y-74577895D01*
X111236626Y-74577895D02*
X111284245Y-74554085D01*
X111284245Y-74554085D02*
X111403293Y-74554085D01*
X111403293Y-74554085D02*
X111450912Y-74577895D01*
X111450912Y-74577895D02*
X111474721Y-74601704D01*
X111474721Y-74601704D02*
X111498531Y-74649323D01*
X111498531Y-74649323D02*
X111498531Y-74768371D01*
X111498531Y-74768371D02*
X111474721Y-74815990D01*
X111474721Y-74815990D02*
X111450912Y-74839800D01*
X111450912Y-74839800D02*
X111403293Y-74863609D01*
X111403293Y-74863609D02*
X111284245Y-74863609D01*
X111284245Y-74863609D02*
X111236626Y-74839800D01*
X111236626Y-74839800D02*
X111212817Y-74815990D01*
X110784341Y-98517419D02*
X110736722Y-98493609D01*
X110736722Y-98493609D02*
X110665293Y-98493609D01*
X110665293Y-98493609D02*
X110593865Y-98517419D01*
X110593865Y-98517419D02*
X110546246Y-98565038D01*
X110546246Y-98565038D02*
X110522436Y-98612657D01*
X110522436Y-98612657D02*
X110498627Y-98707895D01*
X110498627Y-98707895D02*
X110498627Y-98779323D01*
X110498627Y-98779323D02*
X110522436Y-98874561D01*
X110522436Y-98874561D02*
X110546246Y-98922180D01*
X110546246Y-98922180D02*
X110593865Y-98969800D01*
X110593865Y-98969800D02*
X110665293Y-98993609D01*
X110665293Y-98993609D02*
X110712912Y-98993609D01*
X110712912Y-98993609D02*
X110784341Y-98969800D01*
X110784341Y-98969800D02*
X110808150Y-98945990D01*
X110808150Y-98945990D02*
X110808150Y-98779323D01*
X110808150Y-98779323D02*
X110712912Y-98779323D01*
X111022436Y-98993609D02*
X111022436Y-98493609D01*
X111022436Y-98493609D02*
X111308150Y-98993609D01*
X111308150Y-98993609D02*
X111308150Y-98493609D01*
X111546246Y-98993609D02*
X111546246Y-98493609D01*
X111546246Y-98493609D02*
X111665294Y-98493609D01*
X111665294Y-98493609D02*
X111736722Y-98517419D01*
X111736722Y-98517419D02*
X111784341Y-98565038D01*
X111784341Y-98565038D02*
X111808151Y-98612657D01*
X111808151Y-98612657D02*
X111831960Y-98707895D01*
X111831960Y-98707895D02*
X111831960Y-98779323D01*
X111831960Y-98779323D02*
X111808151Y-98874561D01*
X111808151Y-98874561D02*
X111784341Y-98922180D01*
X111784341Y-98922180D02*
X111736722Y-98969800D01*
X111736722Y-98969800D02*
X111665294Y-98993609D01*
X111665294Y-98993609D02*
X111546246Y-98993609D01*
X108318950Y-98993609D02*
X108152284Y-98755514D01*
X108033236Y-98993609D02*
X108033236Y-98493609D01*
X108033236Y-98493609D02*
X108223712Y-98493609D01*
X108223712Y-98493609D02*
X108271331Y-98517419D01*
X108271331Y-98517419D02*
X108295141Y-98541228D01*
X108295141Y-98541228D02*
X108318950Y-98588847D01*
X108318950Y-98588847D02*
X108318950Y-98660276D01*
X108318950Y-98660276D02*
X108295141Y-98707895D01*
X108295141Y-98707895D02*
X108271331Y-98731704D01*
X108271331Y-98731704D02*
X108223712Y-98755514D01*
X108223712Y-98755514D02*
X108033236Y-98755514D01*
X108485617Y-98493609D02*
X108818950Y-98993609D01*
X108818950Y-98493609D02*
X108485617Y-98993609D01*
X109009426Y-98993609D02*
X109009426Y-98493609D01*
X109009426Y-98493609D02*
X109128474Y-98493609D01*
X109128474Y-98493609D02*
X109199902Y-98517419D01*
X109199902Y-98517419D02*
X109247521Y-98565038D01*
X109247521Y-98565038D02*
X109271331Y-98612657D01*
X109271331Y-98612657D02*
X109295140Y-98707895D01*
X109295140Y-98707895D02*
X109295140Y-98779323D01*
X109295140Y-98779323D02*
X109271331Y-98874561D01*
X109271331Y-98874561D02*
X109247521Y-98922180D01*
X109247521Y-98922180D02*
X109199902Y-98969800D01*
X109199902Y-98969800D02*
X109128474Y-98993609D01*
X109128474Y-98993609D02*
X109009426Y-98993609D01*
X105523408Y-98442809D02*
X105809122Y-98442809D01*
X105666265Y-98942809D02*
X105666265Y-98442809D01*
X105928169Y-98442809D02*
X106261502Y-98942809D01*
X106261502Y-98442809D02*
X105928169Y-98942809D01*
X106451978Y-98942809D02*
X106451978Y-98442809D01*
X106451978Y-98442809D02*
X106571026Y-98442809D01*
X106571026Y-98442809D02*
X106642454Y-98466619D01*
X106642454Y-98466619D02*
X106690073Y-98514238D01*
X106690073Y-98514238D02*
X106713883Y-98561857D01*
X106713883Y-98561857D02*
X106737692Y-98657095D01*
X106737692Y-98657095D02*
X106737692Y-98728523D01*
X106737692Y-98728523D02*
X106713883Y-98823761D01*
X106713883Y-98823761D02*
X106690073Y-98871380D01*
X106690073Y-98871380D02*
X106642454Y-98919000D01*
X106642454Y-98919000D02*
X106571026Y-98942809D01*
X106571026Y-98942809D02*
X106451978Y-98942809D01*
X100565636Y-70393209D02*
X100565636Y-69893209D01*
X100565636Y-69893209D02*
X100732303Y-70250352D01*
X100732303Y-70250352D02*
X100898969Y-69893209D01*
X100898969Y-69893209D02*
X100898969Y-70393209D01*
X101422779Y-70345590D02*
X101398970Y-70369400D01*
X101398970Y-70369400D02*
X101327541Y-70393209D01*
X101327541Y-70393209D02*
X101279922Y-70393209D01*
X101279922Y-70393209D02*
X101208494Y-70369400D01*
X101208494Y-70369400D02*
X101160875Y-70321780D01*
X101160875Y-70321780D02*
X101137065Y-70274161D01*
X101137065Y-70274161D02*
X101113256Y-70178923D01*
X101113256Y-70178923D02*
X101113256Y-70107495D01*
X101113256Y-70107495D02*
X101137065Y-70012257D01*
X101137065Y-70012257D02*
X101160875Y-69964638D01*
X101160875Y-69964638D02*
X101208494Y-69917019D01*
X101208494Y-69917019D02*
X101279922Y-69893209D01*
X101279922Y-69893209D02*
X101327541Y-69893209D01*
X101327541Y-69893209D02*
X101398970Y-69917019D01*
X101398970Y-69917019D02*
X101422779Y-69940828D01*
X101875160Y-70393209D02*
X101637065Y-70393209D01*
X101637065Y-70393209D02*
X101637065Y-69893209D01*
X102327541Y-70393209D02*
X102160875Y-70155114D01*
X102041827Y-70393209D02*
X102041827Y-69893209D01*
X102041827Y-69893209D02*
X102232303Y-69893209D01*
X102232303Y-69893209D02*
X102279922Y-69917019D01*
X102279922Y-69917019D02*
X102303732Y-69940828D01*
X102303732Y-69940828D02*
X102327541Y-69988447D01*
X102327541Y-69988447D02*
X102327541Y-70059876D01*
X102327541Y-70059876D02*
X102303732Y-70107495D01*
X102303732Y-70107495D02*
X102279922Y-70131304D01*
X102279922Y-70131304D02*
X102232303Y-70155114D01*
X102232303Y-70155114D02*
X102041827Y-70155114D01*
X110674836Y-70393209D02*
X110674836Y-69893209D01*
X110674836Y-69893209D02*
X110865312Y-69893209D01*
X110865312Y-69893209D02*
X110912931Y-69917019D01*
X110912931Y-69917019D02*
X110936741Y-69940828D01*
X110936741Y-69940828D02*
X110960550Y-69988447D01*
X110960550Y-69988447D02*
X110960550Y-70059876D01*
X110960550Y-70059876D02*
X110936741Y-70107495D01*
X110936741Y-70107495D02*
X110912931Y-70131304D01*
X110912931Y-70131304D02*
X110865312Y-70155114D01*
X110865312Y-70155114D02*
X110674836Y-70155114D01*
X111436741Y-69917019D02*
X111389122Y-69893209D01*
X111389122Y-69893209D02*
X111317693Y-69893209D01*
X111317693Y-69893209D02*
X111246265Y-69917019D01*
X111246265Y-69917019D02*
X111198646Y-69964638D01*
X111198646Y-69964638D02*
X111174836Y-70012257D01*
X111174836Y-70012257D02*
X111151027Y-70107495D01*
X111151027Y-70107495D02*
X111151027Y-70178923D01*
X111151027Y-70178923D02*
X111174836Y-70274161D01*
X111174836Y-70274161D02*
X111198646Y-70321780D01*
X111198646Y-70321780D02*
X111246265Y-70369400D01*
X111246265Y-70369400D02*
X111317693Y-70393209D01*
X111317693Y-70393209D02*
X111365312Y-70393209D01*
X111365312Y-70393209D02*
X111436741Y-70369400D01*
X111436741Y-70369400D02*
X111460550Y-70345590D01*
X111460550Y-70345590D02*
X111460550Y-70178923D01*
X111460550Y-70178923D02*
X111365312Y-70178923D01*
X111960550Y-70345590D02*
X111936741Y-70369400D01*
X111936741Y-70369400D02*
X111865312Y-70393209D01*
X111865312Y-70393209D02*
X111817693Y-70393209D01*
X111817693Y-70393209D02*
X111746265Y-70369400D01*
X111746265Y-70369400D02*
X111698646Y-70321780D01*
X111698646Y-70321780D02*
X111674836Y-70274161D01*
X111674836Y-70274161D02*
X111651027Y-70178923D01*
X111651027Y-70178923D02*
X111651027Y-70107495D01*
X111651027Y-70107495D02*
X111674836Y-70012257D01*
X111674836Y-70012257D02*
X111698646Y-69964638D01*
X111698646Y-69964638D02*
X111746265Y-69917019D01*
X111746265Y-69917019D02*
X111817693Y-69893209D01*
X111817693Y-69893209D02*
X111865312Y-69893209D01*
X111865312Y-69893209D02*
X111936741Y-69917019D01*
X111936741Y-69917019D02*
X111960550Y-69940828D01*
X112246265Y-70393209D02*
X112198646Y-70369400D01*
X112198646Y-70369400D02*
X112174836Y-70321780D01*
X112174836Y-70321780D02*
X112174836Y-69893209D01*
X112436741Y-70393209D02*
X112436741Y-69893209D01*
X112484360Y-70202733D02*
X112627217Y-70393209D01*
X112627217Y-70059876D02*
X112436741Y-70250352D01*
X107779236Y-70393209D02*
X107779236Y-69893209D01*
X107779236Y-69893209D02*
X107969712Y-69893209D01*
X107969712Y-69893209D02*
X108017331Y-69917019D01*
X108017331Y-69917019D02*
X108041141Y-69940828D01*
X108041141Y-69940828D02*
X108064950Y-69988447D01*
X108064950Y-69988447D02*
X108064950Y-70059876D01*
X108064950Y-70059876D02*
X108041141Y-70107495D01*
X108041141Y-70107495D02*
X108017331Y-70131304D01*
X108017331Y-70131304D02*
X107969712Y-70155114D01*
X107969712Y-70155114D02*
X107779236Y-70155114D01*
X108541141Y-69917019D02*
X108493522Y-69893209D01*
X108493522Y-69893209D02*
X108422093Y-69893209D01*
X108422093Y-69893209D02*
X108350665Y-69917019D01*
X108350665Y-69917019D02*
X108303046Y-69964638D01*
X108303046Y-69964638D02*
X108279236Y-70012257D01*
X108279236Y-70012257D02*
X108255427Y-70107495D01*
X108255427Y-70107495D02*
X108255427Y-70178923D01*
X108255427Y-70178923D02*
X108279236Y-70274161D01*
X108279236Y-70274161D02*
X108303046Y-70321780D01*
X108303046Y-70321780D02*
X108350665Y-70369400D01*
X108350665Y-70369400D02*
X108422093Y-70393209D01*
X108422093Y-70393209D02*
X108469712Y-70393209D01*
X108469712Y-70393209D02*
X108541141Y-70369400D01*
X108541141Y-70369400D02*
X108564950Y-70345590D01*
X108564950Y-70345590D02*
X108564950Y-70178923D01*
X108564950Y-70178923D02*
X108469712Y-70178923D01*
X108779236Y-70393209D02*
X108779236Y-69893209D01*
X108779236Y-69893209D02*
X108898284Y-69893209D01*
X108898284Y-69893209D02*
X108969712Y-69917019D01*
X108969712Y-69917019D02*
X109017331Y-69964638D01*
X109017331Y-69964638D02*
X109041141Y-70012257D01*
X109041141Y-70012257D02*
X109064950Y-70107495D01*
X109064950Y-70107495D02*
X109064950Y-70178923D01*
X109064950Y-70178923D02*
X109041141Y-70274161D01*
X109041141Y-70274161D02*
X109017331Y-70321780D01*
X109017331Y-70321780D02*
X108969712Y-70369400D01*
X108969712Y-70369400D02*
X108898284Y-70393209D01*
X108898284Y-70393209D02*
X108779236Y-70393209D01*
X109493522Y-70393209D02*
X109493522Y-70131304D01*
X109493522Y-70131304D02*
X109469712Y-70083685D01*
X109469712Y-70083685D02*
X109422093Y-70059876D01*
X109422093Y-70059876D02*
X109326855Y-70059876D01*
X109326855Y-70059876D02*
X109279236Y-70083685D01*
X109493522Y-70369400D02*
X109445903Y-70393209D01*
X109445903Y-70393209D02*
X109326855Y-70393209D01*
X109326855Y-70393209D02*
X109279236Y-70369400D01*
X109279236Y-70369400D02*
X109255427Y-70321780D01*
X109255427Y-70321780D02*
X109255427Y-70274161D01*
X109255427Y-70274161D02*
X109279236Y-70226542D01*
X109279236Y-70226542D02*
X109326855Y-70202733D01*
X109326855Y-70202733D02*
X109445903Y-70202733D01*
X109445903Y-70202733D02*
X109493522Y-70178923D01*
X109660189Y-70059876D02*
X109850665Y-70059876D01*
X109731617Y-69893209D02*
X109731617Y-70321780D01*
X109731617Y-70321780D02*
X109755427Y-70369400D01*
X109755427Y-70369400D02*
X109803046Y-70393209D01*
X109803046Y-70393209D02*
X109850665Y-70393209D01*
X110231617Y-70393209D02*
X110231617Y-70131304D01*
X110231617Y-70131304D02*
X110207807Y-70083685D01*
X110207807Y-70083685D02*
X110160188Y-70059876D01*
X110160188Y-70059876D02*
X110064950Y-70059876D01*
X110064950Y-70059876D02*
X110017331Y-70083685D01*
X110231617Y-70369400D02*
X110183998Y-70393209D01*
X110183998Y-70393209D02*
X110064950Y-70393209D01*
X110064950Y-70393209D02*
X110017331Y-70369400D01*
X110017331Y-70369400D02*
X109993522Y-70321780D01*
X109993522Y-70321780D02*
X109993522Y-70274161D01*
X109993522Y-70274161D02*
X110017331Y-70226542D01*
X110017331Y-70226542D02*
X110064950Y-70202733D01*
X110064950Y-70202733D02*
X110183998Y-70202733D01*
X110183998Y-70202733D02*
X110231617Y-70178923D01*
X106161541Y-69917019D02*
X106113922Y-69893209D01*
X106113922Y-69893209D02*
X106042493Y-69893209D01*
X106042493Y-69893209D02*
X105971065Y-69917019D01*
X105971065Y-69917019D02*
X105923446Y-69964638D01*
X105923446Y-69964638D02*
X105899636Y-70012257D01*
X105899636Y-70012257D02*
X105875827Y-70107495D01*
X105875827Y-70107495D02*
X105875827Y-70178923D01*
X105875827Y-70178923D02*
X105899636Y-70274161D01*
X105899636Y-70274161D02*
X105923446Y-70321780D01*
X105923446Y-70321780D02*
X105971065Y-70369400D01*
X105971065Y-70369400D02*
X106042493Y-70393209D01*
X106042493Y-70393209D02*
X106090112Y-70393209D01*
X106090112Y-70393209D02*
X106161541Y-70369400D01*
X106161541Y-70369400D02*
X106185350Y-70345590D01*
X106185350Y-70345590D02*
X106185350Y-70178923D01*
X106185350Y-70178923D02*
X106090112Y-70178923D01*
X106399636Y-70393209D02*
X106399636Y-69893209D01*
X106399636Y-69893209D02*
X106685350Y-70393209D01*
X106685350Y-70393209D02*
X106685350Y-69893209D01*
X106923446Y-70393209D02*
X106923446Y-69893209D01*
X106923446Y-69893209D02*
X107042494Y-69893209D01*
X107042494Y-69893209D02*
X107113922Y-69917019D01*
X107113922Y-69917019D02*
X107161541Y-69964638D01*
X107161541Y-69964638D02*
X107185351Y-70012257D01*
X107185351Y-70012257D02*
X107209160Y-70107495D01*
X107209160Y-70107495D02*
X107209160Y-70178923D01*
X107209160Y-70178923D02*
X107185351Y-70274161D01*
X107185351Y-70274161D02*
X107161541Y-70321780D01*
X107161541Y-70321780D02*
X107113922Y-70369400D01*
X107113922Y-70369400D02*
X107042494Y-70393209D01*
X107042494Y-70393209D02*
X106923446Y-70393209D01*
X103413617Y-69893209D02*
X103723141Y-69893209D01*
X103723141Y-69893209D02*
X103556474Y-70083685D01*
X103556474Y-70083685D02*
X103627903Y-70083685D01*
X103627903Y-70083685D02*
X103675522Y-70107495D01*
X103675522Y-70107495D02*
X103699331Y-70131304D01*
X103699331Y-70131304D02*
X103723141Y-70178923D01*
X103723141Y-70178923D02*
X103723141Y-70297971D01*
X103723141Y-70297971D02*
X103699331Y-70345590D01*
X103699331Y-70345590D02*
X103675522Y-70369400D01*
X103675522Y-70369400D02*
X103627903Y-70393209D01*
X103627903Y-70393209D02*
X103485046Y-70393209D01*
X103485046Y-70393209D02*
X103437427Y-70369400D01*
X103437427Y-70369400D02*
X103413617Y-70345590D01*
X103937426Y-70345590D02*
X103961236Y-70369400D01*
X103961236Y-70369400D02*
X103937426Y-70393209D01*
X103937426Y-70393209D02*
X103913617Y-70369400D01*
X103913617Y-70369400D02*
X103937426Y-70345590D01*
X103937426Y-70345590D02*
X103937426Y-70393209D01*
X104127902Y-69893209D02*
X104437426Y-69893209D01*
X104437426Y-69893209D02*
X104270759Y-70083685D01*
X104270759Y-70083685D02*
X104342188Y-70083685D01*
X104342188Y-70083685D02*
X104389807Y-70107495D01*
X104389807Y-70107495D02*
X104413616Y-70131304D01*
X104413616Y-70131304D02*
X104437426Y-70178923D01*
X104437426Y-70178923D02*
X104437426Y-70297971D01*
X104437426Y-70297971D02*
X104413616Y-70345590D01*
X104413616Y-70345590D02*
X104389807Y-70369400D01*
X104389807Y-70369400D02*
X104342188Y-70393209D01*
X104342188Y-70393209D02*
X104199331Y-70393209D01*
X104199331Y-70393209D02*
X104151712Y-70369400D01*
X104151712Y-70369400D02*
X104127902Y-70345590D01*
X104580283Y-69893209D02*
X104746949Y-70393209D01*
X104746949Y-70393209D02*
X104913616Y-69893209D01*
X111571741Y-91754609D02*
X111286027Y-91754609D01*
X111428884Y-91754609D02*
X111428884Y-91254609D01*
X111428884Y-91254609D02*
X111381265Y-91326038D01*
X111381265Y-91326038D02*
X111333646Y-91373657D01*
X111333646Y-91373657D02*
X111286027Y-91397466D01*
X111738407Y-91254609D02*
X112071740Y-91254609D01*
X112071740Y-91254609D02*
X111857455Y-91754609D01*
X112619359Y-91230800D02*
X112190788Y-91873657D01*
X113071740Y-91754609D02*
X112905074Y-91516514D01*
X112786026Y-91754609D02*
X112786026Y-91254609D01*
X112786026Y-91254609D02*
X112976502Y-91254609D01*
X112976502Y-91254609D02*
X113024121Y-91278419D01*
X113024121Y-91278419D02*
X113047931Y-91302228D01*
X113047931Y-91302228D02*
X113071740Y-91349847D01*
X113071740Y-91349847D02*
X113071740Y-91421276D01*
X113071740Y-91421276D02*
X113047931Y-91468895D01*
X113047931Y-91468895D02*
X113024121Y-91492704D01*
X113024121Y-91492704D02*
X112976502Y-91516514D01*
X112976502Y-91516514D02*
X112786026Y-91516514D01*
X113452693Y-91492704D02*
X113524121Y-91516514D01*
X113524121Y-91516514D02*
X113547931Y-91540323D01*
X113547931Y-91540323D02*
X113571740Y-91587942D01*
X113571740Y-91587942D02*
X113571740Y-91659371D01*
X113571740Y-91659371D02*
X113547931Y-91706990D01*
X113547931Y-91706990D02*
X113524121Y-91730800D01*
X113524121Y-91730800D02*
X113476502Y-91754609D01*
X113476502Y-91754609D02*
X113286026Y-91754609D01*
X113286026Y-91754609D02*
X113286026Y-91254609D01*
X113286026Y-91254609D02*
X113452693Y-91254609D01*
X113452693Y-91254609D02*
X113500312Y-91278419D01*
X113500312Y-91278419D02*
X113524121Y-91302228D01*
X113524121Y-91302228D02*
X113547931Y-91349847D01*
X113547931Y-91349847D02*
X113547931Y-91397466D01*
X113547931Y-91397466D02*
X113524121Y-91445085D01*
X113524121Y-91445085D02*
X113500312Y-91468895D01*
X113500312Y-91468895D02*
X113452693Y-91492704D01*
X113452693Y-91492704D02*
X113286026Y-91492704D01*
X113857455Y-91468895D02*
X113809836Y-91445085D01*
X113809836Y-91445085D02*
X113786026Y-91421276D01*
X113786026Y-91421276D02*
X113762217Y-91373657D01*
X113762217Y-91373657D02*
X113762217Y-91349847D01*
X113762217Y-91349847D02*
X113786026Y-91302228D01*
X113786026Y-91302228D02*
X113809836Y-91278419D01*
X113809836Y-91278419D02*
X113857455Y-91254609D01*
X113857455Y-91254609D02*
X113952693Y-91254609D01*
X113952693Y-91254609D02*
X114000312Y-91278419D01*
X114000312Y-91278419D02*
X114024121Y-91302228D01*
X114024121Y-91302228D02*
X114047931Y-91349847D01*
X114047931Y-91349847D02*
X114047931Y-91373657D01*
X114047931Y-91373657D02*
X114024121Y-91421276D01*
X114024121Y-91421276D02*
X114000312Y-91445085D01*
X114000312Y-91445085D02*
X113952693Y-91468895D01*
X113952693Y-91468895D02*
X113857455Y-91468895D01*
X113857455Y-91468895D02*
X113809836Y-91492704D01*
X113809836Y-91492704D02*
X113786026Y-91516514D01*
X113786026Y-91516514D02*
X113762217Y-91564133D01*
X113762217Y-91564133D02*
X113762217Y-91659371D01*
X113762217Y-91659371D02*
X113786026Y-91706990D01*
X113786026Y-91706990D02*
X113809836Y-91730800D01*
X113809836Y-91730800D02*
X113857455Y-91754609D01*
X113857455Y-91754609D02*
X113952693Y-91754609D01*
X113952693Y-91754609D02*
X114000312Y-91730800D01*
X114000312Y-91730800D02*
X114024121Y-91706990D01*
X114024121Y-91706990D02*
X114047931Y-91659371D01*
X114047931Y-91659371D02*
X114047931Y-91564133D01*
X114047931Y-91564133D02*
X114024121Y-91516514D01*
X114024121Y-91516514D02*
X114000312Y-91492704D01*
X114000312Y-91492704D02*
X113952693Y-91468895D01*
X111571741Y-89341609D02*
X111286027Y-89341609D01*
X111428884Y-89341609D02*
X111428884Y-88841609D01*
X111428884Y-88841609D02*
X111381265Y-88913038D01*
X111381265Y-88913038D02*
X111333646Y-88960657D01*
X111333646Y-88960657D02*
X111286027Y-88984466D01*
X111857455Y-89055895D02*
X111809836Y-89032085D01*
X111809836Y-89032085D02*
X111786026Y-89008276D01*
X111786026Y-89008276D02*
X111762217Y-88960657D01*
X111762217Y-88960657D02*
X111762217Y-88936847D01*
X111762217Y-88936847D02*
X111786026Y-88889228D01*
X111786026Y-88889228D02*
X111809836Y-88865419D01*
X111809836Y-88865419D02*
X111857455Y-88841609D01*
X111857455Y-88841609D02*
X111952693Y-88841609D01*
X111952693Y-88841609D02*
X112000312Y-88865419D01*
X112000312Y-88865419D02*
X112024121Y-88889228D01*
X112024121Y-88889228D02*
X112047931Y-88936847D01*
X112047931Y-88936847D02*
X112047931Y-88960657D01*
X112047931Y-88960657D02*
X112024121Y-89008276D01*
X112024121Y-89008276D02*
X112000312Y-89032085D01*
X112000312Y-89032085D02*
X111952693Y-89055895D01*
X111952693Y-89055895D02*
X111857455Y-89055895D01*
X111857455Y-89055895D02*
X111809836Y-89079704D01*
X111809836Y-89079704D02*
X111786026Y-89103514D01*
X111786026Y-89103514D02*
X111762217Y-89151133D01*
X111762217Y-89151133D02*
X111762217Y-89246371D01*
X111762217Y-89246371D02*
X111786026Y-89293990D01*
X111786026Y-89293990D02*
X111809836Y-89317800D01*
X111809836Y-89317800D02*
X111857455Y-89341609D01*
X111857455Y-89341609D02*
X111952693Y-89341609D01*
X111952693Y-89341609D02*
X112000312Y-89317800D01*
X112000312Y-89317800D02*
X112024121Y-89293990D01*
X112024121Y-89293990D02*
X112047931Y-89246371D01*
X112047931Y-89246371D02*
X112047931Y-89151133D01*
X112047931Y-89151133D02*
X112024121Y-89103514D01*
X112024121Y-89103514D02*
X112000312Y-89079704D01*
X112000312Y-89079704D02*
X111952693Y-89055895D01*
X112619359Y-88817800D02*
X112190788Y-89460657D01*
X113071740Y-89341609D02*
X112905074Y-89103514D01*
X112786026Y-89341609D02*
X112786026Y-88841609D01*
X112786026Y-88841609D02*
X112976502Y-88841609D01*
X112976502Y-88841609D02*
X113024121Y-88865419D01*
X113024121Y-88865419D02*
X113047931Y-88889228D01*
X113047931Y-88889228D02*
X113071740Y-88936847D01*
X113071740Y-88936847D02*
X113071740Y-89008276D01*
X113071740Y-89008276D02*
X113047931Y-89055895D01*
X113047931Y-89055895D02*
X113024121Y-89079704D01*
X113024121Y-89079704D02*
X112976502Y-89103514D01*
X112976502Y-89103514D02*
X112786026Y-89103514D01*
X113452693Y-89079704D02*
X113524121Y-89103514D01*
X113524121Y-89103514D02*
X113547931Y-89127323D01*
X113547931Y-89127323D02*
X113571740Y-89174942D01*
X113571740Y-89174942D02*
X113571740Y-89246371D01*
X113571740Y-89246371D02*
X113547931Y-89293990D01*
X113547931Y-89293990D02*
X113524121Y-89317800D01*
X113524121Y-89317800D02*
X113476502Y-89341609D01*
X113476502Y-89341609D02*
X113286026Y-89341609D01*
X113286026Y-89341609D02*
X113286026Y-88841609D01*
X113286026Y-88841609D02*
X113452693Y-88841609D01*
X113452693Y-88841609D02*
X113500312Y-88865419D01*
X113500312Y-88865419D02*
X113524121Y-88889228D01*
X113524121Y-88889228D02*
X113547931Y-88936847D01*
X113547931Y-88936847D02*
X113547931Y-88984466D01*
X113547931Y-88984466D02*
X113524121Y-89032085D01*
X113524121Y-89032085D02*
X113500312Y-89055895D01*
X113500312Y-89055895D02*
X113452693Y-89079704D01*
X113452693Y-89079704D02*
X113286026Y-89079704D01*
X113809836Y-89341609D02*
X113905074Y-89341609D01*
X113905074Y-89341609D02*
X113952693Y-89317800D01*
X113952693Y-89317800D02*
X113976502Y-89293990D01*
X113976502Y-89293990D02*
X114024121Y-89222561D01*
X114024121Y-89222561D02*
X114047931Y-89127323D01*
X114047931Y-89127323D02*
X114047931Y-88936847D01*
X114047931Y-88936847D02*
X114024121Y-88889228D01*
X114024121Y-88889228D02*
X114000312Y-88865419D01*
X114000312Y-88865419D02*
X113952693Y-88841609D01*
X113952693Y-88841609D02*
X113857455Y-88841609D01*
X113857455Y-88841609D02*
X113809836Y-88865419D01*
X113809836Y-88865419D02*
X113786026Y-88889228D01*
X113786026Y-88889228D02*
X113762217Y-88936847D01*
X113762217Y-88936847D02*
X113762217Y-89055895D01*
X113762217Y-89055895D02*
X113786026Y-89103514D01*
X113786026Y-89103514D02*
X113809836Y-89127323D01*
X113809836Y-89127323D02*
X113857455Y-89151133D01*
X113857455Y-89151133D02*
X113952693Y-89151133D01*
X113952693Y-89151133D02*
X114000312Y-89127323D01*
X114000312Y-89127323D02*
X114024121Y-89103514D01*
X114024121Y-89103514D02*
X114047931Y-89055895D01*
X111159027Y-86222228D02*
X111182836Y-86198419D01*
X111182836Y-86198419D02*
X111230455Y-86174609D01*
X111230455Y-86174609D02*
X111349503Y-86174609D01*
X111349503Y-86174609D02*
X111397122Y-86198419D01*
X111397122Y-86198419D02*
X111420931Y-86222228D01*
X111420931Y-86222228D02*
X111444741Y-86269847D01*
X111444741Y-86269847D02*
X111444741Y-86317466D01*
X111444741Y-86317466D02*
X111420931Y-86388895D01*
X111420931Y-86388895D02*
X111135217Y-86674609D01*
X111135217Y-86674609D02*
X111444741Y-86674609D01*
X111920931Y-86674609D02*
X111635217Y-86674609D01*
X111778074Y-86674609D02*
X111778074Y-86174609D01*
X111778074Y-86174609D02*
X111730455Y-86246038D01*
X111730455Y-86246038D02*
X111682836Y-86293657D01*
X111682836Y-86293657D02*
X111635217Y-86317466D01*
X112492359Y-86150800D02*
X112063788Y-86793657D01*
X112944740Y-86674609D02*
X112778074Y-86436514D01*
X112659026Y-86674609D02*
X112659026Y-86174609D01*
X112659026Y-86174609D02*
X112849502Y-86174609D01*
X112849502Y-86174609D02*
X112897121Y-86198419D01*
X112897121Y-86198419D02*
X112920931Y-86222228D01*
X112920931Y-86222228D02*
X112944740Y-86269847D01*
X112944740Y-86269847D02*
X112944740Y-86341276D01*
X112944740Y-86341276D02*
X112920931Y-86388895D01*
X112920931Y-86388895D02*
X112897121Y-86412704D01*
X112897121Y-86412704D02*
X112849502Y-86436514D01*
X112849502Y-86436514D02*
X112659026Y-86436514D01*
X113325693Y-86412704D02*
X113397121Y-86436514D01*
X113397121Y-86436514D02*
X113420931Y-86460323D01*
X113420931Y-86460323D02*
X113444740Y-86507942D01*
X113444740Y-86507942D02*
X113444740Y-86579371D01*
X113444740Y-86579371D02*
X113420931Y-86626990D01*
X113420931Y-86626990D02*
X113397121Y-86650800D01*
X113397121Y-86650800D02*
X113349502Y-86674609D01*
X113349502Y-86674609D02*
X113159026Y-86674609D01*
X113159026Y-86674609D02*
X113159026Y-86174609D01*
X113159026Y-86174609D02*
X113325693Y-86174609D01*
X113325693Y-86174609D02*
X113373312Y-86198419D01*
X113373312Y-86198419D02*
X113397121Y-86222228D01*
X113397121Y-86222228D02*
X113420931Y-86269847D01*
X113420931Y-86269847D02*
X113420931Y-86317466D01*
X113420931Y-86317466D02*
X113397121Y-86365085D01*
X113397121Y-86365085D02*
X113373312Y-86388895D01*
X113373312Y-86388895D02*
X113325693Y-86412704D01*
X113325693Y-86412704D02*
X113159026Y-86412704D01*
X113920931Y-86674609D02*
X113635217Y-86674609D01*
X113778074Y-86674609D02*
X113778074Y-86174609D01*
X113778074Y-86174609D02*
X113730455Y-86246038D01*
X113730455Y-86246038D02*
X113682836Y-86293657D01*
X113682836Y-86293657D02*
X113635217Y-86317466D01*
X114230454Y-86174609D02*
X114278073Y-86174609D01*
X114278073Y-86174609D02*
X114325692Y-86198419D01*
X114325692Y-86198419D02*
X114349502Y-86222228D01*
X114349502Y-86222228D02*
X114373311Y-86269847D01*
X114373311Y-86269847D02*
X114397121Y-86365085D01*
X114397121Y-86365085D02*
X114397121Y-86484133D01*
X114397121Y-86484133D02*
X114373311Y-86579371D01*
X114373311Y-86579371D02*
X114349502Y-86626990D01*
X114349502Y-86626990D02*
X114325692Y-86650800D01*
X114325692Y-86650800D02*
X114278073Y-86674609D01*
X114278073Y-86674609D02*
X114230454Y-86674609D01*
X114230454Y-86674609D02*
X114182835Y-86650800D01*
X114182835Y-86650800D02*
X114159026Y-86626990D01*
X114159026Y-86626990D02*
X114135216Y-86579371D01*
X114135216Y-86579371D02*
X114111407Y-86484133D01*
X114111407Y-86484133D02*
X114111407Y-86365085D01*
X114111407Y-86365085D02*
X114135216Y-86269847D01*
X114135216Y-86269847D02*
X114159026Y-86222228D01*
X114159026Y-86222228D02*
X114182835Y-86198419D01*
X114182835Y-86198419D02*
X114230454Y-86174609D01*
X111159027Y-83707628D02*
X111182836Y-83683819D01*
X111182836Y-83683819D02*
X111230455Y-83660009D01*
X111230455Y-83660009D02*
X111349503Y-83660009D01*
X111349503Y-83660009D02*
X111397122Y-83683819D01*
X111397122Y-83683819D02*
X111420931Y-83707628D01*
X111420931Y-83707628D02*
X111444741Y-83755247D01*
X111444741Y-83755247D02*
X111444741Y-83802866D01*
X111444741Y-83802866D02*
X111420931Y-83874295D01*
X111420931Y-83874295D02*
X111135217Y-84160009D01*
X111135217Y-84160009D02*
X111444741Y-84160009D01*
X111635217Y-83707628D02*
X111659026Y-83683819D01*
X111659026Y-83683819D02*
X111706645Y-83660009D01*
X111706645Y-83660009D02*
X111825693Y-83660009D01*
X111825693Y-83660009D02*
X111873312Y-83683819D01*
X111873312Y-83683819D02*
X111897121Y-83707628D01*
X111897121Y-83707628D02*
X111920931Y-83755247D01*
X111920931Y-83755247D02*
X111920931Y-83802866D01*
X111920931Y-83802866D02*
X111897121Y-83874295D01*
X111897121Y-83874295D02*
X111611407Y-84160009D01*
X111611407Y-84160009D02*
X111920931Y-84160009D01*
X112492359Y-83636200D02*
X112063788Y-84279057D01*
X112944740Y-84160009D02*
X112778074Y-83921914D01*
X112659026Y-84160009D02*
X112659026Y-83660009D01*
X112659026Y-83660009D02*
X112849502Y-83660009D01*
X112849502Y-83660009D02*
X112897121Y-83683819D01*
X112897121Y-83683819D02*
X112920931Y-83707628D01*
X112920931Y-83707628D02*
X112944740Y-83755247D01*
X112944740Y-83755247D02*
X112944740Y-83826676D01*
X112944740Y-83826676D02*
X112920931Y-83874295D01*
X112920931Y-83874295D02*
X112897121Y-83898104D01*
X112897121Y-83898104D02*
X112849502Y-83921914D01*
X112849502Y-83921914D02*
X112659026Y-83921914D01*
X113325693Y-83898104D02*
X113397121Y-83921914D01*
X113397121Y-83921914D02*
X113420931Y-83945723D01*
X113420931Y-83945723D02*
X113444740Y-83993342D01*
X113444740Y-83993342D02*
X113444740Y-84064771D01*
X113444740Y-84064771D02*
X113420931Y-84112390D01*
X113420931Y-84112390D02*
X113397121Y-84136200D01*
X113397121Y-84136200D02*
X113349502Y-84160009D01*
X113349502Y-84160009D02*
X113159026Y-84160009D01*
X113159026Y-84160009D02*
X113159026Y-83660009D01*
X113159026Y-83660009D02*
X113325693Y-83660009D01*
X113325693Y-83660009D02*
X113373312Y-83683819D01*
X113373312Y-83683819D02*
X113397121Y-83707628D01*
X113397121Y-83707628D02*
X113420931Y-83755247D01*
X113420931Y-83755247D02*
X113420931Y-83802866D01*
X113420931Y-83802866D02*
X113397121Y-83850485D01*
X113397121Y-83850485D02*
X113373312Y-83874295D01*
X113373312Y-83874295D02*
X113325693Y-83898104D01*
X113325693Y-83898104D02*
X113159026Y-83898104D01*
X113920931Y-84160009D02*
X113635217Y-84160009D01*
X113778074Y-84160009D02*
X113778074Y-83660009D01*
X113778074Y-83660009D02*
X113730455Y-83731438D01*
X113730455Y-83731438D02*
X113682836Y-83779057D01*
X113682836Y-83779057D02*
X113635217Y-83802866D01*
X114397121Y-84160009D02*
X114111407Y-84160009D01*
X114254264Y-84160009D02*
X114254264Y-83660009D01*
X114254264Y-83660009D02*
X114206645Y-83731438D01*
X114206645Y-83731438D02*
X114159026Y-83779057D01*
X114159026Y-83779057D02*
X114111407Y-83802866D01*
X111108227Y-81167628D02*
X111132036Y-81143819D01*
X111132036Y-81143819D02*
X111179655Y-81120009D01*
X111179655Y-81120009D02*
X111298703Y-81120009D01*
X111298703Y-81120009D02*
X111346322Y-81143819D01*
X111346322Y-81143819D02*
X111370131Y-81167628D01*
X111370131Y-81167628D02*
X111393941Y-81215247D01*
X111393941Y-81215247D02*
X111393941Y-81262866D01*
X111393941Y-81262866D02*
X111370131Y-81334295D01*
X111370131Y-81334295D02*
X111084417Y-81620009D01*
X111084417Y-81620009D02*
X111393941Y-81620009D01*
X111560607Y-81120009D02*
X111870131Y-81120009D01*
X111870131Y-81120009D02*
X111703464Y-81310485D01*
X111703464Y-81310485D02*
X111774893Y-81310485D01*
X111774893Y-81310485D02*
X111822512Y-81334295D01*
X111822512Y-81334295D02*
X111846321Y-81358104D01*
X111846321Y-81358104D02*
X111870131Y-81405723D01*
X111870131Y-81405723D02*
X111870131Y-81524771D01*
X111870131Y-81524771D02*
X111846321Y-81572390D01*
X111846321Y-81572390D02*
X111822512Y-81596200D01*
X111822512Y-81596200D02*
X111774893Y-81620009D01*
X111774893Y-81620009D02*
X111632036Y-81620009D01*
X111632036Y-81620009D02*
X111584417Y-81596200D01*
X111584417Y-81596200D02*
X111560607Y-81572390D01*
X112441559Y-81096200D02*
X112012988Y-81739057D01*
X112584417Y-81477152D02*
X112822512Y-81477152D01*
X112536798Y-81620009D02*
X112703464Y-81120009D01*
X112703464Y-81120009D02*
X112870131Y-81620009D01*
X113036797Y-81620009D02*
X113036797Y-81120009D01*
X113036797Y-81120009D02*
X113322511Y-81620009D01*
X113322511Y-81620009D02*
X113322511Y-81120009D01*
X113822512Y-81620009D02*
X113536798Y-81620009D01*
X113679655Y-81620009D02*
X113679655Y-81120009D01*
X113679655Y-81120009D02*
X113632036Y-81191438D01*
X113632036Y-81191438D02*
X113584417Y-81239057D01*
X113584417Y-81239057D02*
X113536798Y-81262866D01*
X114012988Y-81167628D02*
X114036797Y-81143819D01*
X114036797Y-81143819D02*
X114084416Y-81120009D01*
X114084416Y-81120009D02*
X114203464Y-81120009D01*
X114203464Y-81120009D02*
X114251083Y-81143819D01*
X114251083Y-81143819D02*
X114274892Y-81167628D01*
X114274892Y-81167628D02*
X114298702Y-81215247D01*
X114298702Y-81215247D02*
X114298702Y-81262866D01*
X114298702Y-81262866D02*
X114274892Y-81334295D01*
X114274892Y-81334295D02*
X113989178Y-81620009D01*
X113989178Y-81620009D02*
X114298702Y-81620009D01*
X111159027Y-78627628D02*
X111182836Y-78603819D01*
X111182836Y-78603819D02*
X111230455Y-78580009D01*
X111230455Y-78580009D02*
X111349503Y-78580009D01*
X111349503Y-78580009D02*
X111397122Y-78603819D01*
X111397122Y-78603819D02*
X111420931Y-78627628D01*
X111420931Y-78627628D02*
X111444741Y-78675247D01*
X111444741Y-78675247D02*
X111444741Y-78722866D01*
X111444741Y-78722866D02*
X111420931Y-78794295D01*
X111420931Y-78794295D02*
X111135217Y-79080009D01*
X111135217Y-79080009D02*
X111444741Y-79080009D01*
X111873312Y-78746676D02*
X111873312Y-79080009D01*
X111754264Y-78556200D02*
X111635217Y-78913342D01*
X111635217Y-78913342D02*
X111944740Y-78913342D01*
X112492359Y-78556200D02*
X112063788Y-79199057D01*
X112635217Y-78937152D02*
X112873312Y-78937152D01*
X112587598Y-79080009D02*
X112754264Y-78580009D01*
X112754264Y-78580009D02*
X112920931Y-79080009D01*
X113087597Y-79080009D02*
X113087597Y-78580009D01*
X113087597Y-78580009D02*
X113373311Y-79080009D01*
X113373311Y-79080009D02*
X113373311Y-78580009D01*
X113873312Y-79080009D02*
X113587598Y-79080009D01*
X113730455Y-79080009D02*
X113730455Y-78580009D01*
X113730455Y-78580009D02*
X113682836Y-78651438D01*
X113682836Y-78651438D02*
X113635217Y-78699057D01*
X113635217Y-78699057D02*
X113587598Y-78722866D01*
X114349502Y-79080009D02*
X114063788Y-79080009D01*
X114206645Y-79080009D02*
X114206645Y-78580009D01*
X114206645Y-78580009D02*
X114159026Y-78651438D01*
X114159026Y-78651438D02*
X114111407Y-78699057D01*
X114111407Y-78699057D02*
X114063788Y-78722866D01*
X111108227Y-76087628D02*
X111132036Y-76063819D01*
X111132036Y-76063819D02*
X111179655Y-76040009D01*
X111179655Y-76040009D02*
X111298703Y-76040009D01*
X111298703Y-76040009D02*
X111346322Y-76063819D01*
X111346322Y-76063819D02*
X111370131Y-76087628D01*
X111370131Y-76087628D02*
X111393941Y-76135247D01*
X111393941Y-76135247D02*
X111393941Y-76182866D01*
X111393941Y-76182866D02*
X111370131Y-76254295D01*
X111370131Y-76254295D02*
X111084417Y-76540009D01*
X111084417Y-76540009D02*
X111393941Y-76540009D01*
X111846321Y-76040009D02*
X111608226Y-76040009D01*
X111608226Y-76040009D02*
X111584417Y-76278104D01*
X111584417Y-76278104D02*
X111608226Y-76254295D01*
X111608226Y-76254295D02*
X111655845Y-76230485D01*
X111655845Y-76230485D02*
X111774893Y-76230485D01*
X111774893Y-76230485D02*
X111822512Y-76254295D01*
X111822512Y-76254295D02*
X111846321Y-76278104D01*
X111846321Y-76278104D02*
X111870131Y-76325723D01*
X111870131Y-76325723D02*
X111870131Y-76444771D01*
X111870131Y-76444771D02*
X111846321Y-76492390D01*
X111846321Y-76492390D02*
X111822512Y-76516200D01*
X111822512Y-76516200D02*
X111774893Y-76540009D01*
X111774893Y-76540009D02*
X111655845Y-76540009D01*
X111655845Y-76540009D02*
X111608226Y-76516200D01*
X111608226Y-76516200D02*
X111584417Y-76492390D01*
X112441559Y-76016200D02*
X112012988Y-76659057D01*
X112584417Y-76397152D02*
X112822512Y-76397152D01*
X112536798Y-76540009D02*
X112703464Y-76040009D01*
X112703464Y-76040009D02*
X112870131Y-76540009D01*
X113036797Y-76540009D02*
X113036797Y-76040009D01*
X113036797Y-76040009D02*
X113322511Y-76540009D01*
X113322511Y-76540009D02*
X113322511Y-76040009D01*
X113822512Y-76540009D02*
X113536798Y-76540009D01*
X113679655Y-76540009D02*
X113679655Y-76040009D01*
X113679655Y-76040009D02*
X113632036Y-76111438D01*
X113632036Y-76111438D02*
X113584417Y-76159057D01*
X113584417Y-76159057D02*
X113536798Y-76182866D01*
X114132035Y-76040009D02*
X114179654Y-76040009D01*
X114179654Y-76040009D02*
X114227273Y-76063819D01*
X114227273Y-76063819D02*
X114251083Y-76087628D01*
X114251083Y-76087628D02*
X114274892Y-76135247D01*
X114274892Y-76135247D02*
X114298702Y-76230485D01*
X114298702Y-76230485D02*
X114298702Y-76349533D01*
X114298702Y-76349533D02*
X114274892Y-76444771D01*
X114274892Y-76444771D02*
X114251083Y-76492390D01*
X114251083Y-76492390D02*
X114227273Y-76516200D01*
X114227273Y-76516200D02*
X114179654Y-76540009D01*
X114179654Y-76540009D02*
X114132035Y-76540009D01*
X114132035Y-76540009D02*
X114084416Y-76516200D01*
X114084416Y-76516200D02*
X114060607Y-76492390D01*
X114060607Y-76492390D02*
X114036797Y-76444771D01*
X114036797Y-76444771D02*
X114012988Y-76349533D01*
X114012988Y-76349533D02*
X114012988Y-76230485D01*
X114012988Y-76230485D02*
X114036797Y-76135247D01*
X114036797Y-76135247D02*
X114060607Y-76087628D01*
X114060607Y-76087628D02*
X114084416Y-76063819D01*
X114084416Y-76063819D02*
X114132035Y-76040009D01*
X111311427Y-73293628D02*
X111335236Y-73269819D01*
X111335236Y-73269819D02*
X111382855Y-73246009D01*
X111382855Y-73246009D02*
X111501903Y-73246009D01*
X111501903Y-73246009D02*
X111549522Y-73269819D01*
X111549522Y-73269819D02*
X111573331Y-73293628D01*
X111573331Y-73293628D02*
X111597141Y-73341247D01*
X111597141Y-73341247D02*
X111597141Y-73388866D01*
X111597141Y-73388866D02*
X111573331Y-73460295D01*
X111573331Y-73460295D02*
X111287617Y-73746009D01*
X111287617Y-73746009D02*
X111597141Y-73746009D01*
X112025712Y-73246009D02*
X111930474Y-73246009D01*
X111930474Y-73246009D02*
X111882855Y-73269819D01*
X111882855Y-73269819D02*
X111859045Y-73293628D01*
X111859045Y-73293628D02*
X111811426Y-73365057D01*
X111811426Y-73365057D02*
X111787617Y-73460295D01*
X111787617Y-73460295D02*
X111787617Y-73650771D01*
X111787617Y-73650771D02*
X111811426Y-73698390D01*
X111811426Y-73698390D02*
X111835236Y-73722200D01*
X111835236Y-73722200D02*
X111882855Y-73746009D01*
X111882855Y-73746009D02*
X111978093Y-73746009D01*
X111978093Y-73746009D02*
X112025712Y-73722200D01*
X112025712Y-73722200D02*
X112049521Y-73698390D01*
X112049521Y-73698390D02*
X112073331Y-73650771D01*
X112073331Y-73650771D02*
X112073331Y-73531723D01*
X112073331Y-73531723D02*
X112049521Y-73484104D01*
X112049521Y-73484104D02*
X112025712Y-73460295D01*
X112025712Y-73460295D02*
X111978093Y-73436485D01*
X111978093Y-73436485D02*
X111882855Y-73436485D01*
X111882855Y-73436485D02*
X111835236Y-73460295D01*
X111835236Y-73460295D02*
X111811426Y-73484104D01*
X111811426Y-73484104D02*
X111787617Y-73531723D01*
X112644759Y-73222200D02*
X112216188Y-73865057D01*
X112787617Y-73603152D02*
X113025712Y-73603152D01*
X112739998Y-73746009D02*
X112906664Y-73246009D01*
X112906664Y-73246009D02*
X113073331Y-73746009D01*
X113239997Y-73746009D02*
X113239997Y-73246009D01*
X113239997Y-73246009D02*
X113525711Y-73746009D01*
X113525711Y-73746009D02*
X113525711Y-73246009D01*
X113787617Y-73746009D02*
X113882855Y-73746009D01*
X113882855Y-73746009D02*
X113930474Y-73722200D01*
X113930474Y-73722200D02*
X113954283Y-73698390D01*
X113954283Y-73698390D02*
X114001902Y-73626961D01*
X114001902Y-73626961D02*
X114025712Y-73531723D01*
X114025712Y-73531723D02*
X114025712Y-73341247D01*
X114025712Y-73341247D02*
X114001902Y-73293628D01*
X114001902Y-73293628D02*
X113978093Y-73269819D01*
X113978093Y-73269819D02*
X113930474Y-73246009D01*
X113930474Y-73246009D02*
X113835236Y-73246009D01*
X113835236Y-73246009D02*
X113787617Y-73269819D01*
X113787617Y-73269819D02*
X113763807Y-73293628D01*
X113763807Y-73293628D02*
X113739998Y-73341247D01*
X113739998Y-73341247D02*
X113739998Y-73460295D01*
X113739998Y-73460295D02*
X113763807Y-73507914D01*
X113763807Y-73507914D02*
X113787617Y-73531723D01*
X113787617Y-73531723D02*
X113835236Y-73555533D01*
X113835236Y-73555533D02*
X113930474Y-73555533D01*
X113930474Y-73555533D02*
X113978093Y-73531723D01*
X113978093Y-73531723D02*
X114001902Y-73507914D01*
X114001902Y-73507914D02*
X114025712Y-73460295D01*
X98998741Y-99374609D02*
X98713027Y-99374609D01*
X98855884Y-99374609D02*
X98855884Y-98874609D01*
X98855884Y-98874609D02*
X98808265Y-98946038D01*
X98808265Y-98946038D02*
X98760646Y-98993657D01*
X98760646Y-98993657D02*
X98713027Y-99017466D01*
X99427312Y-99041276D02*
X99427312Y-99374609D01*
X99308264Y-98850800D02*
X99189217Y-99207942D01*
X99189217Y-99207942D02*
X99498740Y-99207942D01*
X100046359Y-98850800D02*
X99617788Y-99493657D01*
X100498740Y-99374609D02*
X100332074Y-99136514D01*
X100213026Y-99374609D02*
X100213026Y-98874609D01*
X100213026Y-98874609D02*
X100403502Y-98874609D01*
X100403502Y-98874609D02*
X100451121Y-98898419D01*
X100451121Y-98898419D02*
X100474931Y-98922228D01*
X100474931Y-98922228D02*
X100498740Y-98969847D01*
X100498740Y-98969847D02*
X100498740Y-99041276D01*
X100498740Y-99041276D02*
X100474931Y-99088895D01*
X100474931Y-99088895D02*
X100451121Y-99112704D01*
X100451121Y-99112704D02*
X100403502Y-99136514D01*
X100403502Y-99136514D02*
X100213026Y-99136514D01*
X100879693Y-99112704D02*
X100951121Y-99136514D01*
X100951121Y-99136514D02*
X100974931Y-99160323D01*
X100974931Y-99160323D02*
X100998740Y-99207942D01*
X100998740Y-99207942D02*
X100998740Y-99279371D01*
X100998740Y-99279371D02*
X100974931Y-99326990D01*
X100974931Y-99326990D02*
X100951121Y-99350800D01*
X100951121Y-99350800D02*
X100903502Y-99374609D01*
X100903502Y-99374609D02*
X100713026Y-99374609D01*
X100713026Y-99374609D02*
X100713026Y-98874609D01*
X100713026Y-98874609D02*
X100879693Y-98874609D01*
X100879693Y-98874609D02*
X100927312Y-98898419D01*
X100927312Y-98898419D02*
X100951121Y-98922228D01*
X100951121Y-98922228D02*
X100974931Y-98969847D01*
X100974931Y-98969847D02*
X100974931Y-99017466D01*
X100974931Y-99017466D02*
X100951121Y-99065085D01*
X100951121Y-99065085D02*
X100927312Y-99088895D01*
X100927312Y-99088895D02*
X100879693Y-99112704D01*
X100879693Y-99112704D02*
X100713026Y-99112704D01*
X101451121Y-98874609D02*
X101213026Y-98874609D01*
X101213026Y-98874609D02*
X101189217Y-99112704D01*
X101189217Y-99112704D02*
X101213026Y-99088895D01*
X101213026Y-99088895D02*
X101260645Y-99065085D01*
X101260645Y-99065085D02*
X101379693Y-99065085D01*
X101379693Y-99065085D02*
X101427312Y-99088895D01*
X101427312Y-99088895D02*
X101451121Y-99112704D01*
X101451121Y-99112704D02*
X101474931Y-99160323D01*
X101474931Y-99160323D02*
X101474931Y-99279371D01*
X101474931Y-99279371D02*
X101451121Y-99326990D01*
X101451121Y-99326990D02*
X101427312Y-99350800D01*
X101427312Y-99350800D02*
X101379693Y-99374609D01*
X101379693Y-99374609D02*
X101260645Y-99374609D01*
X101260645Y-99374609D02*
X101213026Y-99350800D01*
X101213026Y-99350800D02*
X101189217Y-99326990D01*
X98998741Y-96834609D02*
X98713027Y-96834609D01*
X98855884Y-96834609D02*
X98855884Y-96334609D01*
X98855884Y-96334609D02*
X98808265Y-96406038D01*
X98808265Y-96406038D02*
X98760646Y-96453657D01*
X98760646Y-96453657D02*
X98713027Y-96477466D01*
X99189217Y-96382228D02*
X99213026Y-96358419D01*
X99213026Y-96358419D02*
X99260645Y-96334609D01*
X99260645Y-96334609D02*
X99379693Y-96334609D01*
X99379693Y-96334609D02*
X99427312Y-96358419D01*
X99427312Y-96358419D02*
X99451121Y-96382228D01*
X99451121Y-96382228D02*
X99474931Y-96429847D01*
X99474931Y-96429847D02*
X99474931Y-96477466D01*
X99474931Y-96477466D02*
X99451121Y-96548895D01*
X99451121Y-96548895D02*
X99165407Y-96834609D01*
X99165407Y-96834609D02*
X99474931Y-96834609D01*
X100046359Y-96310800D02*
X99617788Y-96953657D01*
X100498740Y-96834609D02*
X100332074Y-96596514D01*
X100213026Y-96834609D02*
X100213026Y-96334609D01*
X100213026Y-96334609D02*
X100403502Y-96334609D01*
X100403502Y-96334609D02*
X100451121Y-96358419D01*
X100451121Y-96358419D02*
X100474931Y-96382228D01*
X100474931Y-96382228D02*
X100498740Y-96429847D01*
X100498740Y-96429847D02*
X100498740Y-96501276D01*
X100498740Y-96501276D02*
X100474931Y-96548895D01*
X100474931Y-96548895D02*
X100451121Y-96572704D01*
X100451121Y-96572704D02*
X100403502Y-96596514D01*
X100403502Y-96596514D02*
X100213026Y-96596514D01*
X100689217Y-96691752D02*
X100927312Y-96691752D01*
X100641598Y-96834609D02*
X100808264Y-96334609D01*
X100808264Y-96334609D02*
X100974931Y-96834609D01*
X101355883Y-96501276D02*
X101355883Y-96834609D01*
X101236835Y-96310800D02*
X101117788Y-96667942D01*
X101117788Y-96667942D02*
X101427311Y-96667942D01*
X98998741Y-94294609D02*
X98713027Y-94294609D01*
X98855884Y-94294609D02*
X98855884Y-93794609D01*
X98855884Y-93794609D02*
X98808265Y-93866038D01*
X98808265Y-93866038D02*
X98760646Y-93913657D01*
X98760646Y-93913657D02*
X98713027Y-93937466D01*
X99474931Y-94294609D02*
X99189217Y-94294609D01*
X99332074Y-94294609D02*
X99332074Y-93794609D01*
X99332074Y-93794609D02*
X99284455Y-93866038D01*
X99284455Y-93866038D02*
X99236836Y-93913657D01*
X99236836Y-93913657D02*
X99189217Y-93937466D01*
X100046359Y-93770800D02*
X99617788Y-94413657D01*
X100498740Y-94294609D02*
X100332074Y-94056514D01*
X100213026Y-94294609D02*
X100213026Y-93794609D01*
X100213026Y-93794609D02*
X100403502Y-93794609D01*
X100403502Y-93794609D02*
X100451121Y-93818419D01*
X100451121Y-93818419D02*
X100474931Y-93842228D01*
X100474931Y-93842228D02*
X100498740Y-93889847D01*
X100498740Y-93889847D02*
X100498740Y-93961276D01*
X100498740Y-93961276D02*
X100474931Y-94008895D01*
X100474931Y-94008895D02*
X100451121Y-94032704D01*
X100451121Y-94032704D02*
X100403502Y-94056514D01*
X100403502Y-94056514D02*
X100213026Y-94056514D01*
X100879693Y-94032704D02*
X100951121Y-94056514D01*
X100951121Y-94056514D02*
X100974931Y-94080323D01*
X100974931Y-94080323D02*
X100998740Y-94127942D01*
X100998740Y-94127942D02*
X100998740Y-94199371D01*
X100998740Y-94199371D02*
X100974931Y-94246990D01*
X100974931Y-94246990D02*
X100951121Y-94270800D01*
X100951121Y-94270800D02*
X100903502Y-94294609D01*
X100903502Y-94294609D02*
X100713026Y-94294609D01*
X100713026Y-94294609D02*
X100713026Y-93794609D01*
X100713026Y-93794609D02*
X100879693Y-93794609D01*
X100879693Y-93794609D02*
X100927312Y-93818419D01*
X100927312Y-93818419D02*
X100951121Y-93842228D01*
X100951121Y-93842228D02*
X100974931Y-93889847D01*
X100974931Y-93889847D02*
X100974931Y-93937466D01*
X100974931Y-93937466D02*
X100951121Y-93985085D01*
X100951121Y-93985085D02*
X100927312Y-94008895D01*
X100927312Y-94008895D02*
X100879693Y-94032704D01*
X100879693Y-94032704D02*
X100713026Y-94032704D01*
X101427312Y-93961276D02*
X101427312Y-94294609D01*
X101308264Y-93770800D02*
X101189217Y-94127942D01*
X101189217Y-94127942D02*
X101498740Y-94127942D01*
X98998741Y-91754609D02*
X98713027Y-91754609D01*
X98855884Y-91754609D02*
X98855884Y-91254609D01*
X98855884Y-91254609D02*
X98808265Y-91326038D01*
X98808265Y-91326038D02*
X98760646Y-91373657D01*
X98760646Y-91373657D02*
X98713027Y-91397466D01*
X99308264Y-91254609D02*
X99355883Y-91254609D01*
X99355883Y-91254609D02*
X99403502Y-91278419D01*
X99403502Y-91278419D02*
X99427312Y-91302228D01*
X99427312Y-91302228D02*
X99451121Y-91349847D01*
X99451121Y-91349847D02*
X99474931Y-91445085D01*
X99474931Y-91445085D02*
X99474931Y-91564133D01*
X99474931Y-91564133D02*
X99451121Y-91659371D01*
X99451121Y-91659371D02*
X99427312Y-91706990D01*
X99427312Y-91706990D02*
X99403502Y-91730800D01*
X99403502Y-91730800D02*
X99355883Y-91754609D01*
X99355883Y-91754609D02*
X99308264Y-91754609D01*
X99308264Y-91754609D02*
X99260645Y-91730800D01*
X99260645Y-91730800D02*
X99236836Y-91706990D01*
X99236836Y-91706990D02*
X99213026Y-91659371D01*
X99213026Y-91659371D02*
X99189217Y-91564133D01*
X99189217Y-91564133D02*
X99189217Y-91445085D01*
X99189217Y-91445085D02*
X99213026Y-91349847D01*
X99213026Y-91349847D02*
X99236836Y-91302228D01*
X99236836Y-91302228D02*
X99260645Y-91278419D01*
X99260645Y-91278419D02*
X99308264Y-91254609D01*
X100046359Y-91230800D02*
X99617788Y-91873657D01*
X100498740Y-91754609D02*
X100332074Y-91516514D01*
X100213026Y-91754609D02*
X100213026Y-91254609D01*
X100213026Y-91254609D02*
X100403502Y-91254609D01*
X100403502Y-91254609D02*
X100451121Y-91278419D01*
X100451121Y-91278419D02*
X100474931Y-91302228D01*
X100474931Y-91302228D02*
X100498740Y-91349847D01*
X100498740Y-91349847D02*
X100498740Y-91421276D01*
X100498740Y-91421276D02*
X100474931Y-91468895D01*
X100474931Y-91468895D02*
X100451121Y-91492704D01*
X100451121Y-91492704D02*
X100403502Y-91516514D01*
X100403502Y-91516514D02*
X100213026Y-91516514D01*
X100689217Y-91611752D02*
X100927312Y-91611752D01*
X100641598Y-91754609D02*
X100808264Y-91254609D01*
X100808264Y-91254609D02*
X100974931Y-91754609D01*
X101093978Y-91254609D02*
X101403502Y-91254609D01*
X101403502Y-91254609D02*
X101236835Y-91445085D01*
X101236835Y-91445085D02*
X101308264Y-91445085D01*
X101308264Y-91445085D02*
X101355883Y-91468895D01*
X101355883Y-91468895D02*
X101379692Y-91492704D01*
X101379692Y-91492704D02*
X101403502Y-91540323D01*
X101403502Y-91540323D02*
X101403502Y-91659371D01*
X101403502Y-91659371D02*
X101379692Y-91706990D01*
X101379692Y-91706990D02*
X101355883Y-91730800D01*
X101355883Y-91730800D02*
X101308264Y-91754609D01*
X101308264Y-91754609D02*
X101165407Y-91754609D01*
X101165407Y-91754609D02*
X101117788Y-91730800D01*
X101117788Y-91730800D02*
X101093978Y-91706990D01*
X99014646Y-89214609D02*
X99109884Y-89214609D01*
X99109884Y-89214609D02*
X99157503Y-89190800D01*
X99157503Y-89190800D02*
X99181312Y-89166990D01*
X99181312Y-89166990D02*
X99228931Y-89095561D01*
X99228931Y-89095561D02*
X99252741Y-89000323D01*
X99252741Y-89000323D02*
X99252741Y-88809847D01*
X99252741Y-88809847D02*
X99228931Y-88762228D01*
X99228931Y-88762228D02*
X99205122Y-88738419D01*
X99205122Y-88738419D02*
X99157503Y-88714609D01*
X99157503Y-88714609D02*
X99062265Y-88714609D01*
X99062265Y-88714609D02*
X99014646Y-88738419D01*
X99014646Y-88738419D02*
X98990836Y-88762228D01*
X98990836Y-88762228D02*
X98967027Y-88809847D01*
X98967027Y-88809847D02*
X98967027Y-88928895D01*
X98967027Y-88928895D02*
X98990836Y-88976514D01*
X98990836Y-88976514D02*
X99014646Y-89000323D01*
X99014646Y-89000323D02*
X99062265Y-89024133D01*
X99062265Y-89024133D02*
X99157503Y-89024133D01*
X99157503Y-89024133D02*
X99205122Y-89000323D01*
X99205122Y-89000323D02*
X99228931Y-88976514D01*
X99228931Y-88976514D02*
X99252741Y-88928895D01*
X99824169Y-88690800D02*
X99395598Y-89333657D01*
X100276550Y-89214609D02*
X100109884Y-88976514D01*
X99990836Y-89214609D02*
X99990836Y-88714609D01*
X99990836Y-88714609D02*
X100181312Y-88714609D01*
X100181312Y-88714609D02*
X100228931Y-88738419D01*
X100228931Y-88738419D02*
X100252741Y-88762228D01*
X100252741Y-88762228D02*
X100276550Y-88809847D01*
X100276550Y-88809847D02*
X100276550Y-88881276D01*
X100276550Y-88881276D02*
X100252741Y-88928895D01*
X100252741Y-88928895D02*
X100228931Y-88952704D01*
X100228931Y-88952704D02*
X100181312Y-88976514D01*
X100181312Y-88976514D02*
X99990836Y-88976514D01*
X100467027Y-89071752D02*
X100705122Y-89071752D01*
X100419408Y-89214609D02*
X100586074Y-88714609D01*
X100586074Y-88714609D02*
X100752741Y-89214609D01*
X100895598Y-88762228D02*
X100919407Y-88738419D01*
X100919407Y-88738419D02*
X100967026Y-88714609D01*
X100967026Y-88714609D02*
X101086074Y-88714609D01*
X101086074Y-88714609D02*
X101133693Y-88738419D01*
X101133693Y-88738419D02*
X101157502Y-88762228D01*
X101157502Y-88762228D02*
X101181312Y-88809847D01*
X101181312Y-88809847D02*
X101181312Y-88857466D01*
X101181312Y-88857466D02*
X101157502Y-88928895D01*
X101157502Y-88928895D02*
X100871788Y-89214609D01*
X100871788Y-89214609D02*
X101181312Y-89214609D01*
X98308217Y-86174609D02*
X98641550Y-86174609D01*
X98641550Y-86174609D02*
X98427265Y-86674609D01*
X99189169Y-86150800D02*
X98760598Y-86793657D01*
X99332027Y-86531752D02*
X99570122Y-86531752D01*
X99284408Y-86674609D02*
X99451074Y-86174609D01*
X99451074Y-86174609D02*
X99617741Y-86674609D01*
X99784407Y-86674609D02*
X99784407Y-86174609D01*
X99784407Y-86174609D02*
X100070121Y-86674609D01*
X100070121Y-86674609D02*
X100070121Y-86174609D01*
X100546312Y-86174609D02*
X100308217Y-86174609D01*
X100308217Y-86174609D02*
X100284408Y-86412704D01*
X100284408Y-86412704D02*
X100308217Y-86388895D01*
X100308217Y-86388895D02*
X100355836Y-86365085D01*
X100355836Y-86365085D02*
X100474884Y-86365085D01*
X100474884Y-86365085D02*
X100522503Y-86388895D01*
X100522503Y-86388895D02*
X100546312Y-86412704D01*
X100546312Y-86412704D02*
X100570122Y-86460323D01*
X100570122Y-86460323D02*
X100570122Y-86579371D01*
X100570122Y-86579371D02*
X100546312Y-86626990D01*
X100546312Y-86626990D02*
X100522503Y-86650800D01*
X100522503Y-86650800D02*
X100474884Y-86674609D01*
X100474884Y-86674609D02*
X100355836Y-86674609D01*
X100355836Y-86674609D02*
X100308217Y-86650800D01*
X100308217Y-86650800D02*
X100284408Y-86626990D01*
X101141550Y-86150800D02*
X100712979Y-86793657D01*
X101593931Y-86674609D02*
X101427265Y-86436514D01*
X101308217Y-86674609D02*
X101308217Y-86174609D01*
X101308217Y-86174609D02*
X101498693Y-86174609D01*
X101498693Y-86174609D02*
X101546312Y-86198419D01*
X101546312Y-86198419D02*
X101570122Y-86222228D01*
X101570122Y-86222228D02*
X101593931Y-86269847D01*
X101593931Y-86269847D02*
X101593931Y-86341276D01*
X101593931Y-86341276D02*
X101570122Y-86388895D01*
X101570122Y-86388895D02*
X101546312Y-86412704D01*
X101546312Y-86412704D02*
X101498693Y-86436514D01*
X101498693Y-86436514D02*
X101308217Y-86436514D01*
X101974884Y-86412704D02*
X102046312Y-86436514D01*
X102046312Y-86436514D02*
X102070122Y-86460323D01*
X102070122Y-86460323D02*
X102093931Y-86507942D01*
X102093931Y-86507942D02*
X102093931Y-86579371D01*
X102093931Y-86579371D02*
X102070122Y-86626990D01*
X102070122Y-86626990D02*
X102046312Y-86650800D01*
X102046312Y-86650800D02*
X101998693Y-86674609D01*
X101998693Y-86674609D02*
X101808217Y-86674609D01*
X101808217Y-86674609D02*
X101808217Y-86174609D01*
X101808217Y-86174609D02*
X101974884Y-86174609D01*
X101974884Y-86174609D02*
X102022503Y-86198419D01*
X102022503Y-86198419D02*
X102046312Y-86222228D01*
X102046312Y-86222228D02*
X102070122Y-86269847D01*
X102070122Y-86269847D02*
X102070122Y-86317466D01*
X102070122Y-86317466D02*
X102046312Y-86365085D01*
X102046312Y-86365085D02*
X102022503Y-86388895D01*
X102022503Y-86388895D02*
X101974884Y-86412704D01*
X101974884Y-86412704D02*
X101808217Y-86412704D01*
X102260598Y-86174609D02*
X102570122Y-86174609D01*
X102570122Y-86174609D02*
X102403455Y-86365085D01*
X102403455Y-86365085D02*
X102474884Y-86365085D01*
X102474884Y-86365085D02*
X102522503Y-86388895D01*
X102522503Y-86388895D02*
X102546312Y-86412704D01*
X102546312Y-86412704D02*
X102570122Y-86460323D01*
X102570122Y-86460323D02*
X102570122Y-86579371D01*
X102570122Y-86579371D02*
X102546312Y-86626990D01*
X102546312Y-86626990D02*
X102522503Y-86650800D01*
X102522503Y-86650800D02*
X102474884Y-86674609D01*
X102474884Y-86674609D02*
X102332027Y-86674609D01*
X102332027Y-86674609D02*
X102284408Y-86650800D01*
X102284408Y-86650800D02*
X102260598Y-86626990D01*
X98570122Y-83634609D02*
X98474884Y-83634609D01*
X98474884Y-83634609D02*
X98427265Y-83658419D01*
X98427265Y-83658419D02*
X98403455Y-83682228D01*
X98403455Y-83682228D02*
X98355836Y-83753657D01*
X98355836Y-83753657D02*
X98332027Y-83848895D01*
X98332027Y-83848895D02*
X98332027Y-84039371D01*
X98332027Y-84039371D02*
X98355836Y-84086990D01*
X98355836Y-84086990D02*
X98379646Y-84110800D01*
X98379646Y-84110800D02*
X98427265Y-84134609D01*
X98427265Y-84134609D02*
X98522503Y-84134609D01*
X98522503Y-84134609D02*
X98570122Y-84110800D01*
X98570122Y-84110800D02*
X98593931Y-84086990D01*
X98593931Y-84086990D02*
X98617741Y-84039371D01*
X98617741Y-84039371D02*
X98617741Y-83920323D01*
X98617741Y-83920323D02*
X98593931Y-83872704D01*
X98593931Y-83872704D02*
X98570122Y-83848895D01*
X98570122Y-83848895D02*
X98522503Y-83825085D01*
X98522503Y-83825085D02*
X98427265Y-83825085D01*
X98427265Y-83825085D02*
X98379646Y-83848895D01*
X98379646Y-83848895D02*
X98355836Y-83872704D01*
X98355836Y-83872704D02*
X98332027Y-83920323D01*
X99189169Y-83610800D02*
X98760598Y-84253657D01*
X99332027Y-83991752D02*
X99570122Y-83991752D01*
X99284408Y-84134609D02*
X99451074Y-83634609D01*
X99451074Y-83634609D02*
X99617741Y-84134609D01*
X99784407Y-84134609D02*
X99784407Y-83634609D01*
X99784407Y-83634609D02*
X100070121Y-84134609D01*
X100070121Y-84134609D02*
X100070121Y-83634609D01*
X100522503Y-83801276D02*
X100522503Y-84134609D01*
X100403455Y-83610800D02*
X100284408Y-83967942D01*
X100284408Y-83967942D02*
X100593931Y-83967942D01*
X101141550Y-83610800D02*
X100712979Y-84253657D01*
X101593931Y-84134609D02*
X101427265Y-83896514D01*
X101308217Y-84134609D02*
X101308217Y-83634609D01*
X101308217Y-83634609D02*
X101498693Y-83634609D01*
X101498693Y-83634609D02*
X101546312Y-83658419D01*
X101546312Y-83658419D02*
X101570122Y-83682228D01*
X101570122Y-83682228D02*
X101593931Y-83729847D01*
X101593931Y-83729847D02*
X101593931Y-83801276D01*
X101593931Y-83801276D02*
X101570122Y-83848895D01*
X101570122Y-83848895D02*
X101546312Y-83872704D01*
X101546312Y-83872704D02*
X101498693Y-83896514D01*
X101498693Y-83896514D02*
X101308217Y-83896514D01*
X101974884Y-83872704D02*
X102046312Y-83896514D01*
X102046312Y-83896514D02*
X102070122Y-83920323D01*
X102070122Y-83920323D02*
X102093931Y-83967942D01*
X102093931Y-83967942D02*
X102093931Y-84039371D01*
X102093931Y-84039371D02*
X102070122Y-84086990D01*
X102070122Y-84086990D02*
X102046312Y-84110800D01*
X102046312Y-84110800D02*
X101998693Y-84134609D01*
X101998693Y-84134609D02*
X101808217Y-84134609D01*
X101808217Y-84134609D02*
X101808217Y-83634609D01*
X101808217Y-83634609D02*
X101974884Y-83634609D01*
X101974884Y-83634609D02*
X102022503Y-83658419D01*
X102022503Y-83658419D02*
X102046312Y-83682228D01*
X102046312Y-83682228D02*
X102070122Y-83729847D01*
X102070122Y-83729847D02*
X102070122Y-83777466D01*
X102070122Y-83777466D02*
X102046312Y-83825085D01*
X102046312Y-83825085D02*
X102022503Y-83848895D01*
X102022503Y-83848895D02*
X101974884Y-83872704D01*
X101974884Y-83872704D02*
X101808217Y-83872704D01*
X102284408Y-83682228D02*
X102308217Y-83658419D01*
X102308217Y-83658419D02*
X102355836Y-83634609D01*
X102355836Y-83634609D02*
X102474884Y-83634609D01*
X102474884Y-83634609D02*
X102522503Y-83658419D01*
X102522503Y-83658419D02*
X102546312Y-83682228D01*
X102546312Y-83682228D02*
X102570122Y-83729847D01*
X102570122Y-83729847D02*
X102570122Y-83777466D01*
X102570122Y-83777466D02*
X102546312Y-83848895D01*
X102546312Y-83848895D02*
X102260598Y-84134609D01*
X102260598Y-84134609D02*
X102570122Y-84134609D01*
X98308217Y-81094609D02*
X98617741Y-81094609D01*
X98617741Y-81094609D02*
X98451074Y-81285085D01*
X98451074Y-81285085D02*
X98522503Y-81285085D01*
X98522503Y-81285085D02*
X98570122Y-81308895D01*
X98570122Y-81308895D02*
X98593931Y-81332704D01*
X98593931Y-81332704D02*
X98617741Y-81380323D01*
X98617741Y-81380323D02*
X98617741Y-81499371D01*
X98617741Y-81499371D02*
X98593931Y-81546990D01*
X98593931Y-81546990D02*
X98570122Y-81570800D01*
X98570122Y-81570800D02*
X98522503Y-81594609D01*
X98522503Y-81594609D02*
X98379646Y-81594609D01*
X98379646Y-81594609D02*
X98332027Y-81570800D01*
X98332027Y-81570800D02*
X98308217Y-81546990D01*
X99189169Y-81070800D02*
X98760598Y-81713657D01*
X99332027Y-81451752D02*
X99570122Y-81451752D01*
X99284408Y-81594609D02*
X99451074Y-81094609D01*
X99451074Y-81094609D02*
X99617741Y-81594609D01*
X99784407Y-81594609D02*
X99784407Y-81094609D01*
X99784407Y-81094609D02*
X100070121Y-81594609D01*
X100070121Y-81594609D02*
X100070121Y-81094609D01*
X100570122Y-81594609D02*
X100284408Y-81594609D01*
X100427265Y-81594609D02*
X100427265Y-81094609D01*
X100427265Y-81094609D02*
X100379646Y-81166038D01*
X100379646Y-81166038D02*
X100332027Y-81213657D01*
X100332027Y-81213657D02*
X100284408Y-81237466D01*
X101141550Y-81070800D02*
X100712979Y-81713657D01*
X101593931Y-81594609D02*
X101427265Y-81356514D01*
X101308217Y-81594609D02*
X101308217Y-81094609D01*
X101308217Y-81094609D02*
X101498693Y-81094609D01*
X101498693Y-81094609D02*
X101546312Y-81118419D01*
X101546312Y-81118419D02*
X101570122Y-81142228D01*
X101570122Y-81142228D02*
X101593931Y-81189847D01*
X101593931Y-81189847D02*
X101593931Y-81261276D01*
X101593931Y-81261276D02*
X101570122Y-81308895D01*
X101570122Y-81308895D02*
X101546312Y-81332704D01*
X101546312Y-81332704D02*
X101498693Y-81356514D01*
X101498693Y-81356514D02*
X101308217Y-81356514D01*
X101784408Y-81451752D02*
X102022503Y-81451752D01*
X101736789Y-81594609D02*
X101903455Y-81094609D01*
X101903455Y-81094609D02*
X102070122Y-81594609D01*
X102498693Y-81594609D02*
X102212979Y-81594609D01*
X102355836Y-81594609D02*
X102355836Y-81094609D01*
X102355836Y-81094609D02*
X102308217Y-81166038D01*
X102308217Y-81166038D02*
X102260598Y-81213657D01*
X102260598Y-81213657D02*
X102212979Y-81237466D01*
X98332027Y-78602228D02*
X98355836Y-78578419D01*
X98355836Y-78578419D02*
X98403455Y-78554609D01*
X98403455Y-78554609D02*
X98522503Y-78554609D01*
X98522503Y-78554609D02*
X98570122Y-78578419D01*
X98570122Y-78578419D02*
X98593931Y-78602228D01*
X98593931Y-78602228D02*
X98617741Y-78649847D01*
X98617741Y-78649847D02*
X98617741Y-78697466D01*
X98617741Y-78697466D02*
X98593931Y-78768895D01*
X98593931Y-78768895D02*
X98308217Y-79054609D01*
X98308217Y-79054609D02*
X98617741Y-79054609D01*
X99189169Y-78530800D02*
X98760598Y-79173657D01*
X99332027Y-78911752D02*
X99570122Y-78911752D01*
X99284408Y-79054609D02*
X99451074Y-78554609D01*
X99451074Y-78554609D02*
X99617741Y-79054609D01*
X99784407Y-79054609D02*
X99784407Y-78554609D01*
X99784407Y-78554609D02*
X100070121Y-79054609D01*
X100070121Y-79054609D02*
X100070121Y-78554609D01*
X100403455Y-78554609D02*
X100451074Y-78554609D01*
X100451074Y-78554609D02*
X100498693Y-78578419D01*
X100498693Y-78578419D02*
X100522503Y-78602228D01*
X100522503Y-78602228D02*
X100546312Y-78649847D01*
X100546312Y-78649847D02*
X100570122Y-78745085D01*
X100570122Y-78745085D02*
X100570122Y-78864133D01*
X100570122Y-78864133D02*
X100546312Y-78959371D01*
X100546312Y-78959371D02*
X100522503Y-79006990D01*
X100522503Y-79006990D02*
X100498693Y-79030800D01*
X100498693Y-79030800D02*
X100451074Y-79054609D01*
X100451074Y-79054609D02*
X100403455Y-79054609D01*
X100403455Y-79054609D02*
X100355836Y-79030800D01*
X100355836Y-79030800D02*
X100332027Y-79006990D01*
X100332027Y-79006990D02*
X100308217Y-78959371D01*
X100308217Y-78959371D02*
X100284408Y-78864133D01*
X100284408Y-78864133D02*
X100284408Y-78745085D01*
X100284408Y-78745085D02*
X100308217Y-78649847D01*
X100308217Y-78649847D02*
X100332027Y-78602228D01*
X100332027Y-78602228D02*
X100355836Y-78578419D01*
X100355836Y-78578419D02*
X100403455Y-78554609D01*
X101141550Y-78530800D02*
X100712979Y-79173657D01*
X101593931Y-79054609D02*
X101427265Y-78816514D01*
X101308217Y-79054609D02*
X101308217Y-78554609D01*
X101308217Y-78554609D02*
X101498693Y-78554609D01*
X101498693Y-78554609D02*
X101546312Y-78578419D01*
X101546312Y-78578419D02*
X101570122Y-78602228D01*
X101570122Y-78602228D02*
X101593931Y-78649847D01*
X101593931Y-78649847D02*
X101593931Y-78721276D01*
X101593931Y-78721276D02*
X101570122Y-78768895D01*
X101570122Y-78768895D02*
X101546312Y-78792704D01*
X101546312Y-78792704D02*
X101498693Y-78816514D01*
X101498693Y-78816514D02*
X101308217Y-78816514D01*
X101784408Y-78911752D02*
X102022503Y-78911752D01*
X101736789Y-79054609D02*
X101903455Y-78554609D01*
X101903455Y-78554609D02*
X102070122Y-79054609D01*
X102332026Y-78554609D02*
X102379645Y-78554609D01*
X102379645Y-78554609D02*
X102427264Y-78578419D01*
X102427264Y-78578419D02*
X102451074Y-78602228D01*
X102451074Y-78602228D02*
X102474883Y-78649847D01*
X102474883Y-78649847D02*
X102498693Y-78745085D01*
X102498693Y-78745085D02*
X102498693Y-78864133D01*
X102498693Y-78864133D02*
X102474883Y-78959371D01*
X102474883Y-78959371D02*
X102451074Y-79006990D01*
X102451074Y-79006990D02*
X102427264Y-79030800D01*
X102427264Y-79030800D02*
X102379645Y-79054609D01*
X102379645Y-79054609D02*
X102332026Y-79054609D01*
X102332026Y-79054609D02*
X102284407Y-79030800D01*
X102284407Y-79030800D02*
X102260598Y-79006990D01*
X102260598Y-79006990D02*
X102236788Y-78959371D01*
X102236788Y-78959371D02*
X102212979Y-78864133D01*
X102212979Y-78864133D02*
X102212979Y-78745085D01*
X102212979Y-78745085D02*
X102236788Y-78649847D01*
X102236788Y-78649847D02*
X102260598Y-78602228D01*
X102260598Y-78602228D02*
X102284407Y-78578419D01*
X102284407Y-78578419D02*
X102332026Y-78554609D01*
X99633741Y-76038419D02*
X99586122Y-76014609D01*
X99586122Y-76014609D02*
X99514693Y-76014609D01*
X99514693Y-76014609D02*
X99443265Y-76038419D01*
X99443265Y-76038419D02*
X99395646Y-76086038D01*
X99395646Y-76086038D02*
X99371836Y-76133657D01*
X99371836Y-76133657D02*
X99348027Y-76228895D01*
X99348027Y-76228895D02*
X99348027Y-76300323D01*
X99348027Y-76300323D02*
X99371836Y-76395561D01*
X99371836Y-76395561D02*
X99395646Y-76443180D01*
X99395646Y-76443180D02*
X99443265Y-76490800D01*
X99443265Y-76490800D02*
X99514693Y-76514609D01*
X99514693Y-76514609D02*
X99562312Y-76514609D01*
X99562312Y-76514609D02*
X99633741Y-76490800D01*
X99633741Y-76490800D02*
X99657550Y-76466990D01*
X99657550Y-76466990D02*
X99657550Y-76300323D01*
X99657550Y-76300323D02*
X99562312Y-76300323D01*
X99871836Y-76514609D02*
X99871836Y-76014609D01*
X99871836Y-76014609D02*
X100157550Y-76514609D01*
X100157550Y-76514609D02*
X100157550Y-76014609D01*
X100395646Y-76514609D02*
X100395646Y-76014609D01*
X100395646Y-76014609D02*
X100514694Y-76014609D01*
X100514694Y-76014609D02*
X100586122Y-76038419D01*
X100586122Y-76038419D02*
X100633741Y-76086038D01*
X100633741Y-76086038D02*
X100657551Y-76133657D01*
X100657551Y-76133657D02*
X100681360Y-76228895D01*
X100681360Y-76228895D02*
X100681360Y-76300323D01*
X100681360Y-76300323D02*
X100657551Y-76395561D01*
X100657551Y-76395561D02*
X100633741Y-76443180D01*
X100633741Y-76443180D02*
X100586122Y-76490800D01*
X100586122Y-76490800D02*
X100514694Y-76514609D01*
X100514694Y-76514609D02*
X100395646Y-76514609D01*
X99451217Y-73474609D02*
X99760741Y-73474609D01*
X99760741Y-73474609D02*
X99594074Y-73665085D01*
X99594074Y-73665085D02*
X99665503Y-73665085D01*
X99665503Y-73665085D02*
X99713122Y-73688895D01*
X99713122Y-73688895D02*
X99736931Y-73712704D01*
X99736931Y-73712704D02*
X99760741Y-73760323D01*
X99760741Y-73760323D02*
X99760741Y-73879371D01*
X99760741Y-73879371D02*
X99736931Y-73926990D01*
X99736931Y-73926990D02*
X99713122Y-73950800D01*
X99713122Y-73950800D02*
X99665503Y-73974609D01*
X99665503Y-73974609D02*
X99522646Y-73974609D01*
X99522646Y-73974609D02*
X99475027Y-73950800D01*
X99475027Y-73950800D02*
X99451217Y-73926990D01*
X99975026Y-73926990D02*
X99998836Y-73950800D01*
X99998836Y-73950800D02*
X99975026Y-73974609D01*
X99975026Y-73974609D02*
X99951217Y-73950800D01*
X99951217Y-73950800D02*
X99975026Y-73926990D01*
X99975026Y-73926990D02*
X99975026Y-73974609D01*
X100165502Y-73474609D02*
X100475026Y-73474609D01*
X100475026Y-73474609D02*
X100308359Y-73665085D01*
X100308359Y-73665085D02*
X100379788Y-73665085D01*
X100379788Y-73665085D02*
X100427407Y-73688895D01*
X100427407Y-73688895D02*
X100451216Y-73712704D01*
X100451216Y-73712704D02*
X100475026Y-73760323D01*
X100475026Y-73760323D02*
X100475026Y-73879371D01*
X100475026Y-73879371D02*
X100451216Y-73926990D01*
X100451216Y-73926990D02*
X100427407Y-73950800D01*
X100427407Y-73950800D02*
X100379788Y-73974609D01*
X100379788Y-73974609D02*
X100236931Y-73974609D01*
X100236931Y-73974609D02*
X100189312Y-73950800D01*
X100189312Y-73950800D02*
X100165502Y-73926990D01*
X100617883Y-73474609D02*
X100784549Y-73974609D01*
X100784549Y-73974609D02*
X100951216Y-73474609D01*
D11*
X105520290Y-83371952D02*
X105351931Y-83540310D01*
X105250916Y-83304608D02*
X105351931Y-83540310D01*
X105351931Y-83540310D02*
X105587633Y-83641326D01*
X105116229Y-83573982D02*
X105351931Y-83540310D01*
X105351931Y-83540310D02*
X105318259Y-83776013D01*
X105520290Y-83371952D02*
X105351931Y-83540310D01*
X105250916Y-83304608D02*
X105351931Y-83540310D01*
X105351931Y-83540310D02*
X105587633Y-83641326D01*
X105116229Y-83573982D02*
X105351931Y-83540310D01*
X105351931Y-83540310D02*
X105318259Y-83776013D01*
D12*
%TO.C,R3*%
X108230400Y-94792041D02*
X108230400Y-94484759D01*
X108990400Y-94792041D02*
X108990400Y-94484759D01*
D10*
%TO.C,D1*%
X107160400Y-95728400D02*
G75*
G02*
X107060400Y-95728400I-50000J0D01*
G01*
X107060400Y-95728400D02*
G75*
G02*
X107160400Y-95728400I50000J0D01*
G01*
D12*
%TO.C,R2*%
X105457000Y-81916359D02*
X105457000Y-82223641D01*
X104697000Y-81916359D02*
X104697000Y-82223641D01*
%TO.C,R1*%
X103197000Y-82223641D02*
X103197000Y-81916359D01*
X103957000Y-82223641D02*
X103957000Y-81916359D01*
%TO.C,C3*%
X105970400Y-94530564D02*
X105970400Y-94746236D01*
X105250400Y-94530564D02*
X105250400Y-94746236D01*
%TO.C,C4*%
X106937000Y-82177836D02*
X106937000Y-81962164D01*
X106217000Y-82177836D02*
X106217000Y-81962164D01*
%TO.C,C2*%
X108437000Y-81962164D02*
X108437000Y-82177836D01*
X107717000Y-81962164D02*
X107717000Y-82177836D01*
%TO.C,C1*%
X104470400Y-94746236D02*
X104470400Y-94530564D01*
X103750400Y-94746236D02*
X103750400Y-94530564D01*
D13*
%TO.C,SW1*%
X108865599Y-76438760D02*
X108865599Y-75590400D01*
X102617199Y-78501240D02*
X102617199Y-79349600D01*
X102617199Y-75590400D02*
X102617199Y-76438760D01*
X108865599Y-75590400D02*
X102617199Y-75590400D01*
X108865599Y-79349600D02*
X108865599Y-78501240D01*
X102617199Y-79349600D02*
X108865599Y-79349600D01*
X101627799Y-77470000D02*
G75*
G02*
X101373799Y-77470000I-127000J0D01*
G01*
X101373799Y-77470000D02*
G75*
G02*
X101627799Y-77470000I127000J0D01*
G01*
%TO.C,U1*%
X106797240Y-84218954D02*
X106310000Y-83731714D01*
X110241046Y-88637240D02*
X110728286Y-88150000D01*
X105822760Y-92081046D02*
X106310000Y-92568286D01*
X102378954Y-87662760D02*
X101891714Y-88150000D01*
X106310000Y-83731714D02*
X105822762Y-84218952D01*
X110728286Y-88150000D02*
X110241048Y-87662762D01*
X106310000Y-92568286D02*
X106797238Y-92081048D01*
X101891714Y-88150000D02*
X102378952Y-88637238D01*
D14*
G36*
X110058019Y-89790134D02*
G01*
X109788612Y-90059542D01*
X109609007Y-89879937D01*
X109878414Y-89610529D01*
X110058019Y-89790134D01*
G37*
G36*
X103470613Y-90339557D02*
G01*
X103291008Y-90519162D01*
X103021601Y-90249754D01*
X103201206Y-90070149D01*
X103470613Y-90339557D01*
G37*
%TD*%
M02*
