M48
; DRILL file {KiCad 8.0.5} date 2025-01-09T20:32:42-0800
; FORMAT={-:-/ absolute / inch / decimal}
; #@! TF.CreationDate,2025-01-09T20:32:42-08:00
; #@! TF.GenerationSoftware,Kicad,Pcbnew,8.0.5
; #@! TF.FileFunction,Plated,1,4,PTH
FMAT,2
INCH
; #@! TA.AperFunction,Plated,PTH,ViaDrill
T1C0.0118
; #@! TA.AperFunction,Plated,PTH,ComponentDrill
T2C0.0394
%
G90
G05
T1
X4.0409Y-3.5866
X4.0618Y-2.9752
X4.0807Y-3.5146
X4.0881Y-3.5661
X4.0953Y-3.1039
X4.1055Y-3.1925
X4.1165Y-3.5504
X4.1879Y-3.4073
X4.2118Y-3.2287
X4.2134Y-3.1051
X4.2227Y-3.1916
X4.25Y-3.2421
X4.3295Y-3.2283
T2
X3.9386Y-2.9535
X3.9386Y-3.0535
X3.9386Y-3.1535
X3.9386Y-3.2535
X3.9386Y-3.3535
X3.9386Y-3.4535
X3.9386Y-3.5535
X3.9386Y-3.6535
X3.9386Y-3.7535
X3.9386Y-3.8535
X3.9862Y-2.8327
X4.0862Y-2.8327
X4.0881Y-3.9437
X4.1862Y-2.8327
X4.1881Y-3.9437
X4.2862Y-2.8327
X4.2881Y-3.9437
X4.3862Y-2.8327
X4.4386Y-2.9535
X4.4386Y-3.0535
X4.4386Y-3.1535
X4.4386Y-3.2535
X4.4386Y-3.3535
X4.4386Y-3.4535
X4.4386Y-3.5535
X4.4386Y-3.6535
X4.4386Y-3.7535
M30
