%TF.GenerationSoftware,KiCad,Pcbnew,8.0.5*%
%TF.CreationDate,2025-01-09T20:32:42-08:00*%
%TF.ProjectId,PIC32Flex,50494333-3246-46c6-9578-2e6b69636164,rev?*%
%TF.SameCoordinates,Original*%
%TF.FileFunction,Drillmap*%
%TF.FilePolarity,Positive*%
%FSLAX45Y45*%
G04 Gerber Fmt 4.5, Leading zero omitted, Abs format (unit mm)*
G04 Created by KiCad (PCBNEW 8.0.5) date 2025-01-09 20:32:42*
%MOMM*%
%LPD*%
G01*
G04 APERTURE LIST*
%ADD10C,0.050000*%
%ADD11C,0.200000*%
G04 APERTURE END LIST*
D10*
X9861421Y-7240000D02*
G75*
G02*
X10061421Y-7040000I200000J0D01*
G01*
X11420000Y-7240000D02*
X11420000Y-9968579D01*
X10061421Y-7040000D02*
X11220000Y-7040000D01*
X10061421Y-10168579D02*
G75*
G02*
X9861421Y-9968579I0J200000D01*
G01*
X11420000Y-9968579D02*
G75*
G02*
X11220000Y-10168579I-200000J0D01*
G01*
X11220000Y-10168579D02*
X10061421Y-10168579D01*
X11220000Y-7040000D02*
G75*
G02*
X11420000Y-7240000I0J-200000D01*
G01*
X9861421Y-9968579D02*
X9861421Y-7240000D01*
D11*
X10119698Y-10482562D02*
X10119698Y-10282562D01*
X10119698Y-10282562D02*
X10167317Y-10282562D01*
X10167317Y-10282562D02*
X10195889Y-10292086D01*
X10195889Y-10292086D02*
X10214936Y-10311134D01*
X10214936Y-10311134D02*
X10224460Y-10330181D01*
X10224460Y-10330181D02*
X10233984Y-10368277D01*
X10233984Y-10368277D02*
X10233984Y-10396848D01*
X10233984Y-10396848D02*
X10224460Y-10434943D01*
X10224460Y-10434943D02*
X10214936Y-10453991D01*
X10214936Y-10453991D02*
X10195889Y-10473039D01*
X10195889Y-10473039D02*
X10167317Y-10482562D01*
X10167317Y-10482562D02*
X10119698Y-10482562D01*
X10319698Y-10482562D02*
X10319698Y-10349229D01*
X10319698Y-10387324D02*
X10329222Y-10368277D01*
X10329222Y-10368277D02*
X10338746Y-10358753D01*
X10338746Y-10358753D02*
X10357793Y-10349229D01*
X10357793Y-10349229D02*
X10376841Y-10349229D01*
X10443508Y-10482562D02*
X10443508Y-10349229D01*
X10443508Y-10282562D02*
X10433984Y-10292086D01*
X10433984Y-10292086D02*
X10443508Y-10301610D01*
X10443508Y-10301610D02*
X10453032Y-10292086D01*
X10453032Y-10292086D02*
X10443508Y-10282562D01*
X10443508Y-10282562D02*
X10443508Y-10301610D01*
X10567317Y-10482562D02*
X10548270Y-10473039D01*
X10548270Y-10473039D02*
X10538746Y-10453991D01*
X10538746Y-10453991D02*
X10538746Y-10282562D01*
X10672079Y-10482562D02*
X10653032Y-10473039D01*
X10653032Y-10473039D02*
X10643508Y-10453991D01*
X10643508Y-10453991D02*
X10643508Y-10282562D01*
X10900651Y-10482562D02*
X10900651Y-10282562D01*
X10900651Y-10282562D02*
X10967317Y-10425420D01*
X10967317Y-10425420D02*
X11033984Y-10282562D01*
X11033984Y-10282562D02*
X11033984Y-10482562D01*
X11214936Y-10482562D02*
X11214936Y-10377801D01*
X11214936Y-10377801D02*
X11205412Y-10358753D01*
X11205412Y-10358753D02*
X11186365Y-10349229D01*
X11186365Y-10349229D02*
X11148270Y-10349229D01*
X11148270Y-10349229D02*
X11129222Y-10358753D01*
X11214936Y-10473039D02*
X11195889Y-10482562D01*
X11195889Y-10482562D02*
X11148270Y-10482562D01*
X11148270Y-10482562D02*
X11129222Y-10473039D01*
X11129222Y-10473039D02*
X11119698Y-10453991D01*
X11119698Y-10453991D02*
X11119698Y-10434943D01*
X11119698Y-10434943D02*
X11129222Y-10415896D01*
X11129222Y-10415896D02*
X11148270Y-10406372D01*
X11148270Y-10406372D02*
X11195889Y-10406372D01*
X11195889Y-10406372D02*
X11214936Y-10396848D01*
X11310174Y-10349229D02*
X11310174Y-10549229D01*
X11310174Y-10358753D02*
X11329222Y-10349229D01*
X11329222Y-10349229D02*
X11367317Y-10349229D01*
X11367317Y-10349229D02*
X11386365Y-10358753D01*
X11386365Y-10358753D02*
X11395889Y-10368277D01*
X11395889Y-10368277D02*
X11405412Y-10387324D01*
X11405412Y-10387324D02*
X11405412Y-10444467D01*
X11405412Y-10444467D02*
X11395889Y-10463515D01*
X11395889Y-10463515D02*
X11386365Y-10473039D01*
X11386365Y-10473039D02*
X11367317Y-10482562D01*
X11367317Y-10482562D02*
X11329222Y-10482562D01*
X11329222Y-10482562D02*
X11310174Y-10473039D01*
X11491127Y-10463515D02*
X11500651Y-10473039D01*
X11500651Y-10473039D02*
X11491127Y-10482562D01*
X11491127Y-10482562D02*
X11481603Y-10473039D01*
X11481603Y-10473039D02*
X11491127Y-10463515D01*
X11491127Y-10463515D02*
X11491127Y-10482562D01*
X11491127Y-10358753D02*
X11500651Y-10368277D01*
X11500651Y-10368277D02*
X11491127Y-10377801D01*
X11491127Y-10377801D02*
X11481603Y-10368277D01*
X11481603Y-10368277D02*
X11491127Y-10358753D01*
X11491127Y-10358753D02*
X11491127Y-10377801D01*
M02*
