%TF.GenerationSoftware,KiCad,Pcbnew,8.0.6*%
%TF.CreationDate,2024-11-24T13:18:03-08:00*%
%TF.ProjectId,pic32_breakout,70696333-325f-4627-9265-616b6f75742e,rev?*%
%TF.SameCoordinates,Original*%
%TF.FileFunction,Copper,L3,Inr*%
%TF.FilePolarity,Positive*%
%FSLAX46Y46*%
G04 Gerber Fmt 4.6, Leading zero omitted, Abs format (unit mm)*
G04 Created by KiCad (PCBNEW 8.0.6) date 2024-11-24 13:18:03*
%MOMM*%
%LPD*%
G01*
G04 APERTURE LIST*
%ADD10C,0.300000*%
%TA.AperFunction,NonConductor*%
%ADD11C,0.300000*%
%TD*%
%TA.AperFunction,ComponentPad*%
%ADD12O,1.700000X1.700000*%
%TD*%
%TA.AperFunction,ComponentPad*%
%ADD13R,1.700000X1.700000*%
%TD*%
%TA.AperFunction,ViaPad*%
%ADD14C,0.600000*%
%TD*%
G04 APERTURE END LIST*
D10*
D11*
X113271866Y-96256968D02*
X113271866Y-97123634D01*
X113271866Y-97123634D02*
X113805200Y-96656968D01*
X113805200Y-96656968D02*
X113805200Y-96856968D01*
X113805200Y-96856968D02*
X113871866Y-96990301D01*
X113871866Y-96990301D02*
X113938533Y-97056968D01*
X113938533Y-97056968D02*
X114071866Y-97123634D01*
X114071866Y-97123634D02*
X114405200Y-97123634D01*
X114405200Y-97123634D02*
X114538533Y-97056968D01*
X114538533Y-97056968D02*
X114605200Y-96990301D01*
X114605200Y-96990301D02*
X114671866Y-96856968D01*
X114671866Y-96856968D02*
X114671866Y-96456968D01*
X114671866Y-96456968D02*
X114605200Y-96323634D01*
X114605200Y-96323634D02*
X114538533Y-96256968D01*
D12*
%TO.N,GND*%
%TO.C,J1*%
X111180000Y-100400000D03*
%TO.N,/RXD*%
X108640000Y-100400000D03*
D13*
%TO.N,/TXD*%
X106100000Y-100400000D03*
%TD*%
D12*
%TO.N,/PGClk*%
%TO.C,J2*%
X111620000Y-71800000D03*
%TO.N,/PGData*%
X109080000Y-71800000D03*
%TO.N,GND*%
X106540000Y-71800000D03*
%TO.N,+3.3V*%
X104000000Y-71800000D03*
D13*
%TO.N,/MCLR*%
X101460000Y-71800000D03*
%TD*%
D12*
%TO.N,/17{slash}RB8*%
%TO.C,J5*%
X112700000Y-92780000D03*
%TO.N,/18{slash}RB9*%
X112700000Y-90240000D03*
%TO.N,/21{slash}RB10*%
X112700000Y-87700000D03*
%TO.N,/22{slash}RB11*%
X112700000Y-85160000D03*
%TO.N,/23{slash}AN12{slash}RB12*%
X112700000Y-82620000D03*
%TO.N,/24{slash}AN11{slash}RB13*%
X112700000Y-80080000D03*
%TO.N,/25{slash}AN10{slash}RB14*%
X112700000Y-77540000D03*
D13*
%TO.N,/26{slash}AN9{slash}RB15*%
X112700000Y-75000000D03*
%TD*%
%TO.N,+3.3V*%
%TO.C,J3*%
X100000000Y-75000000D03*
D12*
%TO.N,GND*%
X100000000Y-77540000D03*
%TO.N,/2{slash}AN0{slash}RA0*%
X100000000Y-80080000D03*
%TO.N,/3{slash}AN1{slash}RA1*%
X100000000Y-82620000D03*
%TO.N,/6{slash}AN4{slash}RB2*%
X100000000Y-85160000D03*
%TO.N,/7{slash}AN5{slash}RB3*%
X100000000Y-87700000D03*
%TO.N,/9{slash}RA2*%
X100000000Y-90240000D03*
%TO.N,/10{slash}RA3*%
X100000000Y-92780000D03*
%TO.N,/11{slash}RB4*%
X100000000Y-95320000D03*
%TO.N,/12{slash}RA4*%
X100000000Y-97860000D03*
%TO.N,/14{slash}RB5*%
X100000000Y-100400000D03*
%TD*%
D14*
%TO.N,+3.3V*%
X103343000Y-94137565D03*
%TO.N,Net-(D1-A)*%
X108610400Y-96062800D03*
X107188000Y-93116400D03*
%TO.N,Net-(U1-Vcap)*%
X105613200Y-93319600D03*
%TO.N,GND*%
X107137200Y-96012000D03*
%TO.N,+3.3V*%
X108610400Y-93319600D03*
%TO.N,GND*%
X105613200Y-96012000D03*
X104089200Y-96012000D03*
X101854000Y-89611200D03*
X107848400Y-77470000D03*
%TO.N,+3.3V*%
X105199265Y-83395735D03*
%TO.N,GND*%
X106680000Y-83312000D03*
X108077000Y-80772000D03*
X106299000Y-88138000D03*
%TO.N,/PGClk*%
X102997000Y-85725000D03*
%TO.N,/PGData*%
X102650854Y-84420147D03*
%TO.N,GND*%
X110582000Y-90511222D03*
%TO.N,Net-(U1-Vcap)*%
X109982000Y-89916000D03*
%TO.N,/14{slash}RB5*%
X105600500Y-92519500D03*
%TO.N,GND*%
X108204000Y-84455000D03*
%TD*%
%TA.AperFunction,Conductor*%
%TO.N,+3.3V*%
G36*
X112853843Y-69898365D02*
G01*
X113076590Y-69912964D01*
X113092648Y-69915079D01*
X113278675Y-69952082D01*
X113307571Y-69957830D01*
X113323238Y-69962028D01*
X113476369Y-70014009D01*
X113530744Y-70032467D01*
X113545721Y-70038670D01*
X113736591Y-70132796D01*
X113742260Y-70135592D01*
X113756308Y-70143702D01*
X113938512Y-70265448D01*
X113951373Y-70275316D01*
X114056295Y-70367330D01*
X114116128Y-70419802D01*
X114127597Y-70431271D01*
X114193311Y-70506204D01*
X114237960Y-70557117D01*
X114272080Y-70596023D01*
X114281954Y-70608891D01*
X114403697Y-70791092D01*
X114411807Y-70805139D01*
X114508726Y-71001671D01*
X114514933Y-71016657D01*
X114585371Y-71224161D01*
X114589569Y-71239828D01*
X114632318Y-71454740D01*
X114634436Y-71470821D01*
X114649035Y-71693556D01*
X114649300Y-71701666D01*
X114649300Y-95477468D01*
X114629615Y-95544507D01*
X114576811Y-95590262D01*
X114525300Y-95601468D01*
X112614724Y-95601468D01*
X112614724Y-97780859D01*
X114525300Y-97780859D01*
X114592339Y-97800544D01*
X114638094Y-97853348D01*
X114649300Y-97904859D01*
X114649300Y-100193533D01*
X114649035Y-100201643D01*
X114634436Y-100424378D01*
X114632318Y-100440459D01*
X114589569Y-100655371D01*
X114585371Y-100671038D01*
X114514933Y-100878542D01*
X114508726Y-100893528D01*
X114411807Y-101090060D01*
X114403697Y-101104107D01*
X114281954Y-101286308D01*
X114272080Y-101299176D01*
X114127597Y-101463928D01*
X114116128Y-101475397D01*
X113951376Y-101619880D01*
X113938508Y-101629754D01*
X113756307Y-101751497D01*
X113742260Y-101759607D01*
X113545728Y-101856526D01*
X113530742Y-101862733D01*
X113323238Y-101933171D01*
X113307571Y-101937369D01*
X113092659Y-101980118D01*
X113076578Y-101982236D01*
X112853843Y-101996835D01*
X112845733Y-101997100D01*
X111260381Y-101997100D01*
X111193342Y-101977415D01*
X111181931Y-101964246D01*
X111124051Y-101994669D01*
X111099619Y-101997100D01*
X108720381Y-101997100D01*
X108653342Y-101977415D01*
X108641931Y-101964246D01*
X108584051Y-101994669D01*
X108559619Y-101997100D01*
X107017536Y-101997100D01*
X106950497Y-101977415D01*
X106904742Y-101924611D01*
X106894798Y-101855453D01*
X106923823Y-101791897D01*
X106982601Y-101754123D01*
X107004283Y-101749810D01*
X107057483Y-101744091D01*
X107192328Y-101693797D01*
X107192327Y-101693797D01*
X107192331Y-101693796D01*
X107307546Y-101607546D01*
X107393796Y-101492331D01*
X107442810Y-101360916D01*
X107484681Y-101304984D01*
X107550145Y-101280566D01*
X107618418Y-101295417D01*
X107646673Y-101316569D01*
X107768599Y-101438495D01*
X107865384Y-101506265D01*
X107962165Y-101574032D01*
X107962167Y-101574033D01*
X107962170Y-101574035D01*
X108176337Y-101673903D01*
X108404592Y-101735063D01*
X108570427Y-101749572D01*
X108635495Y-101775025D01*
X108641029Y-101782667D01*
X108685446Y-101754123D01*
X108709573Y-101749572D01*
X108875408Y-101735063D01*
X109103663Y-101673903D01*
X109317830Y-101574035D01*
X109511401Y-101438495D01*
X109678495Y-101271401D01*
X109800367Y-101097350D01*
X109808425Y-101085842D01*
X109863002Y-101042217D01*
X109932500Y-101035023D01*
X109994855Y-101066546D01*
X110011575Y-101085842D01*
X110141500Y-101271395D01*
X110141505Y-101271401D01*
X110308599Y-101438495D01*
X110405384Y-101506265D01*
X110502165Y-101574032D01*
X110502167Y-101574033D01*
X110502170Y-101574035D01*
X110716337Y-101673903D01*
X110944592Y-101735063D01*
X111110427Y-101749572D01*
X111175495Y-101775025D01*
X111181029Y-101782667D01*
X111225446Y-101754123D01*
X111249573Y-101749572D01*
X111415408Y-101735063D01*
X111643663Y-101673903D01*
X111857830Y-101574035D01*
X112051401Y-101438495D01*
X112218495Y-101271401D01*
X112354035Y-101077830D01*
X112453903Y-100863663D01*
X112515063Y-100635408D01*
X112535659Y-100400000D01*
X112515063Y-100164592D01*
X112453903Y-99936337D01*
X112354035Y-99722171D01*
X112348425Y-99714158D01*
X112218494Y-99528597D01*
X112051402Y-99361506D01*
X112051395Y-99361501D01*
X111857834Y-99225967D01*
X111857830Y-99225965D01*
X111857828Y-99225964D01*
X111643663Y-99126097D01*
X111643659Y-99126096D01*
X111643655Y-99126094D01*
X111415413Y-99064938D01*
X111415403Y-99064936D01*
X111180001Y-99044341D01*
X111179999Y-99044341D01*
X110944596Y-99064936D01*
X110944586Y-99064938D01*
X110716344Y-99126094D01*
X110716335Y-99126098D01*
X110502171Y-99225964D01*
X110502169Y-99225965D01*
X110308597Y-99361505D01*
X110141505Y-99528597D01*
X110011575Y-99714158D01*
X109956998Y-99757783D01*
X109887500Y-99764977D01*
X109825145Y-99733454D01*
X109808425Y-99714158D01*
X109678494Y-99528597D01*
X109511402Y-99361506D01*
X109511395Y-99361501D01*
X109317834Y-99225967D01*
X109317830Y-99225965D01*
X109317828Y-99225964D01*
X109103663Y-99126097D01*
X109103659Y-99126096D01*
X109103655Y-99126094D01*
X108875413Y-99064938D01*
X108875403Y-99064936D01*
X108640001Y-99044341D01*
X108639999Y-99044341D01*
X108404596Y-99064936D01*
X108404586Y-99064938D01*
X108176344Y-99126094D01*
X108176335Y-99126098D01*
X107962171Y-99225964D01*
X107962169Y-99225965D01*
X107768600Y-99361503D01*
X107646673Y-99483430D01*
X107585350Y-99516914D01*
X107515658Y-99511930D01*
X107459725Y-99470058D01*
X107442810Y-99439081D01*
X107393797Y-99307671D01*
X107393793Y-99307664D01*
X107307547Y-99192455D01*
X107307544Y-99192452D01*
X107192335Y-99106206D01*
X107192328Y-99106202D01*
X107057482Y-99055908D01*
X107057483Y-99055908D01*
X106997883Y-99049501D01*
X106997881Y-99049500D01*
X106997873Y-99049500D01*
X106997864Y-99049500D01*
X105202129Y-99049500D01*
X105202123Y-99049501D01*
X105142516Y-99055908D01*
X105007671Y-99106202D01*
X105007664Y-99106206D01*
X104892455Y-99192452D01*
X104892452Y-99192455D01*
X104806206Y-99307664D01*
X104806202Y-99307671D01*
X104755908Y-99442517D01*
X104749501Y-99502116D01*
X104749500Y-99502135D01*
X104749500Y-101297870D01*
X104749501Y-101297876D01*
X104755908Y-101357483D01*
X104806202Y-101492328D01*
X104806206Y-101492335D01*
X104892452Y-101607544D01*
X104892455Y-101607547D01*
X105007664Y-101693793D01*
X105007671Y-101693797D01*
X105052618Y-101710561D01*
X105142517Y-101744091D01*
X105195721Y-101749811D01*
X105260269Y-101776549D01*
X105300117Y-101833941D01*
X105302611Y-101903766D01*
X105266959Y-101963855D01*
X105204479Y-101995130D01*
X105182463Y-101997100D01*
X100080381Y-101997100D01*
X100013342Y-101977415D01*
X100001931Y-101964246D01*
X99944051Y-101994669D01*
X99919619Y-101997100D01*
X99853867Y-101997100D01*
X99845757Y-101996835D01*
X99623021Y-101982236D01*
X99606940Y-101980118D01*
X99392028Y-101937369D01*
X99376361Y-101933171D01*
X99168857Y-101862733D01*
X99153871Y-101856526D01*
X98957339Y-101759607D01*
X98943292Y-101751497D01*
X98761091Y-101629754D01*
X98748223Y-101619880D01*
X98734156Y-101607544D01*
X98602785Y-101492335D01*
X98583471Y-101475397D01*
X98572002Y-101463928D01*
X98478653Y-101357483D01*
X98427516Y-101299173D01*
X98417645Y-101286308D01*
X98413808Y-101280566D01*
X98295902Y-101104107D01*
X98287792Y-101090060D01*
X98265405Y-101044664D01*
X98190870Y-100893521D01*
X98184666Y-100878542D01*
X98114228Y-100671038D01*
X98110030Y-100655371D01*
X98098017Y-100594976D01*
X98067279Y-100440448D01*
X98065164Y-100424390D01*
X98050565Y-100201643D01*
X98050300Y-100193533D01*
X98050300Y-77539999D01*
X98644341Y-77539999D01*
X98644341Y-77540000D01*
X98664936Y-77775403D01*
X98664938Y-77775413D01*
X98726094Y-78003655D01*
X98726096Y-78003659D01*
X98726097Y-78003663D01*
X98770934Y-78099815D01*
X98825965Y-78217830D01*
X98825967Y-78217834D01*
X98961501Y-78411395D01*
X98961506Y-78411402D01*
X99128597Y-78578493D01*
X99128603Y-78578498D01*
X99314158Y-78708425D01*
X99357783Y-78763002D01*
X99364977Y-78832500D01*
X99333454Y-78894855D01*
X99314158Y-78911575D01*
X99128597Y-79041505D01*
X98961505Y-79208597D01*
X98825965Y-79402169D01*
X98825964Y-79402171D01*
X98726098Y-79616335D01*
X98726094Y-79616344D01*
X98664938Y-79844586D01*
X98664936Y-79844596D01*
X98644341Y-80079999D01*
X98644341Y-80080000D01*
X98664936Y-80315403D01*
X98664938Y-80315413D01*
X98726094Y-80543655D01*
X98726096Y-80543659D01*
X98726097Y-80543663D01*
X98748987Y-80592750D01*
X98825965Y-80757830D01*
X98825967Y-80757834D01*
X98961501Y-80951395D01*
X98961506Y-80951402D01*
X99128597Y-81118493D01*
X99128603Y-81118498D01*
X99314158Y-81248425D01*
X99357783Y-81303002D01*
X99364977Y-81372500D01*
X99333454Y-81434855D01*
X99314158Y-81451575D01*
X99128597Y-81581505D01*
X98961505Y-81748597D01*
X98825965Y-81942169D01*
X98825964Y-81942171D01*
X98726098Y-82156335D01*
X98726094Y-82156344D01*
X98664938Y-82384586D01*
X98664936Y-82384596D01*
X98644341Y-82619999D01*
X98644341Y-82620000D01*
X98664936Y-82855403D01*
X98664938Y-82855413D01*
X98726094Y-83083655D01*
X98726096Y-83083659D01*
X98726097Y-83083663D01*
X98748987Y-83132750D01*
X98825965Y-83297830D01*
X98825967Y-83297834D01*
X98961501Y-83491395D01*
X98961506Y-83491402D01*
X99128597Y-83658493D01*
X99128603Y-83658498D01*
X99314158Y-83788425D01*
X99357783Y-83843002D01*
X99364977Y-83912500D01*
X99333454Y-83974855D01*
X99314158Y-83991575D01*
X99128597Y-84121505D01*
X98961505Y-84288597D01*
X98825965Y-84482169D01*
X98825964Y-84482171D01*
X98726098Y-84696335D01*
X98726094Y-84696344D01*
X98664938Y-84924586D01*
X98664936Y-84924596D01*
X98644341Y-85159999D01*
X98644341Y-85160000D01*
X98664936Y-85395403D01*
X98664938Y-85395413D01*
X98726094Y-85623655D01*
X98726096Y-85623659D01*
X98726097Y-85623663D01*
X98773353Y-85725003D01*
X98825965Y-85837830D01*
X98825967Y-85837834D01*
X98961501Y-86031395D01*
X98961506Y-86031402D01*
X99128597Y-86198493D01*
X99128603Y-86198498D01*
X99314158Y-86328425D01*
X99357783Y-86383002D01*
X99364977Y-86452500D01*
X99333454Y-86514855D01*
X99314158Y-86531575D01*
X99128597Y-86661505D01*
X98961505Y-86828597D01*
X98825965Y-87022169D01*
X98825964Y-87022171D01*
X98726098Y-87236335D01*
X98726094Y-87236344D01*
X98664938Y-87464586D01*
X98664936Y-87464596D01*
X98644341Y-87699999D01*
X98644341Y-87700000D01*
X98664936Y-87935403D01*
X98664938Y-87935413D01*
X98726094Y-88163655D01*
X98726096Y-88163659D01*
X98726097Y-88163663D01*
X98797716Y-88317249D01*
X98825965Y-88377830D01*
X98825967Y-88377834D01*
X98961501Y-88571395D01*
X98961506Y-88571402D01*
X99128597Y-88738493D01*
X99128603Y-88738498D01*
X99314158Y-88868425D01*
X99357783Y-88923002D01*
X99364977Y-88992500D01*
X99333454Y-89054855D01*
X99314158Y-89071575D01*
X99128597Y-89201505D01*
X98961505Y-89368597D01*
X98825965Y-89562169D01*
X98825964Y-89562171D01*
X98726098Y-89776335D01*
X98726094Y-89776344D01*
X98664938Y-90004586D01*
X98664936Y-90004596D01*
X98644341Y-90239999D01*
X98644341Y-90240000D01*
X98664936Y-90475403D01*
X98664938Y-90475413D01*
X98726094Y-90703655D01*
X98726096Y-90703659D01*
X98726097Y-90703663D01*
X98734390Y-90721447D01*
X98825965Y-90917830D01*
X98825967Y-90917834D01*
X98961501Y-91111395D01*
X98961506Y-91111402D01*
X99128597Y-91278493D01*
X99128603Y-91278498D01*
X99314158Y-91408425D01*
X99357783Y-91463002D01*
X99364977Y-91532500D01*
X99333454Y-91594855D01*
X99314158Y-91611575D01*
X99128597Y-91741505D01*
X98961505Y-91908597D01*
X98825965Y-92102169D01*
X98825964Y-92102171D01*
X98726098Y-92316335D01*
X98726094Y-92316344D01*
X98664938Y-92544586D01*
X98664936Y-92544596D01*
X98644341Y-92779999D01*
X98644341Y-92780000D01*
X98664936Y-93015403D01*
X98664938Y-93015413D01*
X98726094Y-93243655D01*
X98726096Y-93243659D01*
X98726097Y-93243663D01*
X98825965Y-93457830D01*
X98825967Y-93457834D01*
X98961501Y-93651395D01*
X98961506Y-93651402D01*
X99128597Y-93818493D01*
X99128603Y-93818498D01*
X99314158Y-93948425D01*
X99357783Y-94003002D01*
X99364977Y-94072500D01*
X99333454Y-94134855D01*
X99314158Y-94151575D01*
X99128597Y-94281505D01*
X98961505Y-94448597D01*
X98825965Y-94642169D01*
X98825964Y-94642171D01*
X98726098Y-94856335D01*
X98726094Y-94856344D01*
X98664938Y-95084586D01*
X98664936Y-95084596D01*
X98644341Y-95319999D01*
X98644341Y-95320000D01*
X98664936Y-95555403D01*
X98664938Y-95555413D01*
X98726094Y-95783655D01*
X98726096Y-95783659D01*
X98726097Y-95783663D01*
X98748987Y-95832750D01*
X98825965Y-95997830D01*
X98825967Y-95997834D01*
X98961501Y-96191395D01*
X98961506Y-96191402D01*
X99128597Y-96358493D01*
X99128603Y-96358498D01*
X99314158Y-96488425D01*
X99357783Y-96543002D01*
X99364977Y-96612500D01*
X99333454Y-96674855D01*
X99314158Y-96691575D01*
X99128597Y-96821505D01*
X98961505Y-96988597D01*
X98825965Y-97182169D01*
X98825964Y-97182171D01*
X98726098Y-97396335D01*
X98726094Y-97396344D01*
X98664938Y-97624586D01*
X98664936Y-97624596D01*
X98644341Y-97859999D01*
X98644341Y-97860000D01*
X98664936Y-98095403D01*
X98664938Y-98095413D01*
X98726094Y-98323655D01*
X98726096Y-98323659D01*
X98726097Y-98323663D01*
X98825965Y-98537830D01*
X98825967Y-98537834D01*
X98961501Y-98731395D01*
X98961506Y-98731402D01*
X99128597Y-98898493D01*
X99128603Y-98898498D01*
X99314158Y-99028425D01*
X99357783Y-99083002D01*
X99364977Y-99152500D01*
X99333454Y-99214855D01*
X99314158Y-99231575D01*
X99128597Y-99361505D01*
X98961505Y-99528597D01*
X98825965Y-99722169D01*
X98825964Y-99722171D01*
X98726098Y-99936335D01*
X98726094Y-99936344D01*
X98664938Y-100164586D01*
X98664936Y-100164596D01*
X98644341Y-100399999D01*
X98644341Y-100400000D01*
X98664936Y-100635403D01*
X98664938Y-100635413D01*
X98726094Y-100863655D01*
X98726096Y-100863659D01*
X98726097Y-100863663D01*
X98806004Y-101035023D01*
X98825965Y-101077830D01*
X98825967Y-101077834D01*
X98844364Y-101104107D01*
X98961505Y-101271401D01*
X99128599Y-101438495D01*
X99225384Y-101506265D01*
X99322165Y-101574032D01*
X99322167Y-101574033D01*
X99322170Y-101574035D01*
X99536337Y-101673903D01*
X99764592Y-101735063D01*
X99930427Y-101749572D01*
X99995495Y-101775025D01*
X100001029Y-101782667D01*
X100045446Y-101754123D01*
X100069573Y-101749572D01*
X100235408Y-101735063D01*
X100463663Y-101673903D01*
X100677830Y-101574035D01*
X100871401Y-101438495D01*
X101038495Y-101271401D01*
X101174035Y-101077830D01*
X101273903Y-100863663D01*
X101335063Y-100635408D01*
X101355659Y-100400000D01*
X101335063Y-100164592D01*
X101273903Y-99936337D01*
X101174035Y-99722171D01*
X101168425Y-99714158D01*
X101038494Y-99528597D01*
X100871402Y-99361506D01*
X100871396Y-99361501D01*
X100685842Y-99231575D01*
X100642217Y-99176998D01*
X100635023Y-99107500D01*
X100666546Y-99045145D01*
X100685842Y-99028425D01*
X100708026Y-99012891D01*
X100871401Y-98898495D01*
X101038495Y-98731401D01*
X101174035Y-98537830D01*
X101273903Y-98323663D01*
X101335063Y-98095408D01*
X101355659Y-97860000D01*
X101335063Y-97624592D01*
X101273903Y-97396337D01*
X101174035Y-97182171D01*
X101038495Y-96988599D01*
X101038494Y-96988597D01*
X100871402Y-96821506D01*
X100871396Y-96821501D01*
X100685842Y-96691575D01*
X100642217Y-96636998D01*
X100635023Y-96567500D01*
X100666546Y-96505145D01*
X100685842Y-96488425D01*
X100710743Y-96470989D01*
X100871401Y-96358495D01*
X101038495Y-96191401D01*
X101164116Y-96011996D01*
X103283635Y-96011996D01*
X103283635Y-96012003D01*
X103303830Y-96191249D01*
X103303831Y-96191254D01*
X103363411Y-96361523D01*
X103453655Y-96505145D01*
X103459384Y-96514262D01*
X103586938Y-96641816D01*
X103739678Y-96737789D01*
X103884853Y-96788588D01*
X103909945Y-96797368D01*
X103909950Y-96797369D01*
X104089196Y-96817565D01*
X104089200Y-96817565D01*
X104089204Y-96817565D01*
X104268449Y-96797369D01*
X104268452Y-96797368D01*
X104268455Y-96797368D01*
X104438722Y-96737789D01*
X104591462Y-96641816D01*
X104719016Y-96514262D01*
X104746206Y-96470988D01*
X104798541Y-96424698D01*
X104867594Y-96414050D01*
X104931443Y-96442425D01*
X104956193Y-96470987D01*
X104983384Y-96514262D01*
X105110938Y-96641816D01*
X105263678Y-96737789D01*
X105408853Y-96788588D01*
X105433945Y-96797368D01*
X105433950Y-96797369D01*
X105613196Y-96817565D01*
X105613200Y-96817565D01*
X105613204Y-96817565D01*
X105792449Y-96797369D01*
X105792452Y-96797368D01*
X105792455Y-96797368D01*
X105962722Y-96737789D01*
X106115462Y-96641816D01*
X106243016Y-96514262D01*
X106270206Y-96470988D01*
X106322541Y-96424698D01*
X106391594Y-96414050D01*
X106455443Y-96442425D01*
X106480193Y-96470987D01*
X106507384Y-96514262D01*
X106634938Y-96641816D01*
X106787678Y-96737789D01*
X106932853Y-96788588D01*
X106957945Y-96797368D01*
X106957950Y-96797369D01*
X107137196Y-96817565D01*
X107137200Y-96817565D01*
X107137204Y-96817565D01*
X107316449Y-96797369D01*
X107316452Y-96797368D01*
X107316455Y-96797368D01*
X107486722Y-96737789D01*
X107639462Y-96641816D01*
X107767016Y-96514262D01*
X107767019Y-96514256D01*
X107768620Y-96512656D01*
X107829943Y-96479171D01*
X107899635Y-96484155D01*
X107955569Y-96526026D01*
X107961293Y-96534361D01*
X107980584Y-96565062D01*
X108108138Y-96692616D01*
X108260878Y-96788589D01*
X108431145Y-96848168D01*
X108431150Y-96848169D01*
X108610396Y-96868365D01*
X108610400Y-96868365D01*
X108610404Y-96868365D01*
X108789649Y-96848169D01*
X108789652Y-96848168D01*
X108789655Y-96848168D01*
X108959922Y-96788589D01*
X109112662Y-96692616D01*
X109240216Y-96565062D01*
X109336189Y-96412322D01*
X109395768Y-96242055D01*
X109401475Y-96191402D01*
X109415965Y-96062803D01*
X109415965Y-96062796D01*
X109395769Y-95883550D01*
X109395768Y-95883545D01*
X109336188Y-95713276D01*
X109264573Y-95599302D01*
X109240216Y-95560538D01*
X109112662Y-95432984D01*
X109112660Y-95432983D01*
X108959923Y-95337011D01*
X108789654Y-95277431D01*
X108789649Y-95277430D01*
X108610404Y-95257235D01*
X108610396Y-95257235D01*
X108431150Y-95277430D01*
X108431145Y-95277431D01*
X108260876Y-95337011D01*
X108108139Y-95432983D01*
X107978978Y-95562144D01*
X107917655Y-95595628D01*
X107847963Y-95590644D01*
X107792030Y-95548772D01*
X107786303Y-95540433D01*
X107767018Y-95509740D01*
X107639462Y-95382184D01*
X107486723Y-95286211D01*
X107316454Y-95226631D01*
X107316449Y-95226630D01*
X107137204Y-95206435D01*
X107137196Y-95206435D01*
X106957950Y-95226630D01*
X106957945Y-95226631D01*
X106787676Y-95286211D01*
X106634937Y-95382184D01*
X106507384Y-95509737D01*
X106507382Y-95509740D01*
X106480193Y-95553011D01*
X106427858Y-95599302D01*
X106358805Y-95609949D01*
X106294956Y-95581574D01*
X106270207Y-95553011D01*
X106243017Y-95509740D01*
X106243015Y-95509737D01*
X106115462Y-95382184D01*
X105962723Y-95286211D01*
X105792454Y-95226631D01*
X105792449Y-95226630D01*
X105613204Y-95206435D01*
X105613196Y-95206435D01*
X105433950Y-95226630D01*
X105433945Y-95226631D01*
X105263676Y-95286211D01*
X105110937Y-95382184D01*
X104983384Y-95509737D01*
X104983382Y-95509740D01*
X104956193Y-95553011D01*
X104903858Y-95599302D01*
X104834805Y-95609949D01*
X104770956Y-95581574D01*
X104746207Y-95553011D01*
X104719017Y-95509740D01*
X104719015Y-95509737D01*
X104591462Y-95382184D01*
X104438723Y-95286211D01*
X104268454Y-95226631D01*
X104268449Y-95226630D01*
X104089204Y-95206435D01*
X104089196Y-95206435D01*
X103909950Y-95226630D01*
X103909945Y-95226631D01*
X103739676Y-95286211D01*
X103586937Y-95382184D01*
X103459384Y-95509737D01*
X103363411Y-95662476D01*
X103303831Y-95832745D01*
X103303830Y-95832750D01*
X103283635Y-96011996D01*
X101164116Y-96011996D01*
X101174035Y-95997830D01*
X101273903Y-95783663D01*
X101335063Y-95555408D01*
X101355659Y-95320000D01*
X101335063Y-95084592D01*
X101273903Y-94856337D01*
X101174035Y-94642171D01*
X101038495Y-94448599D01*
X101038494Y-94448597D01*
X100871402Y-94281506D01*
X100871396Y-94281501D01*
X100685842Y-94151575D01*
X100642217Y-94096998D01*
X100635023Y-94027500D01*
X100666546Y-93965145D01*
X100685842Y-93948425D01*
X100723631Y-93921965D01*
X100871401Y-93818495D01*
X101038495Y-93651401D01*
X101174035Y-93457830D01*
X101273903Y-93243663D01*
X101335063Y-93015408D01*
X101355659Y-92780000D01*
X101335063Y-92544592D01*
X101328339Y-92519496D01*
X104794935Y-92519496D01*
X104794935Y-92519503D01*
X104815130Y-92698749D01*
X104815133Y-92698762D01*
X104874710Y-92869021D01*
X104877731Y-92875294D01*
X104876197Y-92876032D01*
X104892809Y-92934831D01*
X104885858Y-92974514D01*
X104827832Y-93140342D01*
X104827830Y-93140350D01*
X104807635Y-93319596D01*
X104807635Y-93319603D01*
X104827830Y-93498849D01*
X104827831Y-93498854D01*
X104887411Y-93669123D01*
X104935852Y-93746216D01*
X104983384Y-93821862D01*
X105110938Y-93949416D01*
X105263678Y-94045389D01*
X105341157Y-94072500D01*
X105433945Y-94104968D01*
X105433950Y-94104969D01*
X105613196Y-94125165D01*
X105613200Y-94125165D01*
X105613204Y-94125165D01*
X105792449Y-94104969D01*
X105792452Y-94104968D01*
X105792455Y-94104968D01*
X105962722Y-94045389D01*
X106115462Y-93949416D01*
X106243016Y-93821862D01*
X106338989Y-93669122D01*
X106339364Y-93668049D01*
X106344006Y-93654786D01*
X106384726Y-93598009D01*
X106449679Y-93572260D01*
X106518240Y-93585715D01*
X106552826Y-93614171D01*
X106553260Y-93613738D01*
X106557713Y-93618191D01*
X106557990Y-93618419D01*
X106558183Y-93618661D01*
X106558184Y-93618662D01*
X106685738Y-93746216D01*
X106838478Y-93842189D01*
X107008745Y-93901768D01*
X107008750Y-93901769D01*
X107187996Y-93921965D01*
X107188000Y-93921965D01*
X107188004Y-93921965D01*
X107367249Y-93901769D01*
X107367252Y-93901768D01*
X107367255Y-93901768D01*
X107537522Y-93842189D01*
X107690262Y-93746216D01*
X107817816Y-93618662D01*
X107913789Y-93465922D01*
X107973368Y-93295655D01*
X107990867Y-93140345D01*
X107993565Y-93116403D01*
X107993565Y-93116396D01*
X107973369Y-92937150D01*
X107973368Y-92937145D01*
X107949530Y-92869021D01*
X107913789Y-92766878D01*
X107817816Y-92614138D01*
X107690262Y-92486584D01*
X107688376Y-92485399D01*
X107537523Y-92390611D01*
X107367254Y-92331031D01*
X107367249Y-92331030D01*
X107188004Y-92310835D01*
X107187996Y-92310835D01*
X107008750Y-92331030D01*
X107008745Y-92331031D01*
X106838476Y-92390611D01*
X106685739Y-92486583D01*
X106613124Y-92559198D01*
X106551800Y-92592682D01*
X106482109Y-92587697D01*
X106426175Y-92545826D01*
X106402223Y-92485399D01*
X106385869Y-92340250D01*
X106385868Y-92340245D01*
X106377502Y-92316337D01*
X106326289Y-92169978D01*
X106230316Y-92017238D01*
X106102762Y-91889684D01*
X105950023Y-91793711D01*
X105779754Y-91734131D01*
X105779749Y-91734130D01*
X105600504Y-91713935D01*
X105600496Y-91713935D01*
X105421250Y-91734130D01*
X105421245Y-91734131D01*
X105250976Y-91793711D01*
X105098237Y-91889684D01*
X104970684Y-92017237D01*
X104874711Y-92169976D01*
X104815131Y-92340245D01*
X104815130Y-92340250D01*
X104794935Y-92519496D01*
X101328339Y-92519496D01*
X101280309Y-92340245D01*
X101273905Y-92316344D01*
X101273904Y-92316343D01*
X101273903Y-92316337D01*
X101174035Y-92102171D01*
X101038495Y-91908599D01*
X101038494Y-91908597D01*
X100871402Y-91741506D01*
X100871396Y-91741501D01*
X100685842Y-91611575D01*
X100642217Y-91556998D01*
X100635023Y-91487500D01*
X100666546Y-91425145D01*
X100685842Y-91408425D01*
X100845557Y-91296591D01*
X100871401Y-91278495D01*
X101038495Y-91111401D01*
X101174035Y-90917830D01*
X101273903Y-90703663D01*
X101335063Y-90475408D01*
X101337941Y-90442504D01*
X101363392Y-90377437D01*
X101419983Y-90336458D01*
X101489744Y-90332579D01*
X101502424Y-90336271D01*
X101674737Y-90396566D01*
X101674743Y-90396567D01*
X101674745Y-90396568D01*
X101674746Y-90396568D01*
X101674750Y-90396569D01*
X101853996Y-90416765D01*
X101854000Y-90416765D01*
X101854004Y-90416765D01*
X102033249Y-90396569D01*
X102033252Y-90396568D01*
X102033255Y-90396568D01*
X102203522Y-90336989D01*
X102356262Y-90241016D01*
X102483816Y-90113462D01*
X102579789Y-89960722D01*
X102595439Y-89915996D01*
X109176435Y-89915996D01*
X109176435Y-89916003D01*
X109196630Y-90095249D01*
X109196631Y-90095254D01*
X109256211Y-90265523D01*
X109326532Y-90377437D01*
X109352184Y-90418262D01*
X109479738Y-90545816D01*
X109632478Y-90641789D01*
X109743758Y-90680727D01*
X109800532Y-90721447D01*
X109819843Y-90756812D01*
X109856211Y-90860745D01*
X109856212Y-90860746D01*
X109892083Y-90917834D01*
X109952184Y-91013484D01*
X110079738Y-91141038D01*
X110232478Y-91237011D01*
X110351041Y-91278498D01*
X110402745Y-91296590D01*
X110402750Y-91296591D01*
X110581996Y-91316787D01*
X110582000Y-91316787D01*
X110582004Y-91316787D01*
X110761249Y-91296591D01*
X110761252Y-91296590D01*
X110761255Y-91296590D01*
X110931522Y-91237011D01*
X111084262Y-91141038D01*
X111211816Y-91013484D01*
X111296601Y-90878548D01*
X111348933Y-90832260D01*
X111417987Y-90821611D01*
X111481835Y-90849986D01*
X111513974Y-90892117D01*
X111525962Y-90917824D01*
X111525967Y-90917834D01*
X111661501Y-91111395D01*
X111661506Y-91111402D01*
X111828597Y-91278493D01*
X111828603Y-91278498D01*
X112014158Y-91408425D01*
X112057783Y-91463002D01*
X112064977Y-91532500D01*
X112033454Y-91594855D01*
X112014158Y-91611575D01*
X111828597Y-91741505D01*
X111661505Y-91908597D01*
X111525965Y-92102169D01*
X111525964Y-92102171D01*
X111426098Y-92316335D01*
X111426094Y-92316344D01*
X111364938Y-92544586D01*
X111364936Y-92544596D01*
X111344341Y-92779999D01*
X111344341Y-92780000D01*
X111364936Y-93015403D01*
X111364938Y-93015413D01*
X111426094Y-93243655D01*
X111426096Y-93243659D01*
X111426097Y-93243663D01*
X111525965Y-93457830D01*
X111525967Y-93457834D01*
X111606090Y-93572260D01*
X111661505Y-93651401D01*
X111828599Y-93818495D01*
X111862438Y-93842189D01*
X112022165Y-93954032D01*
X112022167Y-93954033D01*
X112022170Y-93954035D01*
X112236337Y-94053903D01*
X112464592Y-94115063D01*
X112652918Y-94131539D01*
X112699999Y-94135659D01*
X112700000Y-94135659D01*
X112700001Y-94135659D01*
X112739234Y-94132226D01*
X112935408Y-94115063D01*
X113163663Y-94053903D01*
X113377830Y-93954035D01*
X113571401Y-93818495D01*
X113738495Y-93651401D01*
X113874035Y-93457830D01*
X113973903Y-93243663D01*
X114035063Y-93015408D01*
X114055659Y-92780000D01*
X114035063Y-92544592D01*
X113980309Y-92340245D01*
X113973905Y-92316344D01*
X113973904Y-92316343D01*
X113973903Y-92316337D01*
X113874035Y-92102171D01*
X113738495Y-91908599D01*
X113738494Y-91908597D01*
X113571402Y-91741506D01*
X113571396Y-91741501D01*
X113385842Y-91611575D01*
X113342217Y-91556998D01*
X113335023Y-91487500D01*
X113366546Y-91425145D01*
X113385842Y-91408425D01*
X113545557Y-91296591D01*
X113571401Y-91278495D01*
X113738495Y-91111401D01*
X113874035Y-90917830D01*
X113973903Y-90703663D01*
X114035063Y-90475408D01*
X114055659Y-90240000D01*
X114035063Y-90004592D01*
X113973903Y-89776337D01*
X113874035Y-89562171D01*
X113782851Y-89431945D01*
X113738494Y-89368597D01*
X113571402Y-89201506D01*
X113571396Y-89201501D01*
X113385842Y-89071575D01*
X113342217Y-89016998D01*
X113335023Y-88947500D01*
X113366546Y-88885145D01*
X113385842Y-88868425D01*
X113529526Y-88767816D01*
X113571401Y-88738495D01*
X113738495Y-88571401D01*
X113874035Y-88377830D01*
X113973903Y-88163663D01*
X114035063Y-87935408D01*
X114055659Y-87700000D01*
X114035063Y-87464592D01*
X113973903Y-87236337D01*
X113874035Y-87022171D01*
X113738495Y-86828599D01*
X113738494Y-86828597D01*
X113571402Y-86661506D01*
X113571396Y-86661501D01*
X113385842Y-86531575D01*
X113342217Y-86476998D01*
X113335023Y-86407500D01*
X113366546Y-86345145D01*
X113385842Y-86328425D01*
X113408026Y-86312891D01*
X113571401Y-86198495D01*
X113738495Y-86031401D01*
X113874035Y-85837830D01*
X113973903Y-85623663D01*
X114035063Y-85395408D01*
X114055659Y-85160000D01*
X114035063Y-84924592D01*
X113973903Y-84696337D01*
X113874035Y-84482171D01*
X113738495Y-84288599D01*
X113738494Y-84288597D01*
X113571402Y-84121506D01*
X113571396Y-84121501D01*
X113385842Y-83991575D01*
X113342217Y-83936998D01*
X113335023Y-83867500D01*
X113366546Y-83805145D01*
X113385842Y-83788425D01*
X113520183Y-83694358D01*
X113571401Y-83658495D01*
X113738495Y-83491401D01*
X113874035Y-83297830D01*
X113973903Y-83083663D01*
X114035063Y-82855408D01*
X114055659Y-82620000D01*
X114035063Y-82384592D01*
X113973903Y-82156337D01*
X113874035Y-81942171D01*
X113738495Y-81748599D01*
X113738494Y-81748597D01*
X113571402Y-81581506D01*
X113571396Y-81581501D01*
X113385842Y-81451575D01*
X113342217Y-81396998D01*
X113335023Y-81327500D01*
X113366546Y-81265145D01*
X113385842Y-81248425D01*
X113408026Y-81232891D01*
X113571401Y-81118495D01*
X113738495Y-80951401D01*
X113874035Y-80757830D01*
X113973903Y-80543663D01*
X114035063Y-80315408D01*
X114055659Y-80080000D01*
X114035063Y-79844592D01*
X113973903Y-79616337D01*
X113874035Y-79402171D01*
X113738495Y-79208599D01*
X113738494Y-79208597D01*
X113571402Y-79041506D01*
X113571396Y-79041501D01*
X113385842Y-78911575D01*
X113342217Y-78856998D01*
X113335023Y-78787500D01*
X113366546Y-78725145D01*
X113385842Y-78708425D01*
X113408026Y-78692891D01*
X113571401Y-78578495D01*
X113738495Y-78411401D01*
X113874035Y-78217830D01*
X113973903Y-78003663D01*
X114035063Y-77775408D01*
X114055659Y-77540000D01*
X114035063Y-77304592D01*
X113973903Y-77076337D01*
X113874035Y-76862171D01*
X113749721Y-76684632D01*
X113738496Y-76668600D01*
X113734331Y-76664435D01*
X113616567Y-76546671D01*
X113583084Y-76485351D01*
X113588068Y-76415659D01*
X113629939Y-76359725D01*
X113660915Y-76342810D01*
X113792331Y-76293796D01*
X113907546Y-76207546D01*
X113993796Y-76092331D01*
X114044091Y-75957483D01*
X114050500Y-75897873D01*
X114050499Y-74102128D01*
X114044091Y-74042517D01*
X113993884Y-73907906D01*
X113993797Y-73907671D01*
X113993793Y-73907664D01*
X113907547Y-73792455D01*
X113907544Y-73792452D01*
X113792335Y-73706206D01*
X113792328Y-73706202D01*
X113657482Y-73655908D01*
X113657483Y-73655908D01*
X113597883Y-73649501D01*
X113597881Y-73649500D01*
X113597873Y-73649500D01*
X113597864Y-73649500D01*
X111802129Y-73649500D01*
X111802123Y-73649501D01*
X111742516Y-73655908D01*
X111607671Y-73706202D01*
X111607664Y-73706206D01*
X111492455Y-73792452D01*
X111492452Y-73792455D01*
X111406206Y-73907664D01*
X111406202Y-73907671D01*
X111355908Y-74042517D01*
X111349501Y-74102116D01*
X111349501Y-74102123D01*
X111349500Y-74102135D01*
X111349500Y-75897870D01*
X111349501Y-75897876D01*
X111355908Y-75957483D01*
X111406202Y-76092328D01*
X111406206Y-76092335D01*
X111492452Y-76207544D01*
X111492455Y-76207547D01*
X111607664Y-76293793D01*
X111607671Y-76293797D01*
X111739081Y-76342810D01*
X111795015Y-76384681D01*
X111819432Y-76450145D01*
X111804580Y-76518418D01*
X111783430Y-76546673D01*
X111661503Y-76668600D01*
X111525965Y-76862169D01*
X111525964Y-76862171D01*
X111426098Y-77076335D01*
X111426094Y-77076344D01*
X111364938Y-77304586D01*
X111364936Y-77304596D01*
X111344341Y-77539999D01*
X111344341Y-77540000D01*
X111364936Y-77775403D01*
X111364938Y-77775413D01*
X111426094Y-78003655D01*
X111426096Y-78003659D01*
X111426097Y-78003663D01*
X111470934Y-78099815D01*
X111525965Y-78217830D01*
X111525967Y-78217834D01*
X111661501Y-78411395D01*
X111661506Y-78411402D01*
X111828597Y-78578493D01*
X111828603Y-78578498D01*
X112014158Y-78708425D01*
X112057783Y-78763002D01*
X112064977Y-78832500D01*
X112033454Y-78894855D01*
X112014158Y-78911575D01*
X111828597Y-79041505D01*
X111661505Y-79208597D01*
X111525965Y-79402169D01*
X111525964Y-79402171D01*
X111426098Y-79616335D01*
X111426094Y-79616344D01*
X111364938Y-79844586D01*
X111364936Y-79844596D01*
X111344341Y-80079999D01*
X111344341Y-80080000D01*
X111364936Y-80315403D01*
X111364938Y-80315413D01*
X111426094Y-80543655D01*
X111426096Y-80543659D01*
X111426097Y-80543663D01*
X111448987Y-80592750D01*
X111525965Y-80757830D01*
X111525967Y-80757834D01*
X111661501Y-80951395D01*
X111661506Y-80951402D01*
X111828597Y-81118493D01*
X111828603Y-81118498D01*
X112014158Y-81248425D01*
X112057783Y-81303002D01*
X112064977Y-81372500D01*
X112033454Y-81434855D01*
X112014158Y-81451575D01*
X111828597Y-81581505D01*
X111661505Y-81748597D01*
X111525965Y-81942169D01*
X111525964Y-81942171D01*
X111426098Y-82156335D01*
X111426094Y-82156344D01*
X111364938Y-82384586D01*
X111364936Y-82384596D01*
X111344341Y-82619999D01*
X111344341Y-82620000D01*
X111364936Y-82855403D01*
X111364938Y-82855413D01*
X111426094Y-83083655D01*
X111426096Y-83083659D01*
X111426097Y-83083663D01*
X111448987Y-83132750D01*
X111525965Y-83297830D01*
X111525967Y-83297834D01*
X111661501Y-83491395D01*
X111661506Y-83491402D01*
X111828597Y-83658493D01*
X111828603Y-83658498D01*
X112014158Y-83788425D01*
X112057783Y-83843002D01*
X112064977Y-83912500D01*
X112033454Y-83974855D01*
X112014158Y-83991575D01*
X111828597Y-84121505D01*
X111661505Y-84288597D01*
X111525965Y-84482169D01*
X111525964Y-84482171D01*
X111426098Y-84696335D01*
X111426094Y-84696344D01*
X111364938Y-84924586D01*
X111364936Y-84924596D01*
X111344341Y-85159999D01*
X111344341Y-85160000D01*
X111364936Y-85395403D01*
X111364938Y-85395413D01*
X111426094Y-85623655D01*
X111426096Y-85623659D01*
X111426097Y-85623663D01*
X111473353Y-85725003D01*
X111525965Y-85837830D01*
X111525967Y-85837834D01*
X111661501Y-86031395D01*
X111661506Y-86031402D01*
X111828597Y-86198493D01*
X111828603Y-86198498D01*
X112014158Y-86328425D01*
X112057783Y-86383002D01*
X112064977Y-86452500D01*
X112033454Y-86514855D01*
X112014158Y-86531575D01*
X111828597Y-86661505D01*
X111661505Y-86828597D01*
X111525965Y-87022169D01*
X111525964Y-87022171D01*
X111426098Y-87236335D01*
X111426094Y-87236344D01*
X111364938Y-87464586D01*
X111364936Y-87464596D01*
X111344341Y-87699999D01*
X111344341Y-87700000D01*
X111364936Y-87935403D01*
X111364938Y-87935413D01*
X111426094Y-88163655D01*
X111426096Y-88163659D01*
X111426097Y-88163663D01*
X111497716Y-88317249D01*
X111525965Y-88377830D01*
X111525967Y-88377834D01*
X111661501Y-88571395D01*
X111661506Y-88571402D01*
X111828597Y-88738493D01*
X111828603Y-88738498D01*
X112014158Y-88868425D01*
X112057783Y-88923002D01*
X112064977Y-88992500D01*
X112033454Y-89054855D01*
X112014158Y-89071575D01*
X111828597Y-89201505D01*
X111661505Y-89368597D01*
X111525965Y-89562169D01*
X111525964Y-89562171D01*
X111426098Y-89776335D01*
X111426094Y-89776344D01*
X111387243Y-89921343D01*
X111350878Y-89981004D01*
X111288031Y-90011533D01*
X111218656Y-90003238D01*
X111179787Y-89976931D01*
X111084262Y-89881406D01*
X110931524Y-89785434D01*
X110931521Y-89785432D01*
X110820242Y-89746494D01*
X110763466Y-89705773D01*
X110744155Y-89670407D01*
X110723436Y-89611196D01*
X110707789Y-89566478D01*
X110611816Y-89413738D01*
X110484262Y-89286184D01*
X110445258Y-89261676D01*
X110331523Y-89190211D01*
X110161254Y-89130631D01*
X110161249Y-89130630D01*
X109982004Y-89110435D01*
X109981996Y-89110435D01*
X109802750Y-89130630D01*
X109802745Y-89130631D01*
X109632476Y-89190211D01*
X109479737Y-89286184D01*
X109352184Y-89413737D01*
X109256211Y-89566476D01*
X109196631Y-89736745D01*
X109196630Y-89736750D01*
X109176435Y-89915996D01*
X102595439Y-89915996D01*
X102639368Y-89790455D01*
X102645420Y-89736745D01*
X102659565Y-89611203D01*
X102659565Y-89611196D01*
X102639369Y-89431950D01*
X102639368Y-89431945D01*
X102617202Y-89368599D01*
X102579789Y-89261678D01*
X102483816Y-89108938D01*
X102356262Y-88981384D01*
X102203523Y-88885411D01*
X102033254Y-88825831D01*
X102033249Y-88825830D01*
X101854004Y-88805635D01*
X101853996Y-88805635D01*
X101674750Y-88825830D01*
X101674745Y-88825831D01*
X101504476Y-88885411D01*
X101351737Y-88981384D01*
X101224182Y-89108939D01*
X101135058Y-89250779D01*
X101082724Y-89297069D01*
X101013670Y-89307717D01*
X100949822Y-89279342D01*
X100942384Y-89272488D01*
X100920675Y-89250779D01*
X100871401Y-89201505D01*
X100871397Y-89201502D01*
X100871396Y-89201501D01*
X100685842Y-89071575D01*
X100642217Y-89016998D01*
X100635023Y-88947500D01*
X100666546Y-88885145D01*
X100685842Y-88868425D01*
X100829526Y-88767816D01*
X100871401Y-88738495D01*
X101038495Y-88571401D01*
X101174035Y-88377830D01*
X101273903Y-88163663D01*
X101280780Y-88137996D01*
X105493435Y-88137996D01*
X105493435Y-88138003D01*
X105513630Y-88317249D01*
X105513631Y-88317254D01*
X105573211Y-88487523D01*
X105625916Y-88571402D01*
X105669184Y-88640262D01*
X105796738Y-88767816D01*
X105949478Y-88863789D01*
X106118699Y-88923002D01*
X106119745Y-88923368D01*
X106119750Y-88923369D01*
X106298996Y-88943565D01*
X106299000Y-88943565D01*
X106299004Y-88943565D01*
X106478249Y-88923369D01*
X106478252Y-88923368D01*
X106478255Y-88923368D01*
X106648522Y-88863789D01*
X106801262Y-88767816D01*
X106928816Y-88640262D01*
X107024789Y-88487522D01*
X107084368Y-88317255D01*
X107084369Y-88317249D01*
X107104565Y-88138003D01*
X107104565Y-88137996D01*
X107084369Y-87958750D01*
X107084368Y-87958745D01*
X107024788Y-87788476D01*
X106985582Y-87726080D01*
X106928816Y-87635738D01*
X106801262Y-87508184D01*
X106648523Y-87412211D01*
X106478254Y-87352631D01*
X106478249Y-87352630D01*
X106299004Y-87332435D01*
X106298996Y-87332435D01*
X106119750Y-87352630D01*
X106119745Y-87352631D01*
X105949476Y-87412211D01*
X105796737Y-87508184D01*
X105669184Y-87635737D01*
X105573211Y-87788476D01*
X105513631Y-87958745D01*
X105513630Y-87958750D01*
X105493435Y-88137996D01*
X101280780Y-88137996D01*
X101335063Y-87935408D01*
X101355659Y-87700000D01*
X101335063Y-87464592D01*
X101273903Y-87236337D01*
X101174035Y-87022171D01*
X101038495Y-86828599D01*
X101038494Y-86828597D01*
X100871402Y-86661506D01*
X100871396Y-86661501D01*
X100685842Y-86531575D01*
X100642217Y-86476998D01*
X100635023Y-86407500D01*
X100666546Y-86345145D01*
X100685842Y-86328425D01*
X100708026Y-86312891D01*
X100871401Y-86198495D01*
X101038495Y-86031401D01*
X101174035Y-85837830D01*
X101273903Y-85623663D01*
X101335063Y-85395408D01*
X101355659Y-85160000D01*
X101335063Y-84924592D01*
X101273903Y-84696337D01*
X101174035Y-84482171D01*
X101130603Y-84420143D01*
X101845289Y-84420143D01*
X101845289Y-84420150D01*
X101865484Y-84599396D01*
X101865485Y-84599401D01*
X101925065Y-84769670D01*
X101946965Y-84804523D01*
X102021038Y-84922409D01*
X102148592Y-85049963D01*
X102278149Y-85131369D01*
X102324439Y-85183703D01*
X102335087Y-85252756D01*
X102317170Y-85302334D01*
X102271211Y-85375476D01*
X102211631Y-85545745D01*
X102211630Y-85545750D01*
X102191435Y-85724996D01*
X102191435Y-85725003D01*
X102211630Y-85904249D01*
X102211631Y-85904254D01*
X102271211Y-86074523D01*
X102349107Y-86198493D01*
X102367184Y-86227262D01*
X102494738Y-86354816D01*
X102539596Y-86383002D01*
X102614392Y-86430000D01*
X102647478Y-86450789D01*
X102722379Y-86476998D01*
X102817745Y-86510368D01*
X102817750Y-86510369D01*
X102996996Y-86530565D01*
X102997000Y-86530565D01*
X102997004Y-86530565D01*
X103176249Y-86510369D01*
X103176252Y-86510368D01*
X103176255Y-86510368D01*
X103346522Y-86450789D01*
X103499262Y-86354816D01*
X103626816Y-86227262D01*
X103722789Y-86074522D01*
X103782368Y-85904255D01*
X103789852Y-85837834D01*
X103802565Y-85725003D01*
X103802565Y-85724996D01*
X103782369Y-85545750D01*
X103782368Y-85545745D01*
X103722789Y-85375478D01*
X103626816Y-85222738D01*
X103499262Y-85095184D01*
X103499256Y-85095179D01*
X103369706Y-85013777D01*
X103323415Y-84961443D01*
X103312767Y-84892389D01*
X103330685Y-84842812D01*
X103376641Y-84769673D01*
X103376642Y-84769670D01*
X103376643Y-84769669D01*
X103436222Y-84599402D01*
X103452492Y-84455000D01*
X103452492Y-84454996D01*
X107398435Y-84454996D01*
X107398435Y-84455003D01*
X107418630Y-84634249D01*
X107418631Y-84634254D01*
X107478211Y-84804523D01*
X107574184Y-84957262D01*
X107701738Y-85084816D01*
X107718231Y-85095179D01*
X107821392Y-85160000D01*
X107854478Y-85180789D01*
X108024745Y-85240368D01*
X108024750Y-85240369D01*
X108203996Y-85260565D01*
X108204000Y-85260565D01*
X108204004Y-85260565D01*
X108383249Y-85240369D01*
X108383252Y-85240368D01*
X108383255Y-85240368D01*
X108553522Y-85180789D01*
X108706262Y-85084816D01*
X108833816Y-84957262D01*
X108929789Y-84804522D01*
X108989368Y-84634255D01*
X109009565Y-84455000D01*
X109005638Y-84420150D01*
X108989369Y-84275750D01*
X108989368Y-84275745D01*
X108935397Y-84121505D01*
X108929789Y-84105478D01*
X108833816Y-83952738D01*
X108706262Y-83825184D01*
X108650794Y-83790331D01*
X108553523Y-83729211D01*
X108383254Y-83669631D01*
X108383249Y-83669630D01*
X108204004Y-83649435D01*
X108203996Y-83649435D01*
X108024750Y-83669630D01*
X108024745Y-83669631D01*
X107854476Y-83729211D01*
X107701737Y-83825184D01*
X107574184Y-83952737D01*
X107478211Y-84105476D01*
X107418631Y-84275745D01*
X107418630Y-84275750D01*
X107398435Y-84454996D01*
X103452492Y-84454996D01*
X103456419Y-84420150D01*
X103456419Y-84420143D01*
X103436223Y-84240897D01*
X103436222Y-84240892D01*
X103394447Y-84121506D01*
X103376643Y-84070625D01*
X103280670Y-83917885D01*
X103153116Y-83790331D01*
X103150083Y-83788425D01*
X103000377Y-83694358D01*
X102830108Y-83634778D01*
X102830103Y-83634777D01*
X102650858Y-83614582D01*
X102650850Y-83614582D01*
X102471604Y-83634777D01*
X102471599Y-83634778D01*
X102301330Y-83694358D01*
X102148591Y-83790331D01*
X102021038Y-83917884D01*
X101925065Y-84070623D01*
X101865485Y-84240892D01*
X101865484Y-84240897D01*
X101845289Y-84420143D01*
X101130603Y-84420143D01*
X101038495Y-84288599D01*
X101038494Y-84288597D01*
X100871402Y-84121506D01*
X100871396Y-84121501D01*
X100685842Y-83991575D01*
X100642217Y-83936998D01*
X100635023Y-83867500D01*
X100666546Y-83805145D01*
X100685842Y-83788425D01*
X100820183Y-83694358D01*
X100871401Y-83658495D01*
X101038495Y-83491401D01*
X101164116Y-83311996D01*
X105874435Y-83311996D01*
X105874435Y-83312003D01*
X105894630Y-83491249D01*
X105894631Y-83491254D01*
X105954211Y-83661523D01*
X106044455Y-83805145D01*
X106050184Y-83814262D01*
X106177738Y-83941816D01*
X106330478Y-84037789D01*
X106424318Y-84070625D01*
X106500745Y-84097368D01*
X106500750Y-84097369D01*
X106679996Y-84117565D01*
X106680000Y-84117565D01*
X106680004Y-84117565D01*
X106859249Y-84097369D01*
X106859252Y-84097368D01*
X106859255Y-84097368D01*
X107029522Y-84037789D01*
X107182262Y-83941816D01*
X107309816Y-83814262D01*
X107405789Y-83661522D01*
X107465368Y-83491255D01*
X107485565Y-83312000D01*
X107483968Y-83297830D01*
X107465369Y-83132750D01*
X107465368Y-83132745D01*
X107405788Y-82962476D01*
X107366582Y-82900080D01*
X107309816Y-82809738D01*
X107182262Y-82682184D01*
X107083297Y-82620000D01*
X107029523Y-82586211D01*
X106859254Y-82526631D01*
X106859249Y-82526630D01*
X106680004Y-82506435D01*
X106679996Y-82506435D01*
X106500750Y-82526630D01*
X106500745Y-82526631D01*
X106330476Y-82586211D01*
X106177737Y-82682184D01*
X106050184Y-82809737D01*
X105954211Y-82962476D01*
X105894631Y-83132745D01*
X105894630Y-83132750D01*
X105874435Y-83311996D01*
X101164116Y-83311996D01*
X101174035Y-83297830D01*
X101273903Y-83083663D01*
X101335063Y-82855408D01*
X101355659Y-82620000D01*
X101335063Y-82384592D01*
X101273903Y-82156337D01*
X101174035Y-81942171D01*
X101038495Y-81748599D01*
X101038494Y-81748597D01*
X100871402Y-81581506D01*
X100871396Y-81581501D01*
X100685842Y-81451575D01*
X100642217Y-81396998D01*
X100635023Y-81327500D01*
X100666546Y-81265145D01*
X100685842Y-81248425D01*
X100708026Y-81232891D01*
X100871401Y-81118495D01*
X101038495Y-80951401D01*
X101164116Y-80771996D01*
X107271435Y-80771996D01*
X107271435Y-80772003D01*
X107291630Y-80951249D01*
X107291631Y-80951254D01*
X107351211Y-81121523D01*
X107441455Y-81265145D01*
X107447184Y-81274262D01*
X107574738Y-81401816D01*
X107727478Y-81497789D01*
X107897745Y-81557368D01*
X107897750Y-81557369D01*
X108076996Y-81577565D01*
X108077000Y-81577565D01*
X108077004Y-81577565D01*
X108256249Y-81557369D01*
X108256252Y-81557368D01*
X108256255Y-81557368D01*
X108426522Y-81497789D01*
X108579262Y-81401816D01*
X108706816Y-81274262D01*
X108802789Y-81121522D01*
X108862368Y-80951255D01*
X108882565Y-80772000D01*
X108880968Y-80757830D01*
X108862369Y-80592750D01*
X108862368Y-80592745D01*
X108802788Y-80422476D01*
X108763582Y-80360080D01*
X108706816Y-80269738D01*
X108579262Y-80142184D01*
X108480297Y-80080000D01*
X108426523Y-80046211D01*
X108256254Y-79986631D01*
X108256249Y-79986630D01*
X108077004Y-79966435D01*
X108076996Y-79966435D01*
X107897750Y-79986630D01*
X107897745Y-79986631D01*
X107727476Y-80046211D01*
X107574737Y-80142184D01*
X107447184Y-80269737D01*
X107351211Y-80422476D01*
X107291631Y-80592745D01*
X107291630Y-80592750D01*
X107271435Y-80771996D01*
X101164116Y-80771996D01*
X101174035Y-80757830D01*
X101273903Y-80543663D01*
X101335063Y-80315408D01*
X101355659Y-80080000D01*
X101335063Y-79844592D01*
X101273903Y-79616337D01*
X101174035Y-79402171D01*
X101038495Y-79208599D01*
X101038494Y-79208597D01*
X100871402Y-79041506D01*
X100871396Y-79041501D01*
X100685842Y-78911575D01*
X100642217Y-78856998D01*
X100635023Y-78787500D01*
X100666546Y-78725145D01*
X100685842Y-78708425D01*
X100708026Y-78692891D01*
X100871401Y-78578495D01*
X101038495Y-78411401D01*
X101174035Y-78217830D01*
X101273903Y-78003663D01*
X101335063Y-77775408D01*
X101355659Y-77540000D01*
X101349534Y-77469996D01*
X107042835Y-77469996D01*
X107042835Y-77470003D01*
X107063030Y-77649249D01*
X107063031Y-77649254D01*
X107122611Y-77819523D01*
X107218584Y-77972262D01*
X107346138Y-78099816D01*
X107498878Y-78195789D01*
X107669145Y-78255368D01*
X107669150Y-78255369D01*
X107848396Y-78275565D01*
X107848400Y-78275565D01*
X107848404Y-78275565D01*
X108027649Y-78255369D01*
X108027652Y-78255368D01*
X108027655Y-78255368D01*
X108197922Y-78195789D01*
X108350662Y-78099816D01*
X108478216Y-77972262D01*
X108574189Y-77819522D01*
X108633768Y-77649255D01*
X108653965Y-77470000D01*
X108635328Y-77304592D01*
X108633769Y-77290750D01*
X108633768Y-77290745D01*
X108574188Y-77120476D01*
X108478215Y-76967737D01*
X108350662Y-76840184D01*
X108197923Y-76744211D01*
X108027654Y-76684631D01*
X108027649Y-76684630D01*
X107848404Y-76664435D01*
X107848396Y-76664435D01*
X107669150Y-76684630D01*
X107669145Y-76684631D01*
X107498876Y-76744211D01*
X107346137Y-76840184D01*
X107218584Y-76967737D01*
X107122611Y-77120476D01*
X107063031Y-77290745D01*
X107063030Y-77290750D01*
X107042835Y-77469996D01*
X101349534Y-77469996D01*
X101335063Y-77304592D01*
X101273903Y-77076337D01*
X101174035Y-76862171D01*
X101049721Y-76684632D01*
X101038496Y-76668600D01*
X101034331Y-76664435D01*
X100916179Y-76546283D01*
X100882696Y-76484963D01*
X100887680Y-76415271D01*
X100929551Y-76359337D01*
X100960529Y-76342422D01*
X101092086Y-76293354D01*
X101092093Y-76293350D01*
X101207187Y-76207190D01*
X101207190Y-76207187D01*
X101293350Y-76092093D01*
X101293354Y-76092086D01*
X101343596Y-75957379D01*
X101343598Y-75957372D01*
X101349999Y-75897844D01*
X101350000Y-75897827D01*
X101350000Y-75250000D01*
X100433012Y-75250000D01*
X100465925Y-75192993D01*
X100500000Y-75065826D01*
X100500000Y-74934174D01*
X100465925Y-74807007D01*
X100433012Y-74750000D01*
X101350000Y-74750000D01*
X101350000Y-74102172D01*
X101349999Y-74102155D01*
X101343598Y-74042627D01*
X101343596Y-74042620D01*
X101293354Y-73907913D01*
X101293350Y-73907906D01*
X101207190Y-73792812D01*
X101207187Y-73792809D01*
X101092093Y-73706649D01*
X101092086Y-73706645D01*
X100957379Y-73656403D01*
X100957372Y-73656401D01*
X100897844Y-73650000D01*
X100250000Y-73650000D01*
X100250000Y-74566988D01*
X100192993Y-74534075D01*
X100065826Y-74500000D01*
X99934174Y-74500000D01*
X99807007Y-74534075D01*
X99750000Y-74566988D01*
X99750000Y-73650000D01*
X99102155Y-73650000D01*
X99042627Y-73656401D01*
X99042620Y-73656403D01*
X98907913Y-73706645D01*
X98907906Y-73706649D01*
X98792812Y-73792809D01*
X98792809Y-73792812D01*
X98706649Y-73907906D01*
X98706645Y-73907913D01*
X98656403Y-74042620D01*
X98656401Y-74042627D01*
X98650000Y-74102155D01*
X98650000Y-74750000D01*
X99566988Y-74750000D01*
X99534075Y-74807007D01*
X99500000Y-74934174D01*
X99500000Y-75065826D01*
X99534075Y-75192993D01*
X99566988Y-75250000D01*
X98650000Y-75250000D01*
X98650000Y-75897844D01*
X98656401Y-75957372D01*
X98656403Y-75957379D01*
X98706645Y-76092086D01*
X98706649Y-76092093D01*
X98792809Y-76207187D01*
X98792812Y-76207190D01*
X98907906Y-76293350D01*
X98907913Y-76293354D01*
X99039470Y-76342421D01*
X99095403Y-76384292D01*
X99119821Y-76449756D01*
X99104970Y-76518029D01*
X99083819Y-76546284D01*
X98961503Y-76668600D01*
X98825965Y-76862169D01*
X98825964Y-76862171D01*
X98726098Y-77076335D01*
X98726094Y-77076344D01*
X98664938Y-77304586D01*
X98664936Y-77304596D01*
X98644341Y-77539999D01*
X98050300Y-77539999D01*
X98050300Y-71701666D01*
X98050565Y-71693556D01*
X98052914Y-71657718D01*
X98065164Y-71470807D01*
X98067279Y-71454753D01*
X98110030Y-71239826D01*
X98114228Y-71224161D01*
X98176149Y-71041748D01*
X98184668Y-71016649D01*
X98190867Y-71001683D01*
X98239959Y-70902135D01*
X100109500Y-70902135D01*
X100109500Y-72697870D01*
X100109501Y-72697876D01*
X100115908Y-72757483D01*
X100166202Y-72892328D01*
X100166206Y-72892335D01*
X100252452Y-73007544D01*
X100252455Y-73007547D01*
X100367664Y-73093793D01*
X100367671Y-73093797D01*
X100502517Y-73144091D01*
X100502516Y-73144091D01*
X100509444Y-73144835D01*
X100562127Y-73150500D01*
X102357872Y-73150499D01*
X102417483Y-73144091D01*
X102552331Y-73093796D01*
X102667546Y-73007546D01*
X102753796Y-72892331D01*
X102803002Y-72760401D01*
X102844872Y-72704468D01*
X102910337Y-72680050D01*
X102978610Y-72694901D01*
X103006865Y-72716053D01*
X103128917Y-72838105D01*
X103322421Y-72973600D01*
X103536507Y-73073429D01*
X103536516Y-73073433D01*
X103750000Y-73130634D01*
X103750000Y-72233012D01*
X103807007Y-72265925D01*
X103934174Y-72300000D01*
X104065826Y-72300000D01*
X104192993Y-72265925D01*
X104250000Y-72233012D01*
X104250000Y-73130633D01*
X104463483Y-73073433D01*
X104463492Y-73073429D01*
X104677578Y-72973600D01*
X104871082Y-72838105D01*
X105038105Y-72671082D01*
X105168119Y-72485405D01*
X105222696Y-72441781D01*
X105292195Y-72434588D01*
X105354549Y-72466110D01*
X105371269Y-72485405D01*
X105501505Y-72671401D01*
X105668599Y-72838495D01*
X105765384Y-72906265D01*
X105862165Y-72974032D01*
X105862167Y-72974033D01*
X105862170Y-72974035D01*
X106076337Y-73073903D01*
X106304592Y-73135063D01*
X106481034Y-73150500D01*
X106539999Y-73155659D01*
X106540000Y-73155659D01*
X106540001Y-73155659D01*
X106598966Y-73150500D01*
X106775408Y-73135063D01*
X107003663Y-73073903D01*
X107217830Y-72974035D01*
X107411401Y-72838495D01*
X107578495Y-72671401D01*
X107708425Y-72485842D01*
X107763002Y-72442217D01*
X107832500Y-72435023D01*
X107894855Y-72466546D01*
X107911575Y-72485842D01*
X108041500Y-72671395D01*
X108041505Y-72671401D01*
X108208599Y-72838495D01*
X108305384Y-72906265D01*
X108402165Y-72974032D01*
X108402167Y-72974033D01*
X108402170Y-72974035D01*
X108616337Y-73073903D01*
X108844592Y-73135063D01*
X109021034Y-73150500D01*
X109079999Y-73155659D01*
X109080000Y-73155659D01*
X109080001Y-73155659D01*
X109138966Y-73150500D01*
X109315408Y-73135063D01*
X109543663Y-73073903D01*
X109757830Y-72974035D01*
X109951401Y-72838495D01*
X110118495Y-72671401D01*
X110248425Y-72485842D01*
X110303002Y-72442217D01*
X110372500Y-72435023D01*
X110434855Y-72466546D01*
X110451575Y-72485842D01*
X110581500Y-72671395D01*
X110581505Y-72671401D01*
X110748599Y-72838495D01*
X110845384Y-72906265D01*
X110942165Y-72974032D01*
X110942167Y-72974033D01*
X110942170Y-72974035D01*
X111156337Y-73073903D01*
X111384592Y-73135063D01*
X111561034Y-73150500D01*
X111619999Y-73155659D01*
X111620000Y-73155659D01*
X111620001Y-73155659D01*
X111678966Y-73150500D01*
X111855408Y-73135063D01*
X112083663Y-73073903D01*
X112297830Y-72974035D01*
X112491401Y-72838495D01*
X112658495Y-72671401D01*
X112794035Y-72477830D01*
X112893903Y-72263663D01*
X112955063Y-72035408D01*
X112975659Y-71800000D01*
X112955063Y-71564592D01*
X112893903Y-71336337D01*
X112794035Y-71122171D01*
X112788731Y-71114595D01*
X112658494Y-70928597D01*
X112491402Y-70761506D01*
X112491395Y-70761501D01*
X112297834Y-70625967D01*
X112297830Y-70625965D01*
X112233619Y-70596023D01*
X112083663Y-70526097D01*
X112083659Y-70526096D01*
X112083655Y-70526094D01*
X111855413Y-70464938D01*
X111855403Y-70464936D01*
X111620001Y-70444341D01*
X111619999Y-70444341D01*
X111384596Y-70464936D01*
X111384586Y-70464938D01*
X111156344Y-70526094D01*
X111156335Y-70526098D01*
X110942171Y-70625964D01*
X110942169Y-70625965D01*
X110748597Y-70761505D01*
X110581505Y-70928597D01*
X110451575Y-71114158D01*
X110396998Y-71157783D01*
X110327500Y-71164977D01*
X110265145Y-71133454D01*
X110248425Y-71114158D01*
X110118494Y-70928597D01*
X109951402Y-70761506D01*
X109951395Y-70761501D01*
X109757834Y-70625967D01*
X109757830Y-70625965D01*
X109693619Y-70596023D01*
X109543663Y-70526097D01*
X109543659Y-70526096D01*
X109543655Y-70526094D01*
X109315413Y-70464938D01*
X109315403Y-70464936D01*
X109080001Y-70444341D01*
X109079999Y-70444341D01*
X108844596Y-70464936D01*
X108844586Y-70464938D01*
X108616344Y-70526094D01*
X108616335Y-70526098D01*
X108402171Y-70625964D01*
X108402169Y-70625965D01*
X108208597Y-70761505D01*
X108041505Y-70928597D01*
X107911575Y-71114158D01*
X107856998Y-71157783D01*
X107787500Y-71164977D01*
X107725145Y-71133454D01*
X107708425Y-71114158D01*
X107578494Y-70928597D01*
X107411402Y-70761506D01*
X107411395Y-70761501D01*
X107217834Y-70625967D01*
X107217830Y-70625965D01*
X107153619Y-70596023D01*
X107003663Y-70526097D01*
X107003659Y-70526096D01*
X107003655Y-70526094D01*
X106775413Y-70464938D01*
X106775403Y-70464936D01*
X106540001Y-70444341D01*
X106539999Y-70444341D01*
X106304596Y-70464936D01*
X106304586Y-70464938D01*
X106076344Y-70526094D01*
X106076335Y-70526098D01*
X105862171Y-70625964D01*
X105862169Y-70625965D01*
X105668597Y-70761505D01*
X105501508Y-70928594D01*
X105371269Y-71114595D01*
X105316692Y-71158219D01*
X105247193Y-71165412D01*
X105184839Y-71133890D01*
X105168119Y-71114594D01*
X105038113Y-70928926D01*
X105038108Y-70928920D01*
X104871082Y-70761894D01*
X104677578Y-70626399D01*
X104463492Y-70526570D01*
X104463486Y-70526567D01*
X104250000Y-70469364D01*
X104250000Y-71366988D01*
X104192993Y-71334075D01*
X104065826Y-71300000D01*
X103934174Y-71300000D01*
X103807007Y-71334075D01*
X103750000Y-71366988D01*
X103750000Y-70469364D01*
X103749999Y-70469364D01*
X103536513Y-70526567D01*
X103536507Y-70526570D01*
X103322422Y-70626399D01*
X103322420Y-70626400D01*
X103128926Y-70761886D01*
X103006865Y-70883947D01*
X102945542Y-70917431D01*
X102875850Y-70912447D01*
X102819917Y-70870575D01*
X102803002Y-70839598D01*
X102753797Y-70707671D01*
X102753793Y-70707664D01*
X102667547Y-70592455D01*
X102667544Y-70592452D01*
X102552335Y-70506206D01*
X102552328Y-70506202D01*
X102417482Y-70455908D01*
X102417483Y-70455908D01*
X102357883Y-70449501D01*
X102357881Y-70449500D01*
X102357873Y-70449500D01*
X102357864Y-70449500D01*
X100562129Y-70449500D01*
X100562123Y-70449501D01*
X100502516Y-70455908D01*
X100367671Y-70506202D01*
X100367664Y-70506206D01*
X100252455Y-70592452D01*
X100252452Y-70592455D01*
X100166206Y-70707664D01*
X100166202Y-70707671D01*
X100115908Y-70842517D01*
X100109501Y-70902116D01*
X100109500Y-70902135D01*
X98239959Y-70902135D01*
X98287795Y-70805133D01*
X98295898Y-70791098D01*
X98417653Y-70608879D01*
X98427510Y-70596033D01*
X98572007Y-70431265D01*
X98583465Y-70419807D01*
X98748233Y-70275310D01*
X98761079Y-70265453D01*
X98943298Y-70143698D01*
X98957333Y-70135595D01*
X99153883Y-70038667D01*
X99168849Y-70032468D01*
X99375745Y-69962237D01*
X99376361Y-69962028D01*
X99392028Y-69957830D01*
X99606953Y-69915079D01*
X99623009Y-69912964D01*
X99827858Y-69899538D01*
X99845758Y-69898365D01*
X99853867Y-69898100D01*
X99889682Y-69898100D01*
X112809918Y-69898100D01*
X112845733Y-69898100D01*
X112853843Y-69898365D01*
G37*
%TD.AperFunction*%
%TD*%
M02*
